<?xml version="1.0" encoding="utf-8"?>
<!-- Generator: Adobe Illustrator 23.0.3, SVG Export Plug-In . SVG Version: 6.00 Build 0)  -->
<svg version="1.1" id="Capa_1" xmlns="http://www.w3.org/2000/svg" xmlns:xlink="http://www.w3.org/1999/xlink" x="0px" y="0px"
	 viewBox="0 0 14 14" style="enable-background:new 0 0 14 14;" xml:space="preserve">
<style type="text/css">
	.st0{fill:#655E58;}
</style>
<g>
	<g>
		<path class="st0" d="M6,5.5C6,5.5,6,5.5,6,5.5C6,5.5,6,5.5,6,5.5C6,5.5,6,5.5,6,5.5c-0.1,0,0,0.1,0,0.1c0,0-0.1,0-0.1-0.1
			C5.9,5.5,5.9,5.4,6,5.5C5.9,5.4,5.9,5.4,6,5.3c0,0,0-0.1,0-0.1C6,5.1,6.1,5,6.1,4.9c0-0.1,0-0.1,0-0.2c0-0.1,0-0.3,0-0.4
			c0-0.1,0-0.1,0-0.1c0,0,0-0.2,0.1-0.3c0.1,0,0.1,0,0.2-0.1c0,0-0.1,0-0.2,0c0,0-0.2,0.2-0.3,0.8c0,0-0.1,0.6-0.1,0.7
			c0,0,0,0.2,0,0.2s0.1,0,0.1,0c0,0,0,0,0.1,0c0,0,0,0,0.1,0C6,5.6,6,5.5,6,5.5"/>
		<path class="st0" d="M6.8,3.2l0.1,0c0,0,0.1,0,0.1,0c0,0-0.1,0-0.1,0L6.8,3.2C6.9,3.2,6.9,3.2,6.8,3.2"/>
		<path class="st0" d="M8,3.8c0,0,0-0.2,0-0.3c0-0.1,0-0.1,0-0.1c0,0,0,0,0,0c0,0,0,0,0,0s0,0,0,0c0,0,0,0,0,0c0,0,0,0.1,0,0.1
			s0,0,0,0.1c0,0,0,0,0,0c0,0,0,0.1,0,0.2c0,0,0,0,0,0C7.8,3.8,7.8,3.9,8,3.8C7.9,3.9,7.9,3.9,8,3.8C8,3.9,8,3.9,8,3.8"/>
		<path class="st0" d="M6.6,3.6C6.7,3.6,6.7,3.6,6.6,3.6c0.1,0,0.1,0,0.1,0.1c0,0,0,0,0,0.1c0,0,0,0,0,0c0,0,0,0-0.1,0
			C6.6,3.7,6.6,3.7,6.6,3.6C6.6,3.7,6.6,3.7,6.6,3.6C6.6,3.7,6.6,3.7,6.6,3.6 M6.6,3.7C6.6,3.7,6.6,3.8,6.6,3.7c0,0.1,0,0.1,0,0.2
			c0,0,0,0,0,0s0,0.2,0,0.1c0,0,0,0,0,0c0.1,0,0.1,0,0.1,0c0,0,0.1,0,0.1,0c0,0,0.1,0,0.1,0c0,0,0,0,0,0c0,0-0.1,0-0.1,0s0,0,0,0
			c0,0,0,0,0,0c0,0,0,0,0,0c0,0,0,0,0,0c0,0,0,0,0,0s0,0-0.1,0c0,0-0.1,0-0.1,0s0,0,0,0c0,0,0,0,0,0c0,0,0,0,0.1,0c0,0,0,0,0,0
			c0,0,0,0,0,0c0,0,0,0,0,0c0,0,0,0,0,0s-0.1,0-0.1,0c0,0-0.1,0-0.1,0c0,0,0,0,0,0c0,0,0,0,0,0s0,0,0.1,0c0,0,0,0,0,0c0,0,0,0,0,0
			c0,0,0,0,0-0.1c0-0.1-0.1-0.1-0.1-0.1c0,0,0,0,0,0c0,0,0,0,0,0C6.6,3.6,6.6,3.7,6.6,3.7"/>
		<path class="st0" d="M6.6,5.5c-0.1,0-0.2,0-0.2,0s0,0.1,0,0.1c0,0,0.1,0,0.1,0c0,0,0.1,0,0.2,0C6.8,5.6,6.6,5.5,6.6,5.5"/>
		<path class="st0" d="M5.6,5.1c0,0.1,0,0.2-0.1,0.3c0,0.1,0,0.1,0,0.1c0,0,0,0,0.1,0l0.1-0.8C5.7,4.8,5.6,5,5.6,5.1"/>
		<path class="st0" d="M6.9,3.2L6.9,3.2c0.1,0,0.2,0,0.1,0C7,3.1,6.9,3.1,6.9,3.2L6.9,3.2C6.9,3.1,6.9,3.1,6.9,3.2"/>
		<path class="st0" d="M9.9,5.3H9.6V4.7c0,0,0,0,0,0c0-0.1,0.1-0.1,0.1-0.1c0.1,0,0.1,0,0.1,0.1c0,0,0,0,0,0V5.3z M9.5,4.5
			c-0.1,0-0.2-0.1-0.2-0.2c0-0.1,0.1-0.2,0.2-0.2c0.1,0,0.2,0.1,0.2,0.2C9.7,4.4,9.6,4.5,9.5,4.5 M9.3,5.3H9.1V4.7c0,0,0,0,0,0
			c0-0.1,0.1-0.1,0.1-0.1c0.1,0,0.1,0,0.1,0.1c0,0,0,0,0,0V5.3z M9.4,2.6L9.4,2.6C9.4,2.5,9.4,2.5,9.4,2.6c0.1-0.1,0.1-0.1,0.1-0.1
			c0.1,0,0.1,0,0.1,0.1v0h0v0.7H9.4V2.6z M5.2,5.3H4.9V4.7c0,0,0,0,0,0C4.9,4.6,5,4.6,5,4.6c0.1,0,0.1,0,0.1,0.1c0,0,0,0,0,0V5.3z
			 M4.7,4.5c-0.1,0-0.2-0.1-0.2-0.2c0-0.1,0.1-0.2,0.2-0.2c0.1,0,0.2,0.1,0.2,0.2C4.9,4.4,4.8,4.5,4.7,4.5 M4.6,5.3H4.3V4.7
			c0,0,0,0,0,0c0-0.1,0.1-0.1,0.1-0.1c0.1,0,0.1,0,0.1,0.1c0,0,0,0,0,0V5.3z M4.6,2.6L4.6,2.6L4.6,2.6c0-0.1,0.1-0.1,0.1-0.1
			c0,0,0.1,0,0.1,0c0,0,0,0,0,0.1h0v0.7H4.6V2.6z M10,3.9l0-1.7h0.1l-0.5-1c0.1,0,0.1-0.1,0.1-0.1c0-0.1-0.1-0.2-0.2-0.2
			C9.4,0.9,9.3,0.9,9.3,1c0,0.1,0,0.1,0.1,0.1l-0.5,1H9l0,0.5l0-0.1C8.9,2.2,8.5,1.9,8,1.9c0,0,0,0,0,0C8,1.5,7.7,1.3,7.4,1.2V0.8
			h0.1L7.2,0.3c0,0,0.1-0.1,0.1-0.1c0-0.1-0.1-0.1-0.1-0.1C7,0.1,7,0.2,7,0.2c0,0,0,0.1,0.1,0.1L6.8,0.8h0.1v0.3
			C6.5,1.3,6.3,1.5,6.2,1.9c0,0,0,0,0,0c-0.4,0-0.8,0.3-0.9,0.7l0,0.1l0-0.5h0.1l-0.5-1c0.1,0,0.1-0.1,0.1-0.1
			c0-0.1-0.1-0.2-0.2-0.2C4.6,0.9,4.6,0.9,4.6,1c0,0.1,0,0.1,0.1,0.1l-0.5,1h0.1l0,1.7H4.1l0,1.7h1.4l0-1.7V3.1c0-0.1,0-0.3,0.1-0.4
			c0,0,0-0.1,0-0.1c0.1-0.3,0.4-0.5,0.7-0.5c0.1,0,0.2,0,0.3,0c0,0,0-0.1,0-0.1c0-0.4,0.3-0.7,0.7-0.7c0.4,0,0.7,0.3,0.7,0.7
			c0,0,0,0.1,0,0.1c0.1,0,0.2,0,0.3,0c0.3,0,0.6,0.2,0.7,0.5c0,0,0,0.1,0,0.1c0,0.1,0.1,0.3,0.1,0.4v0.8l0,1.7h1.4l0-1.7H10z"/>
		<path class="st0" d="M7.4,3.5C7.4,3.5,7.4,3.5,7.4,3.5c0.1,0,0.1,0,0.1-0.1c0,0,0-0.1,0-0.1c0,0,0,0,0,0c0,0,0,0,0,0c0,0,0,0,0,0
			c0,0,0.1,0,0.1-0.1c0,0,0,0,0,0c0,0,0,0,0,0c0,0,0-0.1,0-0.1c0,0,0,0,0,0c0,0,0,0.1,0,0.1c0,0,0,0,0,0c0,0,0,0,0,0c0,0,0,0,0,0
			c0,0-0.1-0.1-0.1-0.1c0,0,0,0,0,0c0,0,0,0.1,0,0.1c0,0,0,0.1,0,0.1l0,0c0,0,0,0,0-0.1c0,0-0.1-0.1-0.1-0.1c0,0,0,0,0,0
			c0,0,0.1,0.1,0.1,0.1c0,0,0.1,0.1,0.1,0.1l0,0c0,0-0.1-0.1-0.1-0.1c0,0,0-0.1-0.1-0.1c0,0,0,0,0,0c0,0,0,0,0,0
			c0,0,0.1,0.1,0.1,0.1l0,0c0,0-0.1-0.1-0.1-0.1c0,0,0,0,0,0c0,0,0,0.1,0.1,0.1c0,0,0.1,0.1,0.1,0.1c0,0,0,0,0,0c0,0,0,0,0,0.1
			c0,0,0,0,0,0C7.3,3.4,7.3,3.5,7.4,3.5"/>
		<path class="st0" d="M8.2,4.4c0,0-0.1,0.1-0.2,0C7.9,4.3,7.9,4.3,7.9,4.3c0,0,0.1,0.1,0.2,0c0.1,0,0.1,0,0.2,0c0,0-0.1,0-0.1,0.1
			C8.1,4.4,8.2,4.4,8.2,4.4 M7.4,4.1C7.4,4.1,7.5,4.1,7.4,4.1c0,0,0.1,0,0.1,0c0,0,0,0,0,0c0,0,0,0.1,0.1,0.1c0,0,0.1,0,0.1,0
			c0,0,0,0,0,0c0,0,0,0,0,0c0,0,0.1,0,0,0c0,0,0,0,0,0c0,0,0.1,0,0.2,0c0,0,0.1,0,0.1-0.1c0,0,0-0.1,0-0.1c0,0,0,0,0,0
			c0,0,0,0.1,0,0.1c0,0,0,0,0,0c0,0,0,0.1,0,0.1c0,0,0,0.1,0,0.1c0,0,0.1,0.1,0.1,0.1C8.3,4.2,8.2,4,8.2,4c0-0.1-0.1-0.2-0.1-0.2
			c0,0,0-0.1,0-0.2c0,0,0-0.1,0-0.1s0.1,0.2,0.1,0.2c0,0,0.1,0.3,0.1,0.3c0,0,0.1,0.3,0.1,0.3c0,0,0,0,0.1,0.1c0,0,0.1,0.1,0.1,0.1
			c0,0-0.1-0.1-0.1-0.1c0,0,0,0,0-0.1c0,0,0-0.1,0-0.1c0,0,0,0,0,0c0,0,0,0,0-0.1c0,0-0.1-0.1-0.1-0.1c0,0-0.1,0-0.1,0
			C8,4.2,7.9,4.2,7.9,4.2c-0.1,0,0,0,0,0c0.1,0,0,0,0.2,0c0.1,0,0.1,0,0.2,0c0.1,0,0.1,0,0.1,0c-0.1,0-0.1,0-0.2,0
			C8,4.3,7.8,4.2,7.8,4.2c-0.1,0-0.1,0-0.1,0c0,0,0,0,0,0c-0.1,0,0,0,0,0c0,0,0.1,0,0.1,0C8,4.5,8.1,4.5,8.2,4.5c0,0,0,0,0,0
			c0,0,0,0,0,0c0,0-0.1,0-0.2,0.1c-0.1,0-0.2,0-0.2,0c0,0,0-0.1,0-0.1c0.1,0,0.1,0,0.1-0.1c0,0,0-0.1,0-0.1c-0.1,0-0.1,0-0.1,0
			l0-0.1h0l-0.1,0c0,0,0,0,0,0c0,0,0,0,0,0c0,0,0,0,0,0l-0.1,0c0,0,0,0,0,0l0,0c0,0,0,0,0,0S7.5,4.1,7.4,4.1
			C7.5,4.1,7.5,4.2,7.4,4.1L7.4,4.1z M8,3.7c0,0,0,0.1,0,0.1c0,0,0,0-0.1,0.1C8,3.8,8,3.7,8,3.7 M8,3.3c0.1,0,0.1,0,0.1,0
			C8.1,3.4,8.1,3.4,8,3.3c0.1,0,0.1,0.1,0.1,0.1C8.1,3.4,8.1,3.4,8,3.3C8.1,3.4,8,3.3,8,3.3 M8.5,4.9c0-0.1,0-0.1-0.1-0.2
			C8.5,4.7,8.5,4.7,8.5,4.9c0,0.2,0,0.5,0,0.6c0,0-0.1,0.1-0.1-0.1c0,0,0,0,0.1-0.1C8.5,5.2,8.5,5,8.5,4.9 M8.2,5.4c0,0,0-0.4,0-0.4
			C8.2,5.1,8.3,5.4,8.2,5.4C8.2,5.4,8.2,5.4,8.2,5.4 M8.1,4.8C8.1,4.7,8.1,4.7,8.1,4.8C8.1,4.7,8.1,4.7,8.1,4.8C8.1,4.9,8,4.9,8,5.1
			C7.9,5.3,7.8,5.4,7.8,5.4c0-0.1,0-0.1,0-0.1c0.1-0.1,0.4-0.6,0.4-0.6c0,0,0,0,0,0C8.2,4.6,8.2,4.7,8.1,4.8 M7.8,4.9
			c0-0.1-0.1-0.2-0.1-0.2c0,0,0.2,0.1,0.2,0.1c0.1,0,0.1,0,0.1,0c0-0.1,0.1-0.1,0.1-0.1c0,0,0,0-0.1,0.1c0,0,0,0.1-0.1,0.1
			C7.9,5,7.8,5.2,7.8,5.2C7.8,5.1,7.8,4.9,7.8,4.9 M7.2,5.3c0,0,0,0.1,0,0.1c0,0.2,0,0.2,0,0.2s0.1,0,0.1-0.2c0-0.1,0.1-0.4,0.1-0.7
			c0-0.1,0-0.3,0-0.3c0,0,0.1-0.1,0,0c0-0.1,0-0.2,0-0.2l0.2,0.1c-0.1,0-0.1,0.1-0.2,0.1c-0.1,0.1-0.1,0.3,0,0.4c0,0.1,0,0.2,0,0.2
			c0,0.2,0,0.3,0,0.3s0,0.1,0.1,0.1c0,0-0.1,0-0.1,0c0,0,0,0,0,0c0,0-0.1,0,0,0.1c0,0,0,0-0.1,0c0,0,0,0-0.1,0c0,0,0,0,0,0
			c0,0,0,0,0,0c0,0,0,0,0,0c0,0,0,0,0,0l0,0c0,0,0,0,0,0c0,0,0,0,0,0c0,0,0,0,0,0c0,0,0,0,0,0c0,0,0,0,0.1,0c0,0-0.1,0,0,0
			c0,0,0,0,0.1,0c0,0,0.1,0,0.2,0c0,0,0,0,0,0c0,0,0.1,0,0.1,0c0-0.1-0.1-0.1-0.1-0.1c0,0-0.1,0-0.1,0s0.1,0,0.1,0c0,0,0.1,0,0.1,0
			c0.1,0,0.1,0,0.2,0C8,5.4,8,5.3,8.1,5.1c0-0.1,0-0.2,0.1-0.3c0,0.1,0,0.2,0,0.2c0,0.1,0,0.3,0,0.4c0,0,0,0,0,0s0,0.1,0.1,0.1
			c0,0,0,0,0.1,0c0,0,0.1,0.1,0.2,0c0,0,0,0,0.1,0c0,0,0-0.6,0-0.7c0-0.1,0-0.1,0-0.1c0,0-0.1-0.1-0.1-0.1s0,0,0-0.1
			c0-0.1,0-0.1,0,0c0,0.1,0,0.1,0,0.2c0,0,0,0,0,0.1c0,0,0,0.1,0,0.1c0,0,0,0.6,0,0.6c0,0,0,0,0,0s0-0.7,0-0.8c0,0,0-0.1,0-0.1
			c0-0.1,0-0.1,0-0.2c0,0,0,0,0.1,0.1c0,0,0,0.1,0,0.2c0,0.1,0,0.1,0,0.1c0-0.2,0-0.3,0-0.3c0,0,0-0.1-0.1-0.1c0,0-0.1-0.1-0.1-0.1
			C8.4,4.1,8.4,4,8.3,3.8C8.2,3.6,8.2,3.5,8.2,3.5s0,0.1,0,0.1c0,0,0,0.1,0,0.1c0,0,0,0.1,0.1,0.2C8.4,4,8.5,4.1,8.5,4.1
			c0,0,0.1,0,0.1,0c0-0.1-0.1-0.6-0.1-0.6s0,0,0.1,0.1c0,0,0,0.1,0,0.2c0,0.1,0.1,0.5,0.1,0.5c0-0.2,0-0.2,0-0.3c0-0.1,0-0.1,0-0.2
			c0-0.1,0-0.2,0-0.2c0-0.2-0.1-0.3-0.1-0.3c0-0.1,0-0.1,0-0.1c0,0-0.1,0-0.1,0c0,0,0,0-0.1,0c0,0-0.1,0-0.1,0
			c0.1-0.1,0.1-0.1,0.1-0.1C8.2,3.3,8.1,3.3,8.1,3.3c0,0-0.1,0-0.1,0c0,0,0,0,0,0c0,0,0,0,0,0c0,0,0,0,0,0c0,0,0,0,0,0
			c0,0,0,0,0-0.1c0,0,0,0,0-0.1c0,0-0.1,0-0.1,0c0,0,0,0,0,0c0,0,0,0,0,0.1c0,0,0,0,0,0s-0.1,0,0-0.1c0,0,0,0-0.1,0c0,0,0,0.1,0,0.1
			c0,0,0,0.1,0,0.1c0,0,0,0.1,0,0.1c0,0,0,0,0,0c0,0,0,0,0,0c0,0,0,0,0,0c0,0,0-0.1,0.1-0.1c0,0,0.1,0,0.1,0c0,0,0,0,0,0
			c0,0,0,0,0,0c0,0,0,0.1,0,0.1c0,0,0,0,0,0.1c0,0.1,0,0.1,0,0.1c0,0,0-0.1-0.1-0.1c0,0,0,0.3,0,0.3c0,0,0,0,0,0l0,0c0,0,0,0,0,0
			c0,0,0,0,0,0c0,0-0.1,0-0.1,0c0,0,0,0,0,0c0,0,0,0,0,0c0,0,0,0-0.1,0c0,0,0,0-0.1,0c0,0,0,0,0,0c0,0,0,0,0,0c0,0,0,0,0,0
			c0,0,0,0,0,0l-0.1,0c0.1,0,0.1,0,0.1,0c0,0,0.1-0.1,0.1-0.1c0,0,0-0.1,0-0.1c0-0.1-0.1-0.1-0.1-0.1l0,0c0,0,0,0,0,0
			c0.1,0.1,0,0.1,0,0.1s0-0.1,0-0.1c-0.1,0-0.1-0.1-0.1-0.1c0,0-0.1,0-0.1,0c0,0,0,0-0.1,0c0,0,0,0,0,0c0,0,0,0,0,0s0,0,0,0.1
			c0,0,0,0.1,0,0.1c0,0,0,0.1,0.1,0.2c0,0,0,0,0,0c0,0,0,0,0,0c0,0,0,0,0,0.1c0,0,0,0,0,0c0,0,0,0-0.1,0c0,0,0,0,0,0c0,0,0,0,0,0
			c0,0,0.1,0,0.1,0c0,0,0,0,0,0S7.4,4,7.4,4c0,0,0,0,0,0c0,0,0,0,0,0c0,0,0.1,0,0.1,0c0,0,0,0,0,0c0,0-0.1,0-0.1,0c0,0,0,0,0,0
			c0,0,0,0,0,0c0,0,0.1,0,0.1,0c0,0,0,0,0,0s-0.1,0-0.1,0c0,0,0,0,0,0L7.3,4.1l0,0.1l0.2,0c0,0-0.1,0.5-0.1,0.8
			C7.3,5.1,7.3,5.2,7.2,5.3"/>
		<polyline class="st0" points="6.5,4.1 6.5,4.1 6.5,4.1 		"/>
		<path class="st0" d="M6.2,3.6c0,0,0,0.1,0,0.1c0,0,0.1,0.1,0.1,0c0,0,0.2-0.2,0.2-0.3c0,0,0-0.1,0-0.1c0,0,0.1,0.1,0.1,0
			c0.1,0,0.1-0.1,0.1-0.1c0,0,0.1,0,0.1,0c0,0,0,0,0,0c0,0,0.1,0,0.1,0c0,0,0,0,0,0l0,0c0.1,0,0.1,0,0.1,0c0,0,0,0,0,0c0,0,0,0,0,0
			s-0.1,0-0.1,0c0,0,0,0,0,0.1c0,0,0,0,0,0c0,0,0,0,0,0c0,0,0,0,0,0c0,0,0,0,0,0c0,0,0.1,0,0.1-0.1c0,0,0,0,0,0c0,0,0,0-0.1,0
			c0,0-0.1,0-0.1,0s0,0,0,0c0,0,0.1,0,0.1,0c0,0,0.1,0,0.1,0C7,3.1,7,3,6.9,3c0,0-0.1,0-0.1,0c0,0-0.1,0.1-0.1,0.1
			c0,0-0.1,0.1-0.1,0.1c0,0,0,0.1,0,0.1c0,0-0.1,0-0.1,0c0,0-0.1,0.1-0.1,0.1c0,0-0.1,0.1-0.1,0.1c0,0,0,0.1,0,0.1
			C6.4,3.6,6.3,3.6,6.2,3.6C6.3,3.5,6.3,3.5,6.2,3.6c0.1-0.1,0.1-0.1,0.1-0.1c0,0,0,0,0,0C6.3,3.5,6.2,3.4,6.2,3.6"/>
		<path class="st0" d="M6.7,4C6.7,4,6.7,4,6.7,4C6.6,4.1,6.5,4.1,6.5,4.1c0,0-0.1,0.1-0.1,0.1l0,0c0,0,0,0,0,0c0,0,0.2,0,0.3,0
			c0,0.1,0,0.2,0,0.3v0c0,0,0,0.2,0,0.2c0,0,0,0,0,0c0,0,0,0,0,0c0,0,0,0,0,0C6.6,4.4,6.4,4.3,6.2,4.3c0,0-0.1,0-0.1,0.1
			c0,0,0,0.1,0,0.1c0,0,0,0.1,0,0.1c0,0,0.1,0,0.1,0c0,0,0,0,0,0c0,0,0,0-0.1,0c0,0,0,0,0,0c0,0,0,0,0,0s0,0,0.1,0
			c0.1,0,0.1-0.1,0.1-0.1c0,0,0,0-0.1,0c0,0-0.1,0-0.1,0.1c0,0-0.1,0.1-0.2,0.1c0,0,0,0,0,0c0,0.2,0.3,0,0.3,0
			C6.2,5,6.1,4.8,6.1,4.9C6.3,5,6.6,4.8,6.6,4.7c0.1-0.1,0.1-0.1,0.1-0.1s0,0.1,0,0.1c0,0,0,0,0,0c0,0.2,0,0.4,0,0.5
			c0,0.1,0,0.1,0,0.1c0,0-0.1,0-0.1,0c0,0,0,0-0.1-0.1c0,0,0,0,0,0l0,0c0,0,0-0.1-0.1-0.1c0,0,0.1,0,0.1,0c0,0,0,0,0,0c0,0,0,0,0,0
			l0,0l0,0c0,0,0,0,0,0c0,0,0,0,0,0v0C6.5,5.1,6.5,5,6.5,5c0,0,0,0.1,0.1,0.1C6.7,5,6.7,4.8,6.7,4.8c0,0-0.1,0-0.2,0.1
			c0,0-0.1,0.1-0.2,0.1C6.3,5,6.2,5.1,6.2,5.1S6.3,5,6.2,5c0,0-0.1,0.1-0.1,0.2c0,0.1,0,0.1-0.1,0.1c0,0.1,0.2,0,0.3-0.1
			C6.4,5.1,6.4,5.1,6.4,5l0,0c0,0,0,0.1,0,0.1c0,0,0,0,0,0c0,0,0,0,0,0c0,0-0.2,0.1-0.3,0.2C6,5.4,6,5.5,6,5.5
			c0,0.1,0.1,0.1,0.1,0.1s0,0,0.1,0c0,0,0.1,0,0.2-0.1c0.1-0.1,0.2-0.1,0.2-0.1c0,0,0,0-0.1,0c0,0,0,0-0.1,0c0,0-0.1,0-0.2,0.1
			c0,0,0.1-0.1,0.2-0.2c0,0,0-0.1,0-0.2c0,0.1,0.1,0.2,0.1,0.2l0,0l0,0c0,0,0-0.1,0-0.1c0,0.1,0.1,0.1,0.1,0.2h0v0
			c0,0,0.1,0.1,0.1,0.1c0.1,0,0.1,0.1,0.2,0.1v0h0c0,0,0.1,0,0.1,0l0,0l0,0c0,0,0.1-0.1,0.2-0.2c0,0,0.1-0.1,0.1-0.3
			c0,0,0,0.1,0,0.1l0,0c0,0,0,0,0,0l0,0l0,0l0,0c0,0,0-0.1,0-0.2c0-0.1,0-0.1-0.1-0.2l0,0l0,0c0,0,0,0.2-0.1,0.3l0,0l0,0
			c0,0,0,0,0.1,0c0,0,0,0.1-0.1,0.2c0,0-0.1,0-0.1,0c0,0,0,0,0-0.1c0-0.1-0.1-0.7-0.1-1.1c0.2,0,0.3-0.1,0.3-0.1c0,0,0,0,0,0
			c0,0,0,0,0,0C7.1,4,6.9,4,6.7,4C6.8,4,6.8,4,6.7,4C6.8,4,6.8,4,6.7,4C6.8,4,6.7,4,6.7,4C6.7,4,6.7,4,6.7,4"/>
		<path class="st0" d="M5.7,5.5c0,0,0-0.2,0-0.2C5.7,5.3,5.7,5.4,5.7,5.5c-0.1,0-0.1,0.1-0.1,0.1s0,0,0.1,0C5.6,5.5,5.7,5.5,5.7,5.5
			"/>
		<path class="st0" d="M6.4,3.9c0,0-0.1,0-0.1,0.1C6.2,4,6.2,4,6.2,4.1c0,0,0,0.1,0.1,0C6.5,4,6.5,4,6.5,4C6.4,4,6.5,3.9,6.4,3.9
			C6.5,3.9,6.4,3.9,6.4,3.9"/>
	</g>
	<polygon class="st0" points="7.7,1.1 8.2,1.1 8.2,1.1 8.1,1.5 8.1,1.5 8.1,1.5 8.1,1.5 8.1,1.5 8.4,1.1 8.4,1.1 8.7,1.5 8.6,1.1 
		8.6,1.1 9.1,1.1 8.6,0.9 8.9,0.5 8.5,0.7 8.4,0.2 8.3,0.7 7.9,0.5 7.9,0.5 8.2,0.9 8.2,0.9 	"/>
	<g>
		<path class="st0" d="M8.2,7.3C7.9,7.5,7.5,7.6,7.1,7.6C6.7,7.6,6.3,7.5,6,7.3C5.7,7.5,5.3,7.6,4.9,7.6c0,0-0.1,0-0.1,0
			C4.9,7.8,5,7.9,5.1,8c0.3,0,0.6-0.2,0.9-0.4C6.3,7.9,6.7,8,7.1,8c0.4,0,0.8-0.1,1.1-0.4C8.5,7.8,8.8,7.9,9.1,8
			c0.1-0.1,0.2-0.2,0.3-0.3c0,0-0.1,0-0.1,0C8.9,7.6,8.5,7.5,8.2,7.3"/>
		<polygon class="st0" points="9.4,7.6 9.4,7.6 9.4,7.6 		"/>
		<path class="st0" d="M6.2,2.8C6.2,2.8,6.2,2.8,6.2,2.8C6.2,2.8,6.2,2.8,6.2,2.8C6.1,2.8,6.2,2.8,6.2,2.8C6.2,2.8,6.2,2.8,6.2,2.8
			C6.3,2.8,6.2,2.8,6.2,2.8 M6.2,2.8C6.2,2.8,6.2,2.8,6.2,2.8C6.2,2.8,6.2,2.8,6.2,2.8C6.2,2.8,6.2,2.8,6.2,2.8
			C6.2,2.8,6.2,2.8,6.2,2.8C6.2,2.8,6.2,2.8,6.2,2.8 M6.2,2.7C6.2,2.7,6.2,2.7,6.2,2.7C6.2,2.7,6.1,2.7,6.2,2.7
			C6.1,2.7,6.1,2.8,6.1,2.8c0,0,0,0,0,0c0,0,0,0,0,0c0,0,0,0,0,0c0,0,0,0,0,0c0,0,0,0,0,0c0,0,0,0,0,0c0,0,0,0,0,0c0,0,0,0,0,0
			c0,0,0,0,0,0c0,0,0.1,0,0.1,0c0,0,0,0,0,0c0,0,0.1,0,0.1,0c0,0,0-0.1,0-0.1c0,0,0,0,0,0s0,0,0,0l0,0c0,0,0,0,0,0c0,0,0,0,0,0
			s0,0,0.1,0l0,0c0.1,0,0,0,0-0.1c0,0,0,0,0-0.1c0,0,0,0,0,0c0,0,0,0,0,0C6.3,2.7,6.3,2.7,6.2,2.7C6.2,2.7,6.2,2.7,6.2,2.7
			C6.2,2.7,6.2,2.7,6.2,2.7"/>
		<path class="st0" d="M8.2,6.6C7.9,6.8,7.5,6.9,7.1,6.9C6.7,6.9,6.3,6.8,6,6.6C5.7,6.8,5.3,6.9,4.9,6.9c-0.2,0-0.4,0-0.6-0.1h0
			C4.3,7,4.4,7.1,4.5,7.2c0.1,0,0.2,0,0.4,0c0.4,0,0.8-0.1,1.1-0.4c0.3,0.2,0.7,0.4,1.1,0.4c0.4,0,0.8-0.1,1.1-0.4
			c0.3,0.2,0.7,0.4,1.1,0.4c0.1,0,0.3,0,0.4,0C9.8,7.1,9.9,7,9.9,6.8C9.7,6.9,9.5,6.9,9.3,6.9C8.9,6.9,8.5,6.8,8.2,6.6"/>
		<path class="st0" d="M5.8,3C5.8,3,5.8,3,5.8,3C5.8,2.9,5.9,2.9,5.8,3C5.8,3,5.9,3,5.8,3C5.9,3,5.9,3,5.8,3C5.9,3,5.9,3,5.8,3
			C5.9,3,5.9,3,5.8,3C5.9,2.9,5.9,2.9,5.8,3c0.1-0.1,0.1-0.1,0.1-0.1C5.9,2.8,5.9,2.9,5.8,3C5.9,2.9,5.9,2.9,5.8,3
			C5.9,3,5.9,3,5.9,3c0,0,0,0,0-0.1c0,0,0,0,0,0.1C6,3,6,3,6,3c0,0,0,0,0-0.1c0,0,0,0,0,0.1C6,3,6,3,6,3c0,0,0,0,0,0c0,0,0,0,0-0.1
			c0,0,0,0,0-0.1c0,0,0,0,0,0.1c0,0,0,0,0,0c0,0,0,0,0-0.1c0,0,0,0,0,0s0,0,0,0c0,0,0,0,0,0c0,0,0,0,0,0c0,0,0,0,0-0.1c0,0,0,0,0,0
			s0,0,0,0c0,0,0,0,0,0c0,0,0,0,0,0c0,0,0,0,0-0.1c0,0,0,0.1,0,0.1c0,0,0,0,0-0.1c0,0,0,0,0,0c0,0,0,0,0,0c0,0,0,0,0,0s0,0,0,0
			c0,0,0,0,0,0c0,0,0,0,0,0c0,0,0,0,0,0s0,0,0,0c0,0,0,0,0,0c0,0-0.1-0.1-0.1-0.1c0,0-0.1,0-0.1,0c-0.1,0-0.1,0-0.1,0.1
			c0,0-0.1,0.1-0.1,0.2C5.8,2.9,5.8,3,5.8,3C5.8,3.1,5.8,3,5.8,3"/>
		<path class="st0" d="M6.4,4.2c-0.1,0-0.1-0.1-0.1-0.1c-0.1,0,0,0.1,0,0.1c0.1,0,0.1,0.1,0.2,0.1c0.1,0.1,0.2,0.1,0.2,0.1
			C6.7,4.4,6.6,4.3,6.4,4.2"/>
		<path class="st0" d="M5.6,1.4c-0.1,0-0.3-0.1-0.4-0.1c0.1,0.1,0.3,0.2,0.5,0.2c0.3,0,0.6-0.3,0.6-0.6S6.1,0.3,5.7,0.3
			c-0.2,0-0.4,0.1-0.5,0.2c0.1-0.1,0.2-0.1,0.4-0.1c0.3,0,0.5,0.2,0.5,0.5C6.1,1.2,5.9,1.4,5.6,1.4"/>
		<path class="st0" d="M5.9,3.3C5.9,3.3,5.8,3.3,5.9,3.3c-0.1,0-0.1,0-0.1-0.1c0,0,0-0.1,0-0.1C5.8,3.2,5.7,3.2,5.9,3.3 M6,3.7
			c0,0.1,0.1,0.1,0.1,0.1C5.9,3.9,5.9,4.1,5.9,4.1C5.9,3.9,6,3.9,6,3.7 M5.8,3.2C5.8,3.1,5.8,3.1,5.8,3.2C5.8,3.1,5.8,3.1,5.8,3.2
			C5.8,3.2,5.7,3.2,5.8,3.2C5.7,3.3,5.6,3.3,5.6,3.4c0,0.2-0.1,0.2-0.1,0.3c0,0.1,0,0.3,0,0.4c0,0.1,0,0.1,0,0.2c0,0,0,1.2,0,1.2
			l0-0.3l0.1-0.7c0,0,0-0.3,0-0.4c0-0.2,0-0.5,0-0.5c0,0,0-0.2,0.1-0.2l0,1c0,0,0,0.2,0,0.3c0,0,0,0.5,0,0.5l0.1,0.3c0,0,0,0,0.1,0
			l0-0.1L5.7,5.2c0,0,0,0,0,0c0,0,0,0,0,0c0-0.1,0.1-0.7,0.1-0.8C6,4.3,6,4,6.2,3.9c0,0,0,0-0.1,0c-0.1,0,0,0,0,0c0,0,0-0.1,0-0.1
			C6,3.6,6,3.6,5.9,3.5c-0.1-0.1,0-0.1,0-0.1c0,0,0,0.1,0.1,0.1c0,0,0.1,0.2,0.1,0.2s0-0.2-0.1-0.3c0,0-0.1-0.1-0.1-0.1
			C5.9,3.3,5.9,3.3,5.8,3.2C5.8,3.2,5.8,3.2,5.8,3.2C5.8,3.2,5.8,3.2,5.8,3.2C5.8,3.2,5.8,3.2,5.8,3.2C6,3.3,6,3.3,6.1,3.3
			c0,0,0-0.1,0-0.1c0,0,0,0,0-0.1c0,0,0,0,0,0c0,0-0.1,0-0.1,0c0,0,0,0,0,0s0,0,0,0c0,0,0,0,0,0c0,0,0,0-0.1,0l0,0
			C5.9,3.1,5.8,3.1,5.8,3.2C5.8,3.1,5.8,3.2,5.8,3.2"/>
		<path class="st0" d="M7.1,8.4C6.7,8.4,6.3,8.2,6,8C5.8,8.1,5.7,8.2,5.5,8.2h0c0.1,0.1,0.2,0.1,0.4,0.2c0,0,0.1-0.1,0.1-0.1
			c0.3,0.2,0.7,0.4,1.1,0.4c0.4,0,0.8-0.1,1.1-0.4c0,0,0.1,0.1,0.1,0.1c0.1-0.1,0.2-0.1,0.4-0.2C8.5,8.2,8.4,8.1,8.2,8
			C7.9,8.2,7.5,8.4,7.1,8.4"/>
		<path class="st0" d="M8,2.7C8,2.7,8,2.7,8,2.7c-0.1,0-0.2,0-0.2,0c0,0,0,0,0,0c0,0,0,0,0,0C7.9,2.7,7.9,2.7,8,2.7
			C7.9,2.7,7.9,2.7,8,2.7C7.9,2.7,7.9,2.7,8,2.7C8,2.7,8,2.7,8,2.7C8,2.7,8,2.8,8,2.7C8,2.8,8,2.8,8,2.7C8,2.7,8,2.7,8,2.7 M7.9,2.8
			C7.9,2.8,7.9,2.8,7.9,2.8C7.9,2.8,7.9,2.8,7.9,2.8c0.1,0,0.1,0,0.1,0C7.9,2.8,7.9,2.8,7.9,2.8 M8,2.8C7.9,2.8,7.9,2.8,8,2.8
			C7.9,2.8,7.9,2.8,8,2.8C7.9,2.8,7.9,2.8,8,2.8C8,2.8,8,2.8,8,2.8C8,2.8,8,2.8,8,2.8 M8.1,3C8.1,3,8.1,2.9,8.1,3
			c0-0.1,0-0.1-0.1-0.1c0,0,0,0,0,0C8.1,2.9,8.2,2.9,8.1,3C8.2,2.9,8.2,2.9,8.1,3C8.1,2.9,8.1,3,8.1,3C8.2,3,8.2,3,8.1,3
			C8.2,3,8.2,3,8.1,3C8.2,3,8.2,3,8.1,3c0.1,0,0.1-0.1,0-0.1c-0.1,0-0.1-0.1-0.1-0.1s0,0,0.1,0C8.2,2.9,8.2,2.9,8.1,3
			c0.1-0.1,0.1-0.1,0-0.1C8.2,2.9,8.2,3,8.1,3c0.1,0,0.1,0,0.1-0.1c0,0,0,0,0,0c0,0,0,0,0-0.1c0,0,0,0,0-0.1c0,0,0,0,0,0
			c0,0,0,0,0-0.1c0,0,0,0,0,0c0,0,0,0,0-0.1c0,0,0,0,0,0c0,0,0,0,0,0.1c0,0,0,0,0,0.1c0,0,0,0,0,0c0,0,0,0,0,0.1c0,0,0,0,0-0.1
			c0,0,0-0.1,0-0.1c0,0,0,0,0,0c0,0,0,0,0-0.1c0-0.1-0.1-0.1-0.1-0.2c0,0,0,0,0,0c0,0,0,0,0,0c0,0,0-0.1-0.1-0.1c0,0-0.2,0-0.2,0
			c0,0-0.1,0.1-0.1,0.1c0,0,0,0.1,0,0.1c0,0,0,0,0,0c0,0,0,0,0,0c0,0,0,0,0,0c0,0,0,0,0,0c0,0,0,0.1,0,0.1c0,0,0,0,0,0c0,0,0,0,0,0
			c0,0,0,0,0,0c0,0,0,0,0,0c0,0,0,0,0,0s0,0,0,0c0,0,0,0,0,0l0,0c0,0,0,0,0,0c0,0,0,0,0,0c0,0,0,0,0,0c0,0,0,0,0,0c0,0,0,0,0,0.1
			c0,0,0,0,0.1,0c0,0,0,0,0,0C8,3.1,8.1,3,8.1,3"/>
		<path class="st0" d="M9.6,6.1H9.1V5.8H8.5v0.3H7.9V5.8H7.4v0.3H6.8V5.8H6.3v0.3H5.7V5.8H5.2v0.3H4.6V5.8H4c0,0.2,0,0.5,0.1,0.7
			c0.2,0.1,0.5,0.1,0.7,0.1c0.4,0,0.8-0.1,1.1-0.4c0.3,0.2,0.7,0.4,1.1,0.4h0c0.4,0,0.8-0.1,1.1-0.4c0.3,0.2,0.7,0.4,1.1,0.4
			c0.3,0,0.5-0.1,0.7-0.1c0.1-0.2,0.1-0.4,0.1-0.7H9.6V6.1z"/>
		<path class="st0" d="M5.9,3.3C5.9,3.3,5.9,3.3,5.9,3.3C6,3.4,6.1,3.5,6.1,3.6c0,0,0.1,0,0.1-0.1c0-0.1,0-0.2,0-0.2c0,0,0,0,0,0.1
			c0,0.1,0,0.1,0,0.2c0,0,0,0,0-0.1c0,0,0,0,0-0.1c0-0.1,0-0.1,0-0.1c0,0,0,0,0-0.1c0,0-0.1-0.1-0.1-0.1c0,0,0,0,0,0.1
			C6.1,3.3,6,3.3,5.9,3.3"/>
		<path class="st0" d="M8,3.3c0,0,0.1,0,0.1,0c0,0,0.1,0,0.1,0c0,0,0,0,0.1-0.1c0,0,0,0,0,0c0,0,0,0,0,0c0,0,0,0,0-0.1
			c0,0,0-0.1,0-0.1l0,0c0,0,0,0,0,0c0,0,0,0,0,0c0,0,0,0,0,0c0,0-0.1,0.1-0.1,0.1c0,0,0,0,0,0c0,0,0,0,0,0C8,3.1,8,3.2,8,3.3
			C8,3.2,8,3.3,8,3.3"/>
		<path class="st0" d="M8.5,5.6C8.5,5.6,8.5,5.6,8.5,5.6c-0.1,0-0.1,0-0.1,0c0,0,0,0,0,0c0,0,0,0,0,0c-0.1,0,0,0,0,0c0,0,0,0,0,0
			c0,0,0,0,0,0c0,0,0,0,0,0C8.3,5.7,8.4,5.7,8.5,5.6c-0.1,0.1-0.1,0-0.1,0C8.4,5.6,8.4,5.6,8.5,5.6C8.4,5.7,8.5,5.7,8.5,5.6
			C8.5,5.6,8.4,5.6,8.5,5.6C8.4,5.6,8.5,5.6,8.5,5.6C8.5,5.7,8.5,5.7,8.5,5.6C8.5,5.6,8.5,5.6,8.5,5.6C8.5,5.6,8.5,5.6,8.5,5.6
			C8.5,5.6,8.5,5.6,8.5,5.6C8.5,5.6,8.5,5.6,8.5,5.6"/>
	</g>
</g>
<g>
	<path class="st0" d="M3.1,10.9l-0.1-0.5H2.3l-0.2,0.5H1.8L2.5,9h0.3l0.7,1.9H3.1z M2.6,9.4l-0.2,0.7h0.4L2.6,9.4z"/>
	<path class="st0" d="M4.9,10.9l-0.1-0.5H4.1l-0.2,0.5H3.6L4.2,9h0.3l0.7,1.9H4.9z M4.4,9.4l-0.2,0.7h0.4L4.4,9.4z"/>
	<path class="st0" d="M6.4,10.9L6,10.1H5.8v0.8H5.5V9h0.6c0.3,0,0.4,0,0.5,0.1c0.1,0.1,0.2,0.2,0.2,0.4c0,0.1,0,0.3-0.1,0.4
		C6.6,10,6.5,10,6.4,10.1l0.5,0.8H6.4z M6.1,9.3H5.8v0.5h0.2c0.2,0,0.3-0.1,0.3-0.3C6.4,9.4,6.3,9.3,6.1,9.3z"/>
	<path class="st0" d="M8.4,10.9v-0.8h-1v0.8H7.1V9h0.4v0.8h1V9h0.4v1.9H8.4z"/>
	<path class="st0" d="M10.5,10.8c-0.1,0.1-0.3,0.1-0.5,0.1c-0.2,0-0.4,0-0.5-0.1c-0.2-0.1-0.3-0.3-0.3-0.6V9h0.4v1.2
		c0,0.3,0.1,0.4,0.4,0.4c0.3,0,0.4-0.1,0.4-0.4V9h0.4v1.2C10.8,10.5,10.7,10.6,10.5,10.8z"/>
	<path class="st0" d="M12.3,9.4c-0.2-0.1-0.4-0.1-0.5-0.1c-0.2,0-0.3,0.1-0.3,0.2c0,0.1,0,0.1,0.2,0.2c0.3,0.2,0.5,0.3,0.6,0.4
		c0.1,0.1,0.1,0.2,0.1,0.3c0,0.3-0.2,0.5-0.7,0.5c-0.1,0-0.1,0-0.2,0c-0.1,0-0.2,0-0.4-0.1c0,0-0.1,0-0.1-0.1l0.2-0.3
		c0.1,0.1,0.2,0.1,0.3,0.1c0.1,0,0.2,0.1,0.3,0.1c0.2,0,0.3-0.1,0.3-0.2c0-0.1,0-0.1-0.2-0.2L11.6,10c-0.3-0.2-0.4-0.3-0.4-0.5
		c0-0.1,0-0.2,0.1-0.3c0,0,0.1-0.1,0.1-0.1C11.5,9,11.6,9,11.8,9c0.1,0,0.2,0,0.4,0c0.1,0,0.1,0,0.3,0.1L12.3,9.4z"/>
	<path class="st0" d="M1.1,13.6l-0.6-0.9v0.9H0.1v-1.9h0.4v0.9l0.6-0.9h0.4l-0.6,0.9l0.7,1H1.1z"/>
	<path class="st0" d="M2.6,13.6c-0.6,0-1-0.4-1-1c0-0.6,0.4-1,1-1c0.6,0,1,0.4,1,1C3.6,13.2,3.1,13.6,2.6,13.6z M2.6,11.9
		c-0.4,0-0.6,0.3-0.6,0.7c0,0.4,0.3,0.7,0.6,0.7c0.4,0,0.6-0.3,0.6-0.7C3.2,12.2,2.9,11.9,2.6,11.9z"/>
	<path class="st0" d="M5.5,13.6v-1.4c0,0.1,0,0.1-0.1,0.3L5,13.6H4.7l-0.4-1.1c0-0.1,0-0.1-0.1-0.3v1.4H3.9v-1.9h0.4L4.8,13
		c0,0.1,0,0.1,0,0.1c0-0.1,0-0.1,0-0.1l0.5-1.3h0.4v1.9H5.5z"/>
	<path class="st0" d="M7.9,13.6v-1.4c0,0.1,0,0.1-0.1,0.3l-0.4,1.1H7.1l-0.4-1.1c0-0.1,0-0.1-0.1-0.3v1.4H6.3v-1.9h0.4L7.2,13
		c0,0.1,0,0.1,0,0.1c0-0.1,0-0.1,0-0.1l0.5-1.3h0.4v1.9H7.9z"/>
	<path class="st0" d="M10,13.5c-0.1,0.1-0.3,0.1-0.5,0.1c-0.2,0-0.4,0-0.5-0.1c-0.2-0.1-0.3-0.3-0.3-0.6v-1.2h0.4v1.2
		c0,0.3,0.1,0.4,0.4,0.4c0.3,0,0.4-0.1,0.4-0.4v-1.2h0.4v1.2C10.3,13.2,10.2,13.3,10,13.5z"/>
	<path class="st0" d="M12,13.6l-0.8-1.2c0,0,0,0,0-0.1c0,0,0,0,0,0c0,0,0,0,0-0.1v1.4h-0.3v-1.9h0.4l0.8,1.2c0,0,0,0,0,0
		c0,0,0,0,0,0l0,0l0,0v-1.4h0.3v1.9H12z"/>
	<path class="st0" d="M12.8,13.6v-1.9H14V12h-0.8v0.5h0.6v0.3h-0.6v0.5H14v0.3H12.8z"/>
</g>
</svg>
