<?xml version="1.0" encoding="utf-8"?>
<!-- Generator: Adobe Illustrator 23.0.3, SVG Export Plug-In . SVG Version: 6.00 Build 0)  -->
<svg version="1.1" id="Capa_1" xmlns="http://www.w3.org/2000/svg" xmlns:xlink="http://www.w3.org/1999/xlink" x="0px" y="0px"
	 viewBox="0 0 14 14" style="enable-background:new 0 0 14 14;" xml:space="preserve">
<style type="text/css">
	.st0{fill:#0066CC;}
</style>
<g>
	<path class="st0" d="M7,13.9c0,0-5.1-5.9-5.1-8.8c0-2.9,2.3-5,5.1-5c2.8,0,5.1,2.3,5.1,5S7,13.9,7,13.9L7,13.9L7,13.9z M7,0.7
		c-2.5,0-4.5,2-4.5,4.4C2.5,7.5,7,13,7,13s4.5-5.5,4.5-7.8C11.5,2.7,9.5,0.7,7,0.7L7,0.7L7,0.7z M8.7,4.5c0,0.9-0.7,1.7-1.7,1.7
		S5.3,5.4,5.3,4.5S6.1,2.9,7,2.9C7.9,2.9,8.7,3.6,8.7,4.5L8.7,4.5L8.7,4.5z M7,3.5c-0.6,0-1.1,0.5-1.1,1.1S6.4,5.6,7,5.6
		s1.1-0.5,1.1-1.1S7.6,3.5,7,3.5L7,3.5L7,3.5z"/>
</g>
</svg>
