<?xml version="1.0" encoding="utf-8"?>
<!-- Generator: Adobe Illustrator 23.0.3, SVG Export Plug-In . SVG Version: 6.00 Build 0)  -->
<svg version="1.1" id="Layer_1" xmlns="http://www.w3.org/2000/svg" xmlns:xlink="http://www.w3.org/1999/xlink" x="0px" y="0px"
	 viewBox="0 0 86.8 81.7" style="enable-background:new 0 0 86.8 81.7;" xml:space="preserve">
<style type="text/css">
	.st0{fill-rule:evenodd;clip-rule:evenodd;fill:#4667AE;}
</style>
<g>
	<path class="st0" d="M86.8,39.9c0,0.9,0,1.8,0,2.7c-0.1,1.2-0.3,2.4-0.3,3.5c0.1,1.1-0.3,2.1-1.4,2.3c-1.2,0.3-2.5,0.3-3.8,0.5
		c0-1.1,0.1-2-0.1-2.9c-0.2-1.3-0.3-2.6-1.6-3.3c-0.5-0.6-1-1.2-1.5-1.7c-2-1.7-4.3-1.8-6.6-1c-1.4,0.5-2.8,1.1-3.3,2.8
		c-0.2,0.1-0.3,0.3-0.4,0.4c-1.5,1.8-1.4,3.8-1,6c-13.4,0-26.7,0-40.1,0c0.3-5.5-1.9-8.9-6-9.5c-1.9-0.3-3.7,0.1-5.3,1.2
		c-2.5,1.8-3.5,4.2-3.3,7.3c-2.2-0.2-4.2-0.5-6.2-0.6c-2.8-0.2-4.6-1.4-5.4-4.1c0-1.1,0-2.2,0-3.3c0.2-0.5,0.3-1,0.6-1.3
		c1.3-1.3,0.9-3,0.9-4.5c0.1-1.4,0.5-1.5,1.5-1.7c2.5-0.3,5-0.3,7.3-1.1c4.1-1.4,8-3.2,12-4.8c0.4-0.2,0.9-0.5,0.9-0.8
		c0.3-1.3,1.1-1,1.9-0.8c0.9,0.2,1.8,0.5,2.7,0.5c4.3,0,8.6-0.3,12.8-0.2c3.8,0.1,7.4,0.9,10.7,2.8c2.6,1.5,5.2,2.8,7.7,4.4
		c1.4,0.9,2.7,1.2,4.2,1.1c6.6-0.1,13,1.1,19.3,3C85,37.4,86.4,38.1,86.8,39.9z M37.4,27c-1.5,0-2.8-0.1-4.2,0
		c-3.8,0.3-7.6,0.6-11.2,2.1c-1.1,0.5-2.1,1.1-1.8,2.5c0.3,1.3,1.1,2.1,2.4,2.2c1.9,0.2,3.9,0.4,5.8,0.4c3.3,0.1,6.6,0,10.1,0
		C38.2,31.7,37.8,29.3,37.4,27z M55,31.8c-4.3-3.6-9.6-4.8-15.5-4.9c0.9,2.5,1.6,4.7,2.4,6.9c0.1,0.2,0.5,0.5,0.7,0.5
		c3.8,0.1,7.6,0,11.2,0C54.3,33.4,54.6,32.7,55,31.8z"/>
	<path class="st0" d="M79.8,42.7c1,1.8,1.6,3.6,1.2,5.6c-1,4-4.8,6.4-8.8,5.3c-3.9-1.1-6-5.2-4.6-9.1c0.2-0.5,0.3-1,0.5-1.4
		c0.2-0.1,0.3-0.3,0.4-0.4c2.9-2.8,5.6-3.5,8.6-2.2c0.5,0.2,0.9,0.3,1.4,0.5C78.8,41.6,79.3,42.2,79.8,42.7z M74.2,52
		c2.8-0.1,5.1-2.4,5-5.1c-0.1-2.8-2.4-5.1-5.1-5c-2.8,0-5.1,2.4-5,5.1C69.1,49.8,71.4,52,74.2,52z"/>
	<path class="st0" d="M19.7,53.9c-3.8-0.1-6.9-3.2-6.9-7c0-3.9,3.2-7,7.1-6.9c3.8,0.1,6.9,3.3,6.9,7C26.7,50.8,23.5,53.9,19.7,53.9z
		 M19.9,41.9c-2.7-0.1-5.1,2.2-5.2,5c-0.1,2.7,2.2,5.1,5,5.2c2.7,0.1,5.1-2.2,5.2-4.9C24.9,44.4,22.6,41.9,19.9,41.9z"/>
</g>
</svg>
