<?xml version="1.0" encoding="utf-8"?>
<!-- Generator: Adobe Illustrator 23.0.3, SVG Export Plug-In . SVG Version: 6.00 Build 0)  -->
<svg version="1.1" id="Layer_1" xmlns="http://www.w3.org/2000/svg" xmlns:xlink="http://www.w3.org/1999/xlink" x="0px" y="0px"
	 viewBox="0 0 1920 831" style="enable-background:new 0 0 1920 831;" xml:space="preserve">
<style type="text/css">
	.st0{fill:#1E1E1E;}
	.st1{fill:none;stroke:#4667AE;stroke-width:9;stroke-miterlimit:10;}
	.st2{fill:none;stroke:#4667AE;stroke-width:5;stroke-miterlimit:10;}
</style>
<rect x="-0.5" class="st0" width="1920.5" height="831"/>
<g>
	<polyline class="st1" points="2515.8,264.5 1858.8,258 1742.8,339 1620.3,338.5 	"/>
	<polyline class="st1" points="2515.8,289.5 1867.8,283.5 1751.8,364.5 1620.3,364.5 	"/>
	<polyline class="st1" points="2517.8,235.5 1784.8,231 1668.8,300 1546.3,299.5 1503.3,339.5 1485.3,339.5 	"/>
	<polyline class="st1" points="2517.8,202.5 1784.8,198 1668.8,276 1485.3,275.5 	"/>
	<polyline class="st1" points="2518.8,165.5 1784.8,165 1661.8,248 1574.3,248.5 1534.1,212.7 1487.3,212.5 	"/>
	<line class="st1" x1="2519.8" y1="146.5" x2="1487.8" y2="139.5"/>
	<polyline class="st1" points="2517.8,122.5 1816.8,117.5 1772.3,78.5 1608.3,78.5 	"/>
	<circle class="st2" cx="1477.3" cy="340.5" r="9"/>
	<circle class="st2" cx="1476.3" cy="274.5" r="9"/>
	<circle class="st2" cx="1476.3" cy="212.5" r="9"/>
	<circle class="st2" cx="1478.3" cy="138.5" r="9"/>
	<circle class="st2" cx="1612.3" cy="339.5" r="9"/>
	<circle class="st2" cx="1612.3" cy="364.5" r="9"/>
	<circle class="st2" cx="1600.3" cy="78.5" r="9"/>
</g>
<g>
	<path class="st1" d="M-0.5,368.5"/>
	<path class="st1" d="M-54.6,213.2"/>
	<path class="st1" d="M174.8,451.8"/>
	<path class="st1" d="M160.1,472.7"/>
	<path class="st1" d="M142,493.6"/>
	<path class="st1" d="M-11.6,498.5"/>
	<polyline class="st1" points="-55.4,333.2 -6.4,333.6 214.2,533.1 	"/>
	<polyline class="st1" points="-56.1,354.2 -22.1,354.5 176.2,534.9 	"/>
	<polyline class="st1" points="-56.2,376.2 -36.2,376.4 141.7,536.6 	"/>
	<circle class="st2" cx="220.1" cy="540.2" r="9"/>
	<circle class="st2" cx="183.1" cy="541.9" r="9"/>
	<circle class="st2" cx="147.1" cy="541.6" r="9"/>
	<path class="st1" d="M173,698.8"/>
	<path class="st1" d="M158.7,677.7"/>
	<path class="st1" d="M140.8,656.6"/>
	<path class="st1" d="M-12.6,649.5"/>
	<polyline class="st1" points="-58.8,814.2 -9.8,814.6 213.6,618.1 	"/>
	<polyline class="st1" points="-59.1,793.2 -25.1,793.4 175.6,615.8 	"/>
	<polyline class="st1" points="-59,771.2 -39,771.3 141.1,613.6 	"/>
	<circle class="st2" cx="219.6" cy="611.2" r="9"/>
	<circle class="st2" cx="182.7" cy="608.9" r="9"/>
	<circle class="st2" cx="146.7" cy="608.6" r="9"/>
</g>
</svg>
