<?xml version="1.0" encoding="utf-8"?>
<!-- Generator: Adobe Illustrator 23.0.3, SVG Export Plug-In . SVG Version: 6.00 Build 0)  -->
<svg version="1.1" id="Layer_1" xmlns="http://www.w3.org/2000/svg" xmlns:xlink="http://www.w3.org/1999/xlink" x="0px" y="0px"
	 viewBox="0 0 1920 831" style="enable-background:new 0 0 1920 831;" xml:space="preserve">
<style type="text/css">
	.st0{fill:none;stroke:#C8C8C8;stroke-width:9;stroke-miterlimit:10;}
	.st1{fill:none;stroke:#C8C8C8;stroke-width:5;stroke-miterlimit:10;}
</style>
<polyline class="st0" points="2258,220.5 1601,214 1485,295 1362.5,294.5 "/>
<polyline class="st0" points="2258,245.5 1610,239.5 1494,320.5 1362.5,320.5 "/>
<polyline class="st0" points="2260,191.5 1527,187 1411,256 1288.5,255.5 1245.5,295.5 1227.5,295.5 "/>
<polyline class="st0" points="2260,158.5 1527,154 1411,232 1227.5,231.5 "/>
<polyline class="st0" points="2261,121.5 1527,121 1404,204 1316.5,204.5 1276.3,168.7 1229.5,168.5 "/>
<line class="st0" x1="2262" y1="102.5" x2="1230" y2="95.5"/>
<polyline class="st0" points="2260,78.5 1559,73.5 1514.5,34.5 1350.5,34.5 "/>
<circle class="st1" cx="1219.5" cy="296.5" r="9"/>
<circle class="st1" cx="1218.5" cy="230.5" r="9"/>
<circle class="st1" cx="1218.5" cy="168.5" r="9"/>
<circle class="st1" cx="1220.5" cy="94.5" r="9"/>
<circle class="st1" cx="1354.5" cy="295.5" r="9"/>
<circle class="st1" cx="1354.5" cy="320.5" r="9"/>
<circle class="st1" cx="1342.5" cy="34.5" r="9"/>
<path class="st0" d="M-0.5,368.5"/>
<path class="st0" d="M-54.6,213.2"/>
<path class="st0" d="M174.8,451.8"/>
<path class="st0" d="M160.1,472.7"/>
<path class="st0" d="M142,493.6"/>
<path class="st0" d="M-11.6,498.5"/>
<polyline class="st0" points="-55.4,333.2 -6.4,333.6 214.2,533.1 "/>
<polyline class="st0" points="-56.1,354.2 -22.1,354.5 176.2,534.9 "/>
<polyline class="st0" points="-56.2,376.2 -36.2,376.4 141.7,536.6 "/>
<circle class="st1" cx="220.1" cy="540.2" r="9"/>
<circle class="st1" cx="183.1" cy="541.9" r="9"/>
<circle class="st1" cx="147.1" cy="541.6" r="9"/>
<path class="st0" d="M173,698.8"/>
<path class="st0" d="M158.7,677.7"/>
<path class="st0" d="M140.8,656.6"/>
<path class="st0" d="M-12.6,649.5"/>
<polyline class="st0" points="-58.8,814.2 -9.8,814.6 213.6,618.1 "/>
<polyline class="st0" points="-59.1,793.2 -25.1,793.4 175.6,615.8 "/>
<polyline class="st0" points="-59,771.2 -39,771.3 141.1,613.6 "/>
<circle class="st1" cx="219.6" cy="611.2" r="9"/>
<circle class="st1" cx="182.7" cy="608.9" r="9"/>
<circle class="st1" cx="146.7" cy="608.6" r="9"/>
</svg>
