<?xml version="1.0" encoding="utf-8"?>
<!-- Generator: Adobe Illustrator 23.0.3, SVG Export Plug-In . SVG Version: 6.00 Build 0)  -->
<svg version="1.1" id="Capa_1" xmlns="http://www.w3.org/2000/svg" xmlns:xlink="http://www.w3.org/1999/xlink" x="0px" y="0px"
	 viewBox="0 0 14 14" style="enable-background:new 0 0 14 14;" xml:space="preserve">
<style type="text/css">
	.st0{fill:#0066CC;}
</style>
<path class="st0" d="M6.9,0.7C8,0.7,9.1,1,10.1,1.6C10.7,2,11.3,2.5,11.7,3L10.1,3C9.9,3,9.7,3.1,9.7,3.3c0,0.2,0.1,0.4,0.3,0.4
	l2.3,0.1c0.1,0.1,0.3,0,0.4-0.1c0.1-0.1,0.1-0.2,0.1-0.4L12.7,1c0-0.2-0.2-0.3-0.4-0.3C12.2,0.7,12,0.9,12,1c0,0,0,0,0,0l0,1.3
	c-0.5-0.5-1-1-1.6-1.3C9.3,0.4,8.1,0,6.9,0C5,0,3.2,0.8,1.9,2.3C0.7,3.6,0,5.3,0,7c0,0.2,0.2,0.3,0.3,0.3S0.7,7.1,0.7,7
	c0-1.5,0.6-3,1.7-4.2C3.6,1.5,5.2,0.7,6.9,0.7z"/>
<path class="st0" d="M13.6,6.6c-0.2,0-0.3,0.2-0.3,0.3c0,1.5-0.6,3-1.7,4.2c-1.2,1.3-2.8,2-4.5,2c-1.1,0-2.2-0.3-3.2-0.9
	c-0.6-0.4-1.2-0.8-1.7-1.4l1.6,0.1c0.2,0,0.4-0.1,0.4-0.3c0-0.2-0.1-0.4-0.3-0.4l-2.3-0.1c-0.1-0.1-0.3,0-0.4,0.1
	c-0.1,0.1-0.1,0.2-0.1,0.4l0.1,2.3c0,0.2,0.2,0.3,0.4,0.3c0.2,0,0.3-0.2,0.3-0.4c0,0,0,0,0,0l0-1.3c0.5,0.5,1,1,1.6,1.3
	c1.1,0.7,2.3,1,3.5,1c1.9,0,3.7-0.8,5.1-2.3c1.2-1.3,1.9-3,1.9-4.7C13.9,6.8,13.8,6.6,13.6,6.6z"/>
</svg>
