<?xml version="1.0" encoding="utf-8"?>
<!-- Generator: Adobe Illustrator 23.0.3, SVG Export Plug-In . SVG Version: 6.00 Build 0)  -->
<svg version="1.1" id="Capa_1" xmlns="http://www.w3.org/2000/svg" xmlns:xlink="http://www.w3.org/1999/xlink" x="0px" y="0px"
	 viewBox="0 0 14 14" style="enable-background:new 0 0 14 14;" xml:space="preserve">
<style type="text/css">
	.st0{fill:#F0B310;}
	.st1{fill:#231F20;}
</style>
<circle class="st0" cx="0.3" cy="6.8" r="0.3"/>
<circle class="st0" cx="1.7" cy="6.8" r="0.4"/>
<circle class="st0" cx="3" cy="6.9" r="0.5"/>
<circle class="st0" cx="4.4" cy="6.9" r="0.7"/>
<polygon class="st0" points="3.9,7.2 3.6,7.1 3.4,7.2 3.4,6.5 3.6,6.6 3.9,6.5 "/>
<g>
	<path class="st1" d="M6.7,5.4v1.8c0,0.1,0,0.3,0,0.4H6.5l0-0.3h0C6.4,7.5,6.2,7.6,6,7.6c-0.4,0-0.6-0.3-0.6-0.7
		c0-0.5,0.3-0.8,0.7-0.8c0.2,0,0.4,0.1,0.4,0.2h0V5.4H6.7z M6.5,6.7c0,0,0-0.1,0-0.1c0-0.2-0.2-0.3-0.4-0.3c-0.3,0-0.4,0.2-0.4,0.6
		c0,0.3,0.1,0.5,0.4,0.5c0.2,0,0.3-0.1,0.4-0.3c0,0,0-0.1,0-0.1V6.7z"/>
	<path class="st1" d="M7.5,5.7c0,0.1-0.1,0.2-0.2,0.2c-0.1,0-0.2-0.1-0.2-0.2c0-0.1,0.1-0.2,0.2-0.2C7.4,5.5,7.5,5.6,7.5,5.7z
		 M7.2,7.6V6.1h0.3v1.5H7.2z"/>
	<path class="st1" d="M8.2,5.7v0.4h0.4v0.2H8.2v0.8c0,0.2,0.1,0.3,0.2,0.3c0.1,0,0.1,0,0.2,0l0,0.2c-0.1,0-0.1,0-0.2,0
		c-0.1,0-0.2,0-0.3-0.1C8,7.4,8,7.3,8,7.1V6.3H7.7V6.1H8V5.7L8.2,5.7z"/>
	<path class="st1" d="M8.9,6.5c0-0.2,0-0.3,0-0.4h0.2l0,0.2h0c0.1-0.1,0.2-0.3,0.5-0.3c0.2,0,0.3,0.1,0.4,0.3h0
		c0-0.1,0.1-0.1,0.2-0.2c0.1-0.1,0.2-0.1,0.3-0.1c0.2,0,0.5,0.1,0.5,0.6v0.9h-0.3V6.7c0-0.3-0.1-0.4-0.3-0.4c-0.2,0-0.3,0.1-0.3,0.2
		c0,0,0,0.1,0,0.1v0.9H9.8V6.7c0-0.2-0.1-0.4-0.3-0.4c-0.2,0-0.3,0.1-0.3,0.3c0,0,0,0.1,0,0.1v0.9H8.9V6.5z"/>
	<path class="st1" d="M11.6,6.9c0,0.4,0.2,0.5,0.5,0.5c0.2,0,0.3,0,0.4-0.1l0,0.2c-0.1,0-0.3,0.1-0.5,0.1c-0.4,0-0.7-0.3-0.7-0.7
		c0-0.4,0.3-0.8,0.7-0.8c0.5,0,0.6,0.4,0.6,0.7c0,0.1,0,0.1,0,0.1H11.6z M12.4,6.7c0-0.2-0.1-0.4-0.4-0.4c-0.3,0-0.4,0.2-0.4,0.4
		H12.4z"/>
	<path class="st1" d="M13,6.5c0-0.2,0-0.3,0-0.5h0.2l0,0.3h0c0.1-0.2,0.2-0.3,0.4-0.3c0,0,0.1,0,0.1,0v0.2c0,0-0.1,0-0.1,0
		c-0.2,0-0.3,0.1-0.4,0.3c0,0,0,0.1,0,0.1v0.8H13V6.5z"/>
</g>
</svg>
