<?xml version="1.0" encoding="utf-8"?>
<!-- Generator: Adobe Illustrator 23.0.3, SVG Export Plug-In . SVG Version: 6.00 Build 0)  -->
<svg version="1.1" id="Layer_1" xmlns="http://www.w3.org/2000/svg" xmlns:xlink="http://www.w3.org/1999/xlink" x="0px" y="0px"
	 viewBox="0 0 86.8 81.7" style="enable-background:new 0 0 86.8 81.7;" xml:space="preserve">
<style type="text/css">
	.st0{fill:#4667AE;}
	.st1{fill:none;stroke:#4667AE;stroke-width:6;stroke-miterlimit:10;}
</style>
<path class="st0" d="M27.7,49.7l5-0.5c0.3,2.7,0.9,4.8,1.8,6.3c0.9,1.5,2.3,2.7,4,3.6s3.7,1.4,5.9,1.4c3.2,0,5.6-0.7,7.3-2.3
	s2.6-3.5,2.6-6c0-1.5-0.3-2.7-0.9-3.7c-0.6-1.1-1.5-1.9-2.8-2.6c-1.3-0.7-4-1.6-8.3-2.9c-3.7-1.1-6.4-2.3-8.1-3.4
	c-1.6-1.1-2.8-2.5-3.7-4.3c-0.9-1.7-1.4-3.7-1.4-5.9c0-3.9,1.3-7.2,3.8-9.7c2.5-2.5,6-3.7,10.2-3.7c3,0,5.5,0.5,7.8,1.7
	c2.3,1.2,4,2.8,5.2,5.1c1.3,2.2,1.9,4.8,2,7.7L53.2,31c-0.3-3.2-1.2-5.5-2.8-7.1s-3.9-2.3-6.9-2.3c-3,0-5.3,0.6-6.8,2
	c-1.5,1.4-2.4,3.1-2.4,5.2c0,2,0.5,3.5,1.7,4.6c1.2,1.1,3.7,2.2,7.8,3.3c3.9,1.1,6.7,2,8.3,2.8c2.4,1.3,4.3,2.9,5.5,4.9
	c1.3,2,1.9,4.4,1.9,7.3c0,2.8-0.6,5.4-2,7.6c-1.3,2.3-3.1,4-5.4,5.3c-2.3,1.2-5,1.8-8.2,1.8c-4.9,0-8.9-1.5-11.8-4.4
	C29.3,58.9,27.8,54.8,27.7,49.7z"/>
<line class="st1" x1="43.3" y1="16.4" x2="43.3" y2="10.8"/>
<line class="st1" x1="43.6" y1="71" x2="43.6" y2="65.3"/>
</svg>
