<?xml version="1.0" encoding="utf-8"?>
<!-- Generator: Adobe Illustrator 23.0.3, SVG Export Plug-In . SVG Version: 6.00 Build 0)  -->
<svg version="1.1" id="Layer_1" xmlns="http://www.w3.org/2000/svg" xmlns:xlink="http://www.w3.org/1999/xlink" x="0px" y="0px"
	 viewBox="0 0 86.8 81.7" style="enable-background:new 0 0 86.8 81.7;" xml:space="preserve">
<style type="text/css">
	.st0{fill:#FFFFFF;stroke:#000000;stroke-miterlimit:10;}
	.st1{fill:#FFFFFF;stroke:#000000;stroke-width:0.5;stroke-miterlimit:10;}
	.st2{stroke:#000000;stroke-width:0.5;stroke-miterlimit:10;}
</style>
<path class="st0" d="M6.2,81.7V6.8C6.2,4.7,7.9,3,10,3l70.6,0c2.1,0,3.8,1.7,3.8,3.8l0,74.9"/>
<path class="st1" d="M79.3,16.6H12.1c-1.3,0-2.3-1-2.3-2.3V9.4c0-1.3,1-2.3,2.3-2.3h67.2c1.3,0,2.3,1,2.3,2.3v4.9
	C81.6,15.6,80.6,16.6,79.3,16.6z"/>
<circle class="st2" cx="32.1" cy="11.9" r="2.9"/>
<circle class="st2" cx="45.5" cy="11.9" r="1.9"/>
<circle class="st2" cx="56.6" cy="11.9" r="1.9"/>
</svg>
