<?xml version="1.0" encoding="utf-8"?>
<!-- Generator: Adobe Illustrator 23.0.3, SVG Export Plug-In . SVG Version: 6.00 Build 0)  -->
<svg version="1.1" id="Layer_1" xmlns="http://www.w3.org/2000/svg" xmlns:xlink="http://www.w3.org/1999/xlink" x="0px" y="0px"
	 viewBox="0 0 86.8 81.7" style="enable-background:new 0 0 86.8 81.7;" xml:space="preserve">
<style type="text/css">
	.st0{enable-background:new    ;}
	.st1{clip-path:url(#SVGID_2_);enable-background:new    ;}
	.st2{fill:#858585;}
	.st3{fill:#8A8A8A;}
	.st4{fill:#8F8F8F;}
	.st5{fill:#949494;}
	.st6{fill:#999999;}
	.st7{fill:#9E9E9E;}
	.st8{fill:#A3A3A3;}
	.st9{fill:#A8A8A8;}
	.st10{fill:#ADADAD;}
	.st11{fill:#B3B3B3;}
	.st12{fill:#B8B8B8;}
	.st13{fill:#BDBDBD;}
	.st14{fill:#C2C2C2;}
	.st15{fill:#C7C7C7;}
	.st16{fill:#CCCCCC;}
	.st17{fill:#D1D1D1;}
	.st18{fill:#D6D6D6;}
	.st19{fill:#DBDBDB;}
	.st20{fill:#E0E0E0;}
	.st21{fill:#E6E6E6;}
	.st22{fill:#EBEBEB;}
	.st23{fill:#F0F0F0;}
	.st24{fill:#F5F5F5;}
	.st25{fill:#FBFBFB;}
	.st26{clip-path:url(#SVGID_4_);enable-background:new    ;}
	.st27{clip-path:url(#SVGID_6_);enable-background:new    ;}
	.st28{clip-path:url(#SVGID_8_);enable-background:new    ;}
	.st29{fill:#FFFFFF;}
</style>
<g>
	<g>
		<g class="st0">
			<g>
				<polygon points="83,64.1 83,67.9 82.8,4 82.8,0.2 				"/>
			</g>
			<g class="st0">
				<g>
					<defs>
						<path id="SVGID_1_" d="M83,64.1v3.8c0,0.2,0,0.4-0.1,0.6c0,0.2-0.1,0.4-0.2,0.6s-0.2,0.4-0.3,0.5c-0.1,0.2-0.3,0.3-0.5,0.5
							c-0.2,0.1-0.3,0.3-0.5,0.4s-0.4,0.2-0.5,0.3c-0.2,0.1-0.4,0.1-0.6,0.2s-0.4,0-0.6,0v-3.8c0.2,0,0.4,0,0.6-0.1s0.4-0.1,0.6-0.2
							s0.4-0.2,0.5-0.3s0.3-0.2,0.5-0.4c0.2-0.1,0.3-0.3,0.5-0.5c0.1-0.2,0.2-0.4,0.3-0.5c0.1-0.2,0.2-0.4,0.2-0.6
							C83,64.5,83,64.3,83,64.1z"/>
					</defs>
					<clipPath id="SVGID_2_">
						<use xlink:href="#SVGID_1_"  style="overflow:visible;"/>
					</clipPath>
					<g class="st1">
						<path class="st2" d="M83,64.1v3.8c0,0.2,0,0.4,0,0.5c0,0.2-0.1,0.3-0.1,0.5c-0.1,0.2-0.1,0.3-0.2,0.5s-0.2,0.3-0.3,0.4V66
							c0.1-0.1,0.2-0.3,0.3-0.4c0.1-0.2,0.2-0.3,0.2-0.5c0.1-0.2,0.1-0.3,0.1-0.5C83,64.5,83,64.3,83,64.1"/>
						<path class="st3" d="M82.2,66.1v3.8c0,0,0,0.1-0.1,0.1c0,0,0,0-0.1,0.1s-0.1,0-0.1,0.1c0,0-0.1,0-0.1,0.1l0,0l0,0l0,0l0,0
							v-3.8l0,0l0,0l0,0l0,0c0,0,0.1,0,0.1-0.1c0,0,0.1,0,0.1-0.1C82.1,66.2,82.1,66.2,82.2,66.1L82.2,66.1"/>
						<path class="st4" d="M81.8,66.4v3.8c0,0,0,0-0.1,0.1s0,0-0.1,0.1c0,0,0,0-0.1,0.1h-0.1v-3.8h0.1c0,0,0,0,0.1-0.1
							C81.7,66.5,81.7,66.5,81.8,66.4C81.7,66.5,81.8,66.5,81.8,66.4"/>
						<path class="st5" d="M81.5,66.6v3.8c0,0,0,0-0.1,0s0,0-0.1,0c0,0,0,0-0.1,0s0,0-0.1,0v-3.8c0,0,0,0,0.1,0c0,0,0,0,0.1,0
							C81.4,66.7,81.4,66.7,81.5,66.6C81.5,66.7,81.5,66.7,81.5,66.6"/>
						<path class="st6" d="M81.3,66.8v3.8l0,0l0,0l0,0l0,0V66.8L81.3,66.8C81.3,66.8,81.2,66.8,81.3,66.8
							C81.2,66.8,81.2,66.8,81.3,66.8C81.2,66.8,81.3,66.8,81.3,66.8"/>
						<path class="st7" d="M81.1,66.9v3.8l0,0l0,0l0,0l0,0V66.9L81.1,66.9C81,66.9,81,66.9,81.1,66.9C81,66.9,81,66.9,81.1,66.9
							L81.1,66.9"/>
						<path class="st8" d="M80.9,66.9v3.8l0,0l0,0l0,0l0,0V66.9C80.8,67,80.8,67,80.9,66.9C80.9,67,80.9,67,80.9,66.9
							C80.9,67,80.9,67,80.9,66.9L80.9,66.9"/>
						<path class="st9" d="M80.8,67v3.8l0,0l0,0l0,0l0,0V67C80.7,67,80.7,67,80.8,67C80.7,67,80.8,67,80.8,67L80.8,67L80.8,67"/>
						<path class="st10" d="M80.7,67v3.8l0,0l0,0l0,0l0,0V67C80.6,67.1,80.6,67,80.7,67C80.6,67,80.6,67,80.7,67L80.7,67L80.7,67"/>
						<path class="st11" d="M80.6,67.1v3.8l0,0l0,0l0,0l0,0V67.1C80.5,67.1,80.5,67.1,80.6,67.1C80.5,67.1,80.6,67.1,80.6,67.1
							L80.6,67.1L80.6,67.1"/>
						<path class="st12" d="M80.5,67.1v3.8l0,0l0,0l0,0l0,0V67.1C80.4,67.1,80.5,67.1,80.5,67.1L80.5,67.1L80.5,67.1L80.5,67.1"/>
						<path class="st13" d="M80.4,67.1v3.8l0,0l0,0l0,0l0,0V67.1L80.4,67.1L80.4,67.1L80.4,67.1L80.4,67.1"/>
						<path class="st14" d="M80.4,67.1v3.8l0,0l0,0l0,0l0,0V67.1C80.3,67.1,80.3,67.1,80.4,67.1C80.3,67.1,80.3,67.1,80.4,67.1
							C80.3,67.1,80.3,67.1,80.4,67.1L80.4,67.1"/>
						<path class="st15" d="M80.3,67.1v3.8l0,0l0,0l0,0l0,0V67.1C80.2,67.1,80.2,67.1,80.3,67.1C80.2,67.1,80.3,67.1,80.3,67.1
							L80.3,67.1L80.3,67.1"/>
						<path class="st16" d="M80.2,67.1v3.8l0,0l0,0l0,0l0,0V67.1C80.2,67.2,80.2,67.2,80.2,67.1C80.2,67.2,80.2,67.2,80.2,67.1
							L80.2,67.1L80.2,67.1"/>
						<path class="st17" d="M80.2,67.2V71l0,0l0,0l0,0l0,0V67.2C80.1,67.2,80.1,67.2,80.2,67.2C80.1,67.2,80.1,67.2,80.2,67.2
							C80.1,67.2,80.1,67.2,80.2,67.2L80.2,67.2"/>
						<path class="st18" d="M80.1,67.2V71l0,0l0,0l0,0l0,0V67.2C80,67.2,80.1,67.2,80.1,67.2L80.1,67.2L80.1,67.2L80.1,67.2"/>
						<path class="st19" d="M80,67.2V71l0,0l0,0l0,0l0,0V67.2L80,67.2L80,67.2L80,67.2L80,67.2"/>
						<path class="st20" d="M80,67.2V71l0,0l0,0l0,0l0,0V67.2C79.9,67.2,79.9,67.2,80,67.2L80,67.2L80,67.2L80,67.2"/>
						<path class="st21" d="M79.9,67.2V71l0,0l0,0l0,0l0,0V67.2L79.9,67.2L79.9,67.2L79.9,67.2L79.9,67.2"/>
						<path class="st22" d="M79.9,67.2V71l0,0l0,0l0,0l0,0V67.2C79.8,67.2,79.8,67.2,79.9,67.2L79.9,67.2L79.9,67.2L79.9,67.2"/>
						<path class="st23" d="M79.8,67.2V71l0,0l0,0l0,0l0,0V67.2L79.8,67.2L79.8,67.2L79.8,67.2L79.8,67.2"/>
						<path class="st24" d="M79.8,67.2V71l0,0l0,0l0,0l0,0V67.2C79.7,67.2,79.7,67.2,79.8,67.2C79.7,67.2,79.7,67.2,79.8,67.2
							C79.7,67.2,79.7,67.2,79.8,67.2L79.8,67.2"/>
					</g>
				</g>
			</g>
			<g>
				<rect x="9" y="67.2" class="st25" width="70.7" height="3.8"/>
			</g>
			<g class="st0">
				<g>
					<defs>
						<path id="SVGID_3_" d="M9,67.2V71c-0.2,0-0.4,0-0.6-0.1s-0.4,0-0.6-0.1s-0.4-0.2-0.5-0.3c-0.2-0.1-0.3-0.2-0.5-0.4
							c-0.2-0.1-0.3-0.3-0.5-0.5c-0.1-0.2-0.2-0.4-0.3-0.5c-0.1-0.2-0.2-0.4-0.2-0.6s-0.1-0.4-0.1-0.6v-3.8c0,0.2,0,0.4,0.1,0.6
							c0,0.2,0.1,0.4,0.2,0.6s0.2,0.4,0.3,0.5c0.1,0.2,0.3,0.3,0.5,0.5c0.2,0.1,0.3,0.3,0.5,0.4s0.4,0.2,0.5,0.3
							c0.2,0,0.4,0.1,0.6,0.1C8.6,67.2,8.8,67.2,9,67.2z"/>
					</defs>
					<clipPath id="SVGID_4_">
						<use xlink:href="#SVGID_3_"  style="overflow:visible;"/>
					</clipPath>
					<g class="st26">
						<path class="st24" d="M9,67.2V71l0,0l0,0l0,0l0,0V67.2C8.9,67.2,8.9,67.2,9,67.2C8.9,67.2,8.9,67.2,9,67.2
							C8.9,67.2,9,67.2,9,67.2L9,67.2"/>
						<path class="st23" d="M8.9,67.2V71l0,0l0,0l0,0l0,0V67.2C8.8,67.2,8.8,67.2,8.9,67.2C8.8,67.2,8.8,67.2,8.9,67.2L8.9,67.2
							L8.9,67.2"/>
						<path class="st22" d="M8.8,67.2V71l0,0l0,0l0,0l0,0V67.2L8.8,67.2L8.8,67.2L8.8,67.2L8.8,67.2"/>
						<path class="st21" d="M8.8,67.2V71l0,0l0,0l0,0l0,0V67.2C8.7,67.2,8.7,67.2,8.8,67.2C8.7,67.2,8.7,67.2,8.8,67.2
							C8.7,67.2,8.7,67.2,8.8,67.2C8.7,67.2,8.8,67.2,8.8,67.2"/>
						<path class="st20" d="M8.7,67.2V71l0,0l0,0l0,0l0,0V67.2C8.6,67.2,8.7,67.2,8.7,67.2L8.7,67.2L8.7,67.2L8.7,67.2"/>
						<path class="st19" d="M8.6,67.2V71l0,0l0,0l0,0l0,0V67.2L8.6,67.2L8.6,67.2L8.6,67.2L8.6,67.2"/>
						<path class="st18" d="M8.6,67.2V71l0,0l0,0l0,0l0,0V67.2C8.5,67.2,8.5,67.2,8.6,67.2C8.5,67.2,8.5,67.2,8.6,67.2L8.6,67.2
							L8.6,67.2"/>
						<path class="st17" d="M8.5,67.2V71l0,0l0,0l0,0l0,0V67.2C8.5,67.1,8.5,67.1,8.5,67.2C8.5,67.1,8.5,67.2,8.5,67.2L8.5,67.2
							L8.5,67.2"/>
						<path class="st16" d="M8.4,67.1v3.8l0,0l0,0l0,0l0,0V67.1L8.4,67.1L8.4,67.1L8.4,67.1L8.4,67.1"/>
						<path class="st15" d="M8.4,67.1v3.8l0,0l0,0l0,0l0,0V67.1C8.3,67.1,8.3,67.1,8.4,67.1C8.3,67.1,8.3,67.1,8.4,67.1
							C8.3,67.1,8.3,67.1,8.4,67.1L8.4,67.1"/>
						<path class="st14" d="M8.3,67.1v3.8l0,0l0,0l0,0l0,0V67.1C8.2,67.1,8.2,67.1,8.3,67.1C8.2,67.1,8.3,67.1,8.3,67.1L8.3,67.1
							L8.3,67.1"/>
						<path class="st13" d="M8.2,67.1v3.8l0,0l0,0l0,0l0,0V67.1C8.1,67.1,8.1,67.1,8.2,67.1L8.2,67.1L8.2,67.1L8.2,67.1"/>
						<path class="st12" d="M8.1,67.1v3.8l0,0l0,0l0,0l0,0V67.1C8.1,67,8.1,67,8.1,67.1L8.1,67.1L8.1,67.1L8.1,67.1"/>
						<path class="st11" d="M8,67v3.8l0,0l0,0l0,0l0,0V67L8,67L8,67L8,67L8,67"/>
						<path class="st10" d="M7.9,67v3.8l0,0l0,0l0,0l0,0V67C7.8,67,7.8,67,7.9,67L7.9,67L7.9,67L7.9,67"/>
						<path class="st9" d="M7.8,67v3.8l0,0l0,0l0,0l0,0V67C7.7,66.9,7.7,66.9,7.8,67C7.7,66.9,7.8,66.9,7.8,67
							C7.8,66.9,7.8,67,7.8,67L7.8,67"/>
						<path class="st8" d="M7.7,66.9v3.8l0,0l0,0l0,0l0,0V66.9L7.7,66.9C7.6,66.9,7.6,66.9,7.7,66.9C7.6,66.9,7.7,66.9,7.7,66.9
							L7.7,66.9"/>
						<path class="st7" d="M7.6,66.8v3.8l0,0l0,0l0,0l0,0V66.8L7.6,66.8C7.4,66.8,7.4,66.8,7.6,66.8C7.5,66.8,7.5,66.8,7.6,66.8
							C7.5,66.8,7.5,66.8,7.6,66.8"/>
						<path class="st6" d="M7.4,66.8v3.8c0,0,0,0-0.1,0c0,0,0,0-0.1,0c0,0,0,0-0.1,0c0,0,0,0-0.1,0v-3.8c0,0,0,0,0.1,0
							c0,0,0,0,0.1,0C7.3,66.7,7.3,66.7,7.4,66.8C7.3,66.7,7.4,66.7,7.4,66.8"/>
						<path class="st5" d="M7.2,66.6v3.8c0,0,0,0-0.1,0s0,0-0.1,0c0,0,0,0-0.1,0c0,0,0,0-0.1,0v-3.8c0,0,0,0,0.1,0s0,0,0.1,0
							S7.1,66.6,7.2,66.6C7.1,66.6,7.1,66.6,7.2,66.6"/>
						<path class="st4" d="M6.9,66.4v3.8l0,0l0,0l0,0l0,0c0,0,0,0-0.1,0c0,0,0,0-0.1,0c0,0,0,0-0.1,0s0,0-0.1,0v-3.8c0,0,0,0,0.1,0
							c0,0,0,0,0.1,0C6.7,66.4,6.7,66.4,6.9,66.4C6.8,66.4,6.8,66.4,6.9,66.4C6.8,66.4,6.8,66.4,6.9,66.4
							C6.8,66.4,6.8,66.4,6.9,66.4L6.9,66.4L6.9,66.4"/>
						<path class="st3" d="M6.6,66.2V70l-0.1-0.1l-0.1-0.1l-0.1-0.1l-0.1-0.1v-3.8l0.1,0.1L6.4,66L6.6,66.2
							C6.5,66.1,6.5,66.1,6.6,66.2"/>
						<path class="st2" d="M6.2,65.6v3.8c-0.1,0-0.2-0.2-0.2-0.3c-0.1-0.1-0.1-0.2-0.1-0.4c0-0.1-0.1-0.3-0.1-0.4s0-0.3,0-0.4v-3.8
							c0,0.1,0,0.3,0,0.4s0,0.3,0.1,0.4C5.9,65,6,65.2,6,65.3C6,65.4,6.1,65.5,6.2,65.6"/>
					</g>
				</g>
			</g>
			<g>
				<path class="st25" d="M82.8,0.2L83,64.1c0,0.2,0,0.4-0.1,0.6c0,0.2-0.1,0.4-0.2,0.6s-0.2,0.4-0.3,0.5c-0.1,0.2-0.3,0.3-0.5,0.5
					c-0.2,0.1-0.3,0.3-0.5,0.4S81,66.9,80.9,67s-0.4,0.1-0.6,0.2s-0.4,0.1-0.6,0.1L9,67.2c-0.2,0-0.4,0-0.6-0.1
					C8.2,67.1,8,67,7.8,67c-0.2-0.1-0.4-0.2-0.5-0.3c-0.2-0.1-0.3-0.2-0.5-0.4c-0.2-0.1-0.3-0.3-0.5-0.5c-0.1-0.2-0.2-0.4-0.3-0.5
					c-0.1-0.2-0.2-0.4-0.2-0.6s-0.1-0.4-0.1-0.6V0.2L82.8,0.2z"/>
			</g>
			<g class="st0">
				<g>
					<defs>
						<path id="SVGID_5_" d="M84,64.1v3.8c0,0.2,0,0.4-0.1,0.6c0,0.2-0.1,0.4-0.2,0.6s-0.2,0.4-0.4,0.6c-0.1,0.2-0.3,0.3-0.5,0.5
							s-0.4,0.3-0.7,0.5C82,70.9,81.7,71,81.5,71c-0.3,0.1-0.5,0.2-0.8,0.2s-0.6,0.1-0.9,0.1v-3.8c0.3,0,0.6,0,0.9-0.1
							c0.3,0,0.6-0.1,0.8-0.2c0.3-0.1,0.5-0.2,0.8-0.3c0.2-0.1,0.5-0.3,0.7-0.5s0.3-0.3,0.5-0.5c0.1-0.2,0.3-0.4,0.4-0.6
							s0.2-0.4,0.2-0.6C84,64.5,84,64.3,84,64.1z"/>
					</defs>
					<clipPath id="SVGID_6_">
						<use xlink:href="#SVGID_5_"  style="overflow:visible;"/>
					</clipPath>
					<g class="st27">
						<path d="M84,64.1v3.8c0,0.2,0,0.4-0.1,0.6s-0.1,0.4-0.2,0.5s-0.2,0.3-0.3,0.5c-0.1,0.2-0.2,0.3-0.4,0.5v-3.8
							c0.1-0.1,0.3-0.3,0.4-0.5s0.2-0.3,0.3-0.5c0.1-0.2,0.1-0.3,0.2-0.5S84,64.3,84,64.1"/>
						<path d="M83.2,66.1v3.8c0,0,0,0.1-0.1,0.1c0,0,0,0.1-0.1,0.1c0,0-0.1,0-0.1,0.1c0,0-0.1,0-0.1,0.1l0,0l0,0l0,0l0,0v-3.8l0,0
							l0,0l0,0l0,0c0,0,0.1,0,0.1-0.1c0,0,0.1,0,0.1-0.1C83,66.3,83.1,66.2,83.2,66.1C83.1,66.2,83.1,66.2,83.2,66.1"/>
						<path d="M82.7,66.5v3.8c0,0-0.1,0-0.1,0.1s-0.1,0-0.1,0.1c0,0-0.1,0-0.1,0.1c0,0-0.1,0-0.1,0.1v-3.8c0,0,0.1,0,0.1-0.1
							c0,0,0.1,0,0.1-0.1S82.6,66.6,82.7,66.5C82.7,66.6,82.7,66.6,82.7,66.5"/>
						<path d="M82.4,66.8v3.8c0,0,0,0-0.1,0c0,0,0,0-0.1,0c0,0,0,0-0.1,0c0,0,0,0-0.1,0v-3.8c0,0,0,0,0.1,0s0,0,0.1,0
							S82.3,66.8,82.4,66.8L82.4,66.8"/>
						<path d="M82.2,66.9v3.8c0,0,0,0-0.1,0c0,0,0,0-0.1,0c0,0,0,0-0.1,0c0,0,0,0-0.1,0v-3.8c0,0,0,0,0.1,0s0,0,0.1,0
							C82.1,67,82.1,67,82.2,66.9C82.1,66.9,82.1,66.9,82.2,66.9"/>
						<path d="M81.9,67v3.8l0,0l0,0l0,0l0,0V67L81.9,67C81.8,67.1,81.8,67.1,81.9,67C81.9,67.1,81.9,67.1,81.9,67L81.9,67"/>
						<path d="M81.8,67.1v3.8l0,0l0,0l0,0l0,0V67.1L81.8,67.1C81.7,67.1,81.7,67.1,81.8,67.1C81.7,67.1,81.7,67.1,81.8,67.1
							C81.7,67.1,81.8,67.1,81.8,67.1"/>
						<path d="M81.6,67.2V71l0,0l0,0l0,0l0,0V67.2L81.6,67.2C81.5,67.2,81.5,67.2,81.6,67.2C81.5,67.2,81.6,67.2,81.6,67.2
							L81.6,67.2"/>
						<path d="M81.5,67.2V71l0,0l0,0l0,0l0,0V67.2C81.3,67.3,81.4,67.3,81.5,67.2C81.4,67.2,81.4,67.2,81.5,67.2
							C81.4,67.2,81.4,67.2,81.5,67.2C81.4,67.2,81.5,67.2,81.5,67.2"/>
						<path d="M81.3,67.3v3.8l0,0l0,0l0,0l0,0V67.3C81.2,67.3,81.2,67.3,81.3,67.3L81.3,67.3L81.3,67.3L81.3,67.3"/>
						<path d="M81.2,67.3v3.8l0,0l0,0l0,0l0,0V67.3C81.1,67.3,81.1,67.3,81.2,67.3C81.1,67.3,81.1,67.3,81.2,67.3L81.2,67.3
							L81.2,67.3"/>
						<path d="M81.1,67.3v3.8l0,0l0,0l0,0l0,0V67.3C81,67.3,81,67.3,81.1,67.3C81,67.3,81,67.3,81.1,67.3
							C81,67.3,81.1,67.3,81.1,67.3L81.1,67.3"/>
						<path d="M81,67.4v3.8l0,0l0,0l0,0l0,0V67.4C80.9,67.4,80.9,67.4,81,67.4C80.9,67.4,80.9,67.4,81,67.4
							C80.9,67.4,80.9,67.4,81,67.4L81,67.4"/>
						<path d="M80.9,67.4v3.8l0,0l0,0l0,0l0,0V67.4C80.8,67.4,80.8,67.4,80.9,67.4C80.8,67.4,80.8,67.4,80.9,67.4
							C80.8,67.4,80.8,67.4,80.9,67.4C80.8,67.4,80.9,67.4,80.9,67.4"/>
						<path d="M80.8,67.4v3.8l0,0l0,0l0,0l0,0V67.4C80.6,67.4,80.7,67.4,80.8,67.4C80.7,67.4,80.7,67.4,80.8,67.4
							C80.7,67.4,80.7,67.4,80.8,67.4C80.7,67.4,80.7,67.4,80.8,67.4"/>
						<path d="M80.6,67.4v3.8l0,0l0,0l0,0l0,0V67.4C80.5,67.4,80.5,67.4,80.6,67.4L80.6,67.4L80.6,67.4L80.6,67.4"/>
						<path d="M80.5,67.4v3.8l0,0l0,0l0,0l0,0V67.4C80.4,67.4,80.4,67.4,80.5,67.4L80.5,67.4L80.5,67.4L80.5,67.4"/>
						<path d="M80.4,67.4v3.8l0,0l0,0l0,0l0,0V67.4C80.3,67.5,80.3,67.5,80.4,67.4C80.4,67.5,80.4,67.5,80.4,67.4L80.4,67.4
							L80.4,67.4"/>
						<path d="M80.3,67.5v3.8l0,0l0,0l0,0l0,0V67.5C80.2,67.5,80.2,67.5,80.3,67.5C80.2,67.5,80.3,67.5,80.3,67.5L80.3,67.5
							L80.3,67.5"/>
						<path d="M80.2,67.5v3.8l0,0l0,0l0,0l0,0V67.5C80.1,67.5,80.1,67.5,80.2,67.5C80.1,67.5,80.2,67.5,80.2,67.5L80.2,67.5
							L80.2,67.5"/>
						<path d="M80.1,67.5v3.8l0,0l0,0l0,0l0,0V67.5C80,67.5,80,67.5,80.1,67.5C80,67.5,80,67.5,80.1,67.5L80.1,67.5L80.1,67.5"/>
						<path d="M80,67.5v3.8l0,0l0,0l0,0l0,0V67.5L80,67.5C79.9,67.5,79.9,67.5,80,67.5C79.9,67.5,79.9,67.5,80,67.5L80,67.5"/>
						<path d="M79.8,67.5v3.8l0,0l0,0l0,0l0,0V67.5L79.8,67.5L79.8,67.5L79.8,67.5L79.8,67.5"/>
					</g>
				</g>
			</g>
			<g class="st0">
				<g>
					<defs>
						<path id="SVGID_7_" d="M9,67.5v3.8c-0.3,0-0.6,0-0.9-0.1c-0.3,0-0.6-0.1-0.8-0.2c-0.3,0-0.6-0.1-0.8-0.3
							c-0.2-0.1-0.5-0.3-0.7-0.5s-0.3-0.3-0.5-0.5c-0.1-0.2-0.3-0.4-0.4-0.6s-0.2-0.4-0.2-0.6s-0.1-0.4-0.1-0.6v-3.8
							c0,0.2,0,0.4,0.1,0.6c0,0.2,0.1,0.4,0.2,0.6s0.2,0.4,0.4,0.6c0.1,0.2,0.3,0.3,0.5,0.5s0.4,0.3,0.7,0.5C6.7,67,7,67.1,7.2,67.2
							c0.3,0.1,0.5,0.2,0.8,0.2C8.4,67.5,8.7,67.5,9,67.5z"/>
					</defs>
					<clipPath id="SVGID_8_">
						<use xlink:href="#SVGID_7_"  style="overflow:visible;"/>
					</clipPath>
					<g class="st28">
						<path d="M9,67.5v3.8c0,0,0,0-0.1,0c0,0,0,0-0.1,0c0,0,0,0-0.1,0c0,0,0,0-0.1,0v-3.8c0,0,0,0,0.1,0c0,0,0,0,0.1,0
							S8.9,67.5,9,67.5C8.9,67.5,9,67.5,9,67.5"/>
						<path d="M8.7,67.5v3.8l0,0l0,0l0,0l0,0V67.5L8.7,67.5C8.6,67.5,8.7,67.5,8.7,67.5L8.7,67.5L8.7,67.5"/>
						<path d="M8.6,67.5v3.8l0,0l0,0l0,0l0,0V67.5C8.5,67.5,8.5,67.5,8.6,67.5C8.5,67.5,8.5,67.5,8.6,67.5
							C8.5,67.5,8.6,67.5,8.6,67.5L8.6,67.5"/>
						<path d="M8.5,67.5v3.8l0,0l0,0l0,0l0,0V67.5C8.4,67.5,8.4,67.5,8.5,67.5C8.4,67.5,8.4,67.5,8.5,67.5
							C8.4,67.5,8.4,67.5,8.5,67.5L8.5,67.5"/>
						<path d="M8.4,67.5v3.8l0,0l0,0l0,0l0,0V67.5C8.3,67.4,8.3,67.4,8.4,67.5C8.3,67.5,8.3,67.5,8.4,67.5
							C8.3,67.5,8.3,67.5,8.4,67.5L8.4,67.5"/>
						<path d="M8.3,67.4v3.8l0,0l0,0l0,0l0,0V67.4C8.2,67.4,8.2,67.4,8.3,67.4C8.2,67.4,8.2,67.4,8.3,67.4
							C8.2,67.4,8.2,67.4,8.3,67.4C8.2,67.4,8.2,67.4,8.3,67.4"/>
						<path d="M8.1,67.4v3.8l0,0l0,0l0,0l0,0V67.4C8,67.4,8,67.4,8.1,67.4L8.1,67.4L8.1,67.4L8.1,67.4"/>
						<path d="M8,67.4v3.8l0,0l0,0l0,0l0,0V67.4C7.9,67.4,7.9,67.4,8,67.4C7.9,67.4,8,67.4,8,67.4L8,67.4L8,67.4"/>
						<path d="M7.9,67.4v3.8l0,0l0,0l0,0l0,0V67.4C7.8,67.4,7.8,67.4,7.9,67.4C7.8,67.4,7.8,67.4,7.9,67.4L7.9,67.4L7.9,67.4"/>
						<path d="M7.8,67.4v3.8l0,0l0,0l0,0l0,0V67.4C7.7,67.3,7.7,67.3,7.8,67.4C7.7,67.4,7.7,67.4,7.8,67.4
							C7.7,67.4,7.8,67.4,7.8,67.4L7.8,67.4"/>
						<path d="M7.7,67.3v3.8l0,0l0,0l0,0l0,0V67.3C7.6,67.3,7.6,67.3,7.7,67.3C7.6,67.3,7.6,67.3,7.7,67.3
							C7.6,67.3,7.6,67.3,7.7,67.3L7.7,67.3"/>
						<path d="M7.6,67.3v3.8l0,0l0,0l0,0l0,0V67.3C7.4,67.3,7.5,67.3,7.6,67.3C7.5,67.3,7.5,67.3,7.6,67.3
							C7.5,67.3,7.5,67.3,7.6,67.3C7.5,67.3,7.5,67.3,7.6,67.3"/>
						<path d="M7.4,67.3v3.8l0,0l0,0l0,0l0,0V67.3C7.3,67.2,7.3,67.3,7.4,67.3L7.4,67.3L7.4,67.3L7.4,67.3"/>
						<path d="M7.3,67.2V71l0,0l0,0l0,0l0,0V67.2L7.3,67.2C7.3,67.2,7.2,67.2,7.3,67.2L7.3,67.2L7.3,67.2"/>
						<path d="M7.2,67.2V71l0,0l0,0l0,0l0,0V67.2L7.2,67.2C7.1,67.2,7.1,67.2,7.2,67.2C7.1,67.2,7.1,67.2,7.2,67.2
							C7.1,67.2,7.2,67.2,7.2,67.2"/>
						<path d="M7,67.1V71l0,0l0,0l0,0l0,0V67.1L7,67.1C6.9,67.1,6.9,67.1,7,67.1L7,67.1L7,67.1"/>
						<path d="M6.9,67.1v3.8l0,0l0,0l0,0l0,0V67.1L6.9,67.1C6.9,67.1,6.8,67,6.9,67.1C6.8,67,6.8,67.1,6.9,67.1
							C6.8,67.1,6.9,67.1,6.9,67.1"/>
						<path d="M6.7,67v3.8c0,0,0,0-0.1,0l0,0l0,0l0,0L6.7,67L6.7,67C6.6,66.9,6.6,66.9,6.7,67C6.6,67,6.6,67,6.7,67L6.7,67"/>
						<path d="M6.5,66.9v3.8c0,0,0,0-0.1,0c0,0,0,0-0.1,0c0,0,0,0-0.1,0c0,0,0,0-0.1,0v-3.8c0,0,0,0,0.1,0c0,0,0,0,0.1,0
							C6.4,66.8,6.4,66.9,6.5,66.9L6.5,66.9"/>
						<path d="M6.3,66.8v3.8c0,0,0,0-0.1,0c0,0,0,0-0.1,0c0,0,0,0-0.1-0.1c0,0,0,0-0.1-0.1v-3.8c0,0,0,0,0.1,0.1c0,0,0,0,0.1,0.1
							C6.1,66.7,6.2,66.7,6.3,66.8C6.2,66.7,6.2,66.7,6.3,66.8"/>
						<path d="M6,66.6v3.8l0,0l0,0l0,0l0,0c0,0,0,0-0.1-0.1s0,0-0.1-0.1c0,0,0,0-0.1-0.1s0,0-0.1-0.1v-3.8c0,0,0,0,0.1,0.1
							s0,0,0.1,0.1S5.8,66.4,6,66.6C5.9,66.5,5.9,66.5,6,66.6L6,66.6C5.9,66.5,5.9,66.5,6,66.6C5.9,66.5,5.9,66.5,6,66.6
							C6,66.5,6,66.5,6,66.6"/>
						<path d="M5.6,66.2V70l-0.1-0.1l-0.1-0.1l-0.1-0.1l-0.1-0.1v-3.8l0.1,0.1L5.4,66L5.6,66.2C5.5,66.2,5.6,66.2,5.6,66.2"/>
						<path d="M5.2,65.7v3.8C5.1,69.4,5,69.3,5,69.2c-0.1-0.1-0.1-0.3-0.1-0.4s-0.1-0.3-0.1-0.4s0-0.3,0-0.4v-3.8c0,0.1,0,0.3,0,0.4
							s0.1,0.3,0.1,0.4S5,65.3,5,65.4C5,65.5,5.1,65.6,5.2,65.7"/>
					</g>
				</g>
			</g>
			<g>
				<path d="M83.8,0.2L84,64.1c0,0.2,0,0.4-0.1,0.6c0,0.2-0.1,0.4-0.2,0.6s-0.2,0.4-0.4,0.6c-0.1,0.2-0.3,0.3-0.5,0.5
					s-0.4,0.3-0.7,0.5c-0.2,0.1-0.5,0.2-0.8,0.3c-0.3,0.1-0.5,0.2-0.8,0.2s-0.6,0.1-0.9,0.1L9,67.5c-0.3,0-0.6,0-0.9-0.1
					c-0.3,0-0.6-0.1-0.8-0.2C7,67.1,6.7,67,6.5,66.9S6,66.6,5.8,66.4s-0.3-0.3-0.5-0.5c-0.1-0.2-0.3-0.4-0.4-0.6s-0.2-0.4-0.2-0.6
					s-0.1-0.4-0.1-0.6V0.2l1,63.9c0,0.2,0,0.4,0.1,0.6c0,0.2,0.1,0.4,0.2,0.6s0.2,0.4,0.3,0.5c0.1,0.2,0.3,0.3,0.5,0.5
					c0.2,0.1,0.3,0.3,0.5,0.4s0.4,0.2,0.5,0.3c0.3,0,0.5,0.1,0.7,0.1s0.4,0.1,0.6,0.1h70.7c0.2,0,0.4,0,0.6-0.1s0.4-0.1,0.6-0.2
					s0.4-0.2,0.5-0.3s0.3-0.2,0.5-0.4c0.2-0.1,0.3-0.3,0.5-0.5c0.1-0.2,0.2-0.4,0.3-0.5c0.1-0.2,0.2-0.4,0.2-0.6S83,64.2,83,64
					L82.8,0.2H83.8z"/>
			</g>
			<g>
				<rect x="9" y="67.5" width="70.7" height="3.8"/>
			</g>
		</g>
	</g>
</g>
<ellipse class="st29" cx="19.6" cy="69.4" rx="2.4" ry="1.9"/>
</svg>
