<?xml version="1.0" encoding="utf-8"?>
<!-- Generator: Adobe Illustrator 23.0.3, SVG Export Plug-In . SVG Version: 6.00 Build 0)  -->
<svg version="1.1" id="Capa_1" xmlns="http://www.w3.org/2000/svg" xmlns:xlink="http://www.w3.org/1999/xlink" x="0px" y="0px"
	 viewBox="0 0 14 14" style="enable-background:new 0 0 14 14;" xml:space="preserve">
<style type="text/css">
	.st0{fill:#005288;}
	.st1{fill:none;stroke:#005288;stroke-width:0.75;stroke-miterlimit:10;}
	.st2{fill:none;}
	.st3{enable-background:new    ;}
</style>
<g>
	<path class="st0" d="M1.2,7.5L0.4,6.7l4-3.7c0.3-0.3,0.7-0.4,1-0.4h8.1v1.2H5.4c-0.1,0-0.2,0-0.3,0.1L1.2,7.5z"/>
	<rect y="2.4" class="st0" width="1.2" height="7.4"/>
</g>
<path class="st0" d="M13.6,9.9h-8c-0.5,0-0.9-0.2-1.2-0.5l-2-2.1l0.8-0.8l2,2.1c0.1,0.1,0.3,0.2,0.4,0.2h8V9.9z"/>
<polyline class="st1" points="8.8,4.5 6.2,4.5 6.2,7.7 9,7.7 "/>
<line class="st1" x1="8.6" y1="6.1" x2="6.6" y2="6.1"/>
<polyline class="st1" points="10,8.2 10,4.5 10.2,4.5 12.9,7.8 13,7.8 13,4.1 "/>
<rect x="0.5" y="10.7" class="st2" width="15" height="2.4"/>
<g class="st3">
	<path class="st0" d="M0.3,11.8l0.2,0c0,0.1,0,0.1,0.1,0.2c0,0.1,0.1,0.1,0.1,0.1c0.1,0,0.1,0,0.2,0c0.1,0,0.1,0,0.2,0
		c0.1,0,0.1-0.1,0.1-0.1s0-0.1,0-0.1c0-0.1,0-0.1,0-0.1c0,0-0.1-0.1-0.1-0.1c0,0-0.1,0-0.2-0.1c-0.1,0-0.2-0.1-0.3-0.1
		c-0.1,0-0.1-0.1-0.1-0.2s0-0.1,0-0.2c0-0.1,0-0.2,0.1-0.2c0-0.1,0.1-0.1,0.2-0.2s0.2-0.1,0.3-0.1c0.1,0,0.2,0,0.3,0.1
		c0.1,0,0.1,0.1,0.2,0.2s0.1,0.2,0.1,0.3l-0.2,0c0-0.1,0-0.2-0.1-0.2c-0.1-0.1-0.1-0.1-0.2-0.1c-0.1,0-0.2,0-0.2,0.1
		c-0.1,0-0.1,0.1-0.1,0.2c0,0.1,0,0.1,0.1,0.1c0,0,0.1,0.1,0.3,0.1c0.1,0,0.3,0.1,0.3,0.1c0.1,0,0.1,0.1,0.2,0.2
		c0,0.1,0.1,0.1,0.1,0.2c0,0.1,0,0.2-0.1,0.2c0,0.1-0.1,0.1-0.2,0.2S1,12.4,0.9,12.4c-0.1,0-0.2,0-0.3-0.1s-0.2-0.1-0.2-0.2
		C0.3,12,0.3,11.9,0.3,11.8z"/>
	<path class="st0" d="M2,12.3v-1.5H1.5v-0.2h1.1v0.2H2.2v1.5H2z"/>
	<path class="st0" d="M2.7,11.5c0-0.3,0.1-0.5,0.2-0.6c0.1-0.2,0.3-0.2,0.5-0.2c0.1,0,0.2,0,0.3,0.1c0.1,0.1,0.2,0.2,0.2,0.3
		s0.1,0.3,0.1,0.4c0,0.2,0,0.3-0.1,0.4s-0.1,0.2-0.2,0.3c-0.1,0.1-0.2,0.1-0.3,0.1c-0.1,0-0.2,0-0.4-0.1c-0.1-0.1-0.2-0.2-0.2-0.3
		C2.8,11.8,2.7,11.7,2.7,11.5z M2.9,11.5c0,0.2,0,0.4,0.1,0.5c0.1,0.1,0.2,0.2,0.3,0.2c0.1,0,0.3-0.1,0.3-0.2s0.1-0.3,0.1-0.5
		c0-0.1,0-0.3-0.1-0.4c0-0.1-0.1-0.2-0.2-0.2c-0.1-0.1-0.2-0.1-0.2-0.1c-0.1,0-0.2,0.1-0.3,0.2S2.9,11.3,2.9,11.5z"/>
	<path class="st0" d="M4.3,12.3v-1.6h0.6c0.1,0,0.2,0,0.3,0c0.1,0,0.1,0.1,0.2,0.2s0.1,0.2,0.1,0.2c0,0.1,0,0.2-0.1,0.3
		S5.2,11.6,5,11.6c0,0,0.1,0.1,0.1,0.1c0.1,0.1,0.1,0.1,0.2,0.2l0.2,0.4H5.3L5.1,12C5.1,11.9,5,11.8,5,11.8c0-0.1-0.1-0.1-0.1-0.1
		s-0.1,0-0.1,0c0,0-0.1,0-0.1,0H4.5v0.7H4.3z M4.5,11.4h0.4c0.1,0,0.2,0,0.2,0c0,0,0.1-0.1,0.1-0.1c0,0,0-0.1,0-0.1
		c0-0.1,0-0.1-0.1-0.2c0,0-0.1-0.1-0.2-0.1H4.5V11.4z"/>
	<path class="st0" d="M5.7,12.3v-1.6h0.2v0.8l0.7-0.8h0.3l-0.6,0.7l0.6,1H6.6l-0.5-0.8l-0.2,0.3v0.6H5.7z"/>
	<path class="st0" d="M8.1,10.8l0.2-0.2l0.1,0.1l-0.2,0.2c0.1,0.1,0.1,0.2,0.1,0.3c0,0.1,0,0.2,0,0.3c0,0.2,0,0.3-0.1,0.5
		c-0.1,0.1-0.1,0.2-0.2,0.3s-0.2,0.1-0.3,0.1c-0.1,0-0.2,0-0.2,0c-0.1,0-0.1-0.1-0.2-0.1l-0.2,0.2L7,12.3l0.2-0.2
		C7.1,12,7,11.9,7,11.8c0-0.1,0-0.2,0-0.3c0-0.2,0-0.3,0.1-0.5s0.1-0.2,0.2-0.3s0.2-0.1,0.3-0.1c0.1,0,0.2,0,0.2,0
		C7.9,10.7,8,10.8,8.1,10.8z M8,11c-0.1-0.1-0.1-0.1-0.2-0.1c0,0-0.1,0-0.2,0c-0.1,0-0.3,0.1-0.3,0.2s-0.1,0.3-0.1,0.5
		c0,0.1,0,0.2,0,0.2c0,0,0,0.1,0.1,0.2L8,11z M8,11.1L7.3,12c0,0,0.1,0.1,0.1,0.1c0.1,0,0.1,0,0.2,0c0.1,0,0.3-0.1,0.3-0.2
		s0.1-0.3,0.1-0.5C8.1,11.4,8.1,11.2,8,11.1z"/>
	<path class="st0" d="M8.5,12.3v-1.6h0.2v0.8l0.7-0.8h0.3l-0.6,0.7l0.6,1H9.5L9,11.5l-0.2,0.3v0.6H8.5z"/>
	<path class="st0" d="M9.8,12.3v-1.6H10v0.8l0.7-0.8H11l-0.6,0.7l0.6,1h-0.2l-0.5-0.8L10,11.8v0.6H9.8z"/>
	<path class="st0" d="M11.2,12.3v-1.6h1v0.2h-0.8v0.5h0.8v0.2h-0.8v0.6h0.9v0.2H11.2z"/>
	<path class="st0" d="M12.4,12.3v-1.6h0.2l0.7,1.3v-1.3h0.2v1.6h-0.2L12.6,11v1.3H12.4z"/>
</g>
</svg>
