<?xml version="1.0" encoding="utf-8"?>
<!-- Generator: Adobe Illustrator 23.0.3, SVG Export Plug-In . SVG Version: 6.00 Build 0)  -->
<svg version="1.1" id="Layer_1" xmlns="http://www.w3.org/2000/svg" xmlns:xlink="http://www.w3.org/1999/xlink" x="0px" y="0px"
	 viewBox="0 0 86.8 81.7" style="enable-background:new 0 0 86.8 81.7;" xml:space="preserve">
<style type="text/css">
	.st0{fill:#FFFFFF;stroke:#000000;stroke-miterlimit:10;}
</style>
<path class="st0" d="M4,81.5L4.4,6.6c0-2.1,1.7-3.8,3.8-3.8l70.6,0.3c2.1,0,3.8,1.7,3.8,3.8l-0.3,74.9"/>
<path class="st0" d="M77,3.2h-9c-0.3,0-0.6-0.3-0.6-0.6V2c0-0.3,0.3-0.6,0.6-0.6h9c0.3,0,0.6,0.3,0.6,0.6v0.5
	C77.6,2.9,77.3,3.2,77,3.2z"/>
<path class="st0" d="M82.6,36.2v-7.5c0-0.2,0.3-0.4,0.6-0.4h0.5c0.3,0,0.6,0.2,0.6,0.4v3.8v3.8c0,0.2-0.3,0.4-0.6,0.4h-0.5
	C82.9,36.6,82.6,36.4,82.6,36.2z"/>
<path class="st0" d="M82.7,27v-7.5c0-0.2,0.3-0.4,0.6-0.4h0.5c0.3,0,0.6,0.2,0.6,0.4v3.8V27c0,0.2-0.3,0.4-0.6,0.4h-0.5
	C82.9,27.4,82.7,27.2,82.7,27z"/>
</svg>
