<?xml version="1.0" encoding="utf-8"?>
<!-- Generator: Adobe Illustrator 23.0.3, SVG Export Plug-In . SVG Version: 6.00 Build 0)  -->
<svg version="1.1" id="Layer_1" xmlns="http://www.w3.org/2000/svg" xmlns:xlink="http://www.w3.org/1999/xlink" x="0px" y="0px"
	 viewBox="0 0 555.9 362.4" style="enable-background:new 0 0 555.9 362.4;" xml:space="preserve">
<style type="text/css">
	.st0{fill:#4667AE;}
	.st1{fill:#FFFFFF;}
</style>
<g id="layer2">
	<path class="st0" d="M217.9,264.7c-14.1-3.5-22.5-12.5-26.6-28.6c-2-8-2-104,0-112c4.2-16.5,13.2-25.7,27.9-28.9
		c3.5-0.7,21.8-1.1,54.2-1.1h49v18.5v18.5h-28.2c-26.6,0-28.4,0.1-32.5,2.1c-3,1.5-5.2,3.5-7.1,6.7l-2.7,4.7v35.5v35.5l2.7,4.7
		c1.9,3.2,4.1,5.2,7.1,6.7c4.1,2,5.9,2.1,32.5,2.1h28.2v18.5v18.5l-49.7-0.1C236.7,266,221.5,265.6,217.9,264.7z"/>
	<path class="st0" d="M304.9,221.4c-13.9-1.7-22.4-5.6-26-11.7c-4.5-7.8-2.8-18,4-23.1c4.9-3.8,10.7-5.4,27.5-7.5
		c8.6-1.1,17.6-2.6,20-3.3c4.3-1.3,4.5-1.5,4.3-4.8c-0.5-9.8-18.3-11.1-20.7-1.4l-0.6,2.5h-17.5c-19.6,0-19.2,0.2-15.5-7
		c5.8-11.4,18.2-17.4,38.5-18.6c24.6-1.5,41.4,5.2,47.6,18.8c2.3,5.1,2.4,6.4,2.7,31.1l0.3,25.7h-17c-13.8,0-17.1-0.3-17.1-1.4
		c0-1.1-0.9-1.1-5.7,0C324.3,222,312,222.3,304.9,221.4z M333.5,203.2c1.3-1.6,1.9-4,1.9-7.7c0-5.1-0.1-5.4-2.2-4.9
		c-1.3,0.2-5,0.9-8.2,1.5c-9.4,1.6-12.9,4.8-10.7,9.6c1.5,3.4,4.5,4.4,11.5,4.1C330.5,205.5,332.1,205,333.5,203.2z"/>
	<path class="st0" d="M377.4,184.1v-38h17c14.8,0,17,0.2,17,1.6c0,1,0.6,1.4,1.8,1c5.8-1.8,11.7-2.6,19.5-2.6h8.7v8.4v8.4l-9.8-0.5
		c-11.3-0.7-15,0.6-17.9,6c-1.6,2.8-1.8,6.6-2.1,28.5l-0.3,25.2h-17h-16.9V184.1z"/>
	<path class="st0" d="M484.4,221.4c-13.6-1.6-23.9-6.1-30.1-13.2c-5.1-5.8-6.9-12-6.9-24.1s1.8-18.3,6.9-24.1
		c4.8-5.5,11.7-9.3,20.7-11.6c9.7-2.4,35.3-2.4,44.3,0.1c12.5,3.4,20.1,8.7,24.2,16.9c2.5,4.7,4.2,15.6,3.3,20.3l-0.6,3.4h-28.9
		h-28.9v5.5c0,7,2.9,10.5,8.5,10.5c5,0,7.1-1.4,8.5-5.5l1.2-3.5H526c14.3,0,19.4,0.3,19.4,1.2c0,2.7-4.4,9.9-8.2,13.3
		c-5.4,5-13,8.2-23.5,10C505.8,222,492.8,222.3,484.4,221.4z M506,171.4c-0.7-5.9-4.1-9.3-9.2-9.3c-5.2,0-8.4,3.6-8.4,9.5v4.5h9.1
		h9.2L506,171.4z"/>
</g>
<g id="layer4">
	<path class="st1" d="M53.4,180.7c0-42.3,0.2-47.5,1.6-48c0.9-0.3,10.1-0.6,20.5-0.6h18.9l3.4,6.8c1.8,3.7,5.4,10.5,7.8,15.2
		c2.5,4.7,5.6,10.4,6.8,12.8l2.2,4.2l1.9-3.2c1.1-1.8,3.5-6.4,5.4-10.3c2-3.8,5.7-11,8.3-16l4.7-9l20.8-0.3l20.7-0.2v48v48h-20.5
		h-20.5v-24.5c0-13.5-0.3-24.5-0.8-24.5c-1.2,0-5.2,7.1-15.9,28.3c-1.8,3.7-3.8,6.5-4.4,6.2c-0.9-0.6-4.3-7.1-14.1-26.7
		c-2.1-4.2-4.3-8-4.8-8.3c-0.7-0.4-1,8.1-1,24.4v25.1H73.9H53.4V180.7z"/>
</g>
<path class="st1" d="M19.4,355.9c-3-1.6-5.5-4.1-7.5-7.3l-3-4.8L8.6,184.2C8.3,8.1,8,18,14.6,11.2c1.8-1.9,4.7-4,6.5-4.7
	c6.9-2.9,11-2,58.3,13.5c25.1,8.2,47,15.6,48.7,16.4c4.1,2.2,8,7,11.2,13.7l2.6,5.5l0.3,32.3l0.3,32.2h-3h-3.1V93.4V66.6L83.1,51.7
	c-29.2-8.2-53.8-15.1-54.4-15.3c-1-0.4-1.3,28.6-1.3,143.2v143.6l2.3-0.7c1.2-0.4,25.6-8,54.2-16.9l52-16.2l0.3-25.2l0.2-25.1h3.1h3
	l-0.3,32.8l-0.3,32.7l-3.3,6.7c-5.6,11.5-5.3,11.3-57.3,29.7C29.9,359.2,27,359.9,19.4,355.9z M88.2,307.9
	c-6.1,1.5-9.8,7.9-8.3,14.2c1.6,6.4,7.8,10.3,13.9,8.8c6.1-1.5,9.8-7.9,8.3-14.2C100.5,310.4,94.3,306.4,88.2,307.9z M115.1,43.1
	c0.4-1.2-0.8-2.7-2.8-3.3l-44-14.7c-1.9-0.6-3.8-0.2-4.2,1l0,0c-0.4,1.2,0.8,2.7,2.8,3.3l44,14.7C112.8,44.8,114.7,44.3,115.1,43.1
	L115.1,43.1z"/>
</svg>
