<?xml version="1.0" encoding="utf-8"?>
<!-- Generator: Adobe Illustrator 23.0.3, SVG Export Plug-In . SVG Version: 6.00 Build 0)  -->
<svg version="1.1" id="Capa_1" xmlns="http://www.w3.org/2000/svg" xmlns:xlink="http://www.w3.org/1999/xlink" x="0px" y="0px"
	 viewBox="0 0 14 14" style="enable-background:new 0 0 14 14;" xml:space="preserve">
<g id="Layer_1_1_">
	<g>
		<rect x="4.2" y="5.3" width="0" height="3.3"/>
		<path d="M1.9,5.5C1.9,5.5,1.9,5.5,1.9,5.5C1.9,5.5,1.9,5.5,1.9,5.5C1.9,5.5,1.9,5.5,1.9,5.5z M1.5,6C1.5,6,1.5,5.9,1.5,6
			C1.5,5.9,1.5,5.9,1.5,6C1.5,5.9,1.5,5.9,1.5,6C1.5,5.9,1.5,5.9,1.5,6c0.1-0.1,0.1-0.1,0.1-0.1c0,0,0,0,0,0c0,0,0,0,0,0
			c0,0,0,0,0,0c0,0,0,0,0,0c0,0,0,0,0,0c0,0,0,0,0,0c0,0,0,0,0,0c0,0,0,0,0,0c0,0,0,0,0,0c0,0,0,0,0,0c0,0,0,0,0,0c0,0,0,0,0-0.1
			c0,0,0,0,0-0.1c0,0,0,0,0,0c0,0,0,0,0,0c0,0,0,0,0,0c0,0,0,0,0,0c0,0,0,0,0,0c0,0,0,0,0,0c0,0,0,0,0,0c0,0,0,0-0.1,0c0,0,0,0,0,0
			c0,0,0,0,0,0c0,0,0,0,0,0c0,0,0,0,0,0c0,0,0,0,0,0c0,0,0,0,0,0l0,0c0,0,0,0,0,0c0,0,0,0,0,0c0,0,0,0,0-0.1c0,0,0,0,0,0
			c0,0,0,0,0,0c0,0,0,0,0,0c0,0,0,0,0,0c0,0,0,0,0,0c0,0,0,0,0.1,0l0.1,0c0,0,0,0,0,0c0,0,0,0,0,0c0,0,0,0,0,0c0,0,0,0,0,0
			c0,0,0,0,0,0c0,0,0,0,0,0c0,0,0,0,0,0c0,0,0,0,0,0c0,0,0,0,0,0c0,0,0,0,0,0c0,0,0,0,0,0c0,0,0,0,0,0l0,0c0,0,0,0,0,0c0,0,0,0,0,0
			v0c0,0,0,0,0,0c0,0,0,0,0,0c0,0,0,0,0,0c0,0,0,0,0,0c0,0,0,0,0,0c0,0,0,0,0,0l0,0l0,0l0,0h0c0,0,0,0,0,0c0,0,0,0,0,0c0,0,0,0,0,0
			c0,0,0,0,0,0c0,0,0,0,0,0c0,0,0,0,0,0c0.1,0,0.1,0,0.1,0l0,0c0,0,0,0,0,0c0,0,0,0,0,0c0,0,0,0.1,0,0.1c0,0,0,0,0,0c0,0,0,0,0,0
			c0,0,0,0,0,0l0,0v0v0c0,0,0,0,0,0v0v0l0,0l0,0l0,0v0c0,0,0,0,0,0s0,0,0,0l0,0c0,0,0,0,0,0c0,0,0,0,0,0c0,0,0,0,0,0c0,0,0,0,0,0
			c0,0,0,0,0,0c0,0,0,0,0,0l0,0c0,0,0,0,0,0c0,0,0,0,0,0c0,0,0,0,0,0l0,0c0,0-0.1,0-0.1,0c0,0,0,0,0,0l0,0c0,0,0,0.1-0.1,0.1l0,0
			c0,0,0,0,0,0c0,0,0,0,0,0c0,0,0,0,0,0v0l0,0l0,0v0l0,0c0,0,0,0,0,0c0,0,0,0,0,0.1c0,0,0,0,0,0v0c0,0,0,0,0,0l0,0l0,0v0
			c0,0,0,0,0,0v0c0,0,0,0,0,0v0c0,0,0,0,0,0v0c0,0,0,0,0,0v0l0,0c0,0,0,0,0,0v0l0,0v0c0,0,0,0,0,0l0,0l0,0l0,0c0,0,0,0,0,0l0,0
			c0,0,0,0,0,0c0,0,0,0,0,0l0,0c0,0,0,0,0,0c0,0,0,0,0,0c0,0,0,0,0,0c0,0,0,0,0,0c0,0,0,0,0,0c0,0,0,0,0,0c0,0,0,0,0,0l0,0l0,0
			c0,0,0,0,0,0c0,0,0,0,0,0l0,0c0,0,0,0,0,0v0v0l0,0v0l0,0v0c0,0,0,0,0,0v0c0,0,0,0,0,0c0,0,0,0,0,0c0,0,0,0,0,0c0,0,0,0,0,0
			c0,0,0,0,0,0v0l0,0c0,0,0,0,0,0c0,0,0,0,0,0c0,0,0,0,0,0c0,0,0,0,0,0c0,0,0,0,0,0c0,0,0,0,0,0l0,0c0,0,0,0.1,0,0.1l0,0v0v0l0,0
			c0,0,0,0,0,0l0,0c0,0,0,0,0,0c0,0,0,0,0,0c0,0,0,0,0,0l0,0l0,0l0,0l0,0l0,0l0,0l0,0v0l0,0l0,0c0,0,0,0,0,0c0,0,0,0,0-0.1
			c0,0,0,0-0.1,0.1l0,0l0,0v0l0,0v0v0v0v0c0,0,0,0,0,0s0,0,0,0s0,0,0,0c0,0,0,0,0,0c0,0,0,0,0,0c0,0,0,0,0,0h0h0l0,0h0l0,0h0l0,0h0
			c0,0,0,0,0,0h0h0c0,0,0,0,0,0h0l0,0c0,0-0.1,0-0.1-0.1c0,0,0,0,0,0c0,0,0,0,0,0C2,6,2,6,2,6s0,0,0.1,0c0,0,0.1,0,0.1,0
			c0,0,0,0,0,0c0,0,0.1-0.1,0.1-0.1c0,0,0,0,0,0l-0.1,0c0.1,0,0.1,0,0.1,0c0,0,0,0,0,0l0,0l0,0c0,0,0,0,0,0L2.2,5.7
			c0.1,0,0.2,0,0.2,0c0,0,0,0,0,0c0,0,0,0,0,0c0,0-0.2-0.1-0.3-0.1c0,0,0,0,0,0c0,0,0,0,0,0c0,0,0,0.1,0,0.1C2,5.8,2,5.9,2,5.9
			c0,0-0.1,0-0.1,0s0,0,0.1,0c0,0-0.1,0-0.1-0.1c0,0,0,0,0,0c0,0,0,0,0,0l0,0c0,0,0,0,0,0c0,0,0,0,0-0.1c0,0,0-0.1,0.1-0.1
			c0,0,0,0,0-0.1c0,0,0,0,0,0v0c0,0,0,0,0,0c0,0,0,0,0,0s0,0,0.1,0c0,0,0,0,0,0c0,0,0,0,0,0L2,5.5c0,0-0.1,0-0.1,0c0,0,0,0,0,0
			c0,0-0.1,0-0.1,0c0,0,0,0,0,0.1c0.1,0,0.2,0.1,0.2,0.1c0,0,0.1,0,0.1,0s0,0.1-0.1,0.1c0,0,0,0,0,0c0,0,0,0,0,0c0,0,0,0.1-0.1,0.1
			c0,0,0,0,0,0.1s0,0,0,0.1c0,0,0,0,0,0.1c0,0,0,0,0,0c0,0,0,0,0,0c0,0,0,0,0,0c0,0,0,0,0,0l-0.1,0l0,0c0,0,0,0,0,0c0,0,0,0,0,0
			c0,0,0,0,0,0c0,0,0,0,0,0c0,0,0,0,0,0c0,0,0,0,0,0c0,0,0,0,0,0l0,0l0,0c0,0,0,0,0,0c0,0,0,0,0,0c0,0,0,0,0,0c0,0,0,0,0,0
			c0,0,0,0,0,0c0,0,0,0,0,0c0,0,0,0,0,0l0,0l0,0c0,0,0,0,0,0c0,0,0,0,0,0c0,0,0,0,0,0C1.6,5.9,1.6,5.9,1.5,6
			c0.1-0.1,0.1-0.1,0.1-0.1v0c0,0,0,0,0,0c0,0,0,0,0,0l0,0l0,0c0,0,0,0,0,0c0,0,0,0,0,0c0,0,0,0,0,0c0,0,0,0,0,0c0,0,0,0,0,0
			c0,0,0,0,0,0c0,0,0,0,0,0l0,0l0.1,0l0,0c0,0,0.1,0,0.1,0c0,0,0,0,0,0c0,0,0,0.1,0,0.1s0,0,0,0c0,0,0,0,0,0c0,0,0,0-0.1,0
			c0,0,0,0,0,0l0,0L1.6,6l0,0c0,0,0,0,0,0c0,0,0,0,0,0c0,0,0,0,0,0C1.6,5.9,1.6,5.9,1.5,6c0.1,0,0.1,0,0.1,0c0,0,0,0,0,0
			c0,0,0,0,0,0l0,0L1.5,6C1.6,6,1.6,6,1.5,6C1.6,5.9,1.6,5.9,1.5,6C1.6,5.9,1.6,5.9,1.5,6C1.5,5.9,1.5,5.9,1.5,6
			C1.5,5.9,1.5,5.9,1.5,6C1.6,6,1.5,6,1.5,6C1.6,6,1.6,6,1.5,6L1.5,6L1.5,6C1.6,6,1.6,6,1.5,6C1.6,6,1.6,6,1.5,6C1.5,6,1.5,6,1.5,6
			C1.5,6,1.5,6,1.5,6C1.5,6,1.5,6,1.5,6L1.5,6C1.6,6,1.6,6,1.5,6C1.6,6,1.6,6,1.5,6L1.6,6l0,0c0,0,0,0,0,0c0,0,0,0,0,0c0,0,0,0,0,0
			c0,0,0,0,0,0c0,0,0,0,0,0c0,0,0,0,0,0c0,0,0,0,0,0l0,0c0,0,0.1,0,0.1,0c0,0,0,0,0,0s0,0,0,0c0,0,0,0,0,0c0,0,0-0.1,0-0.1
			c0,0,0,0,0.1,0.1c0,0,0,0,0,0c0,0,0,0,0,0c0,0,0,0,0,0s0,0,0,0c0,0,0,0,0,0l0,0h0c0,0,0,0,0,0c0,0,0,0,0,0c0,0,0,0,0,0
			c0,0,0,0,0,0l0,0c0,0,0,0,0,0c0,0,0,0,0,0c0,0,0,0,0,0c0,0,0,0,0,0c0,0,0,0,0,0c0,0,0,0,0,0c0,0,0,0,0,0l0,0c0,0,0,0,0,0
			c0,0,0,0,0,0C1.5,6.1,1.5,6.1,1.5,6C1.5,6,1.5,6,1.5,6C1.5,6,1.5,6,1.5,6C1.5,6,1.5,6,1.5,6L1.5,6C1.5,6,1.5,6,1.5,6z M2,5.7
			C2,5.7,2,5.7,2,5.7C2,5.7,2,5.7,2,5.7C2,5.8,1.9,5.8,1.9,5.8c0,0,0,0,0,0l0,0C2,5.8,2,5.8,2,5.7L2,5.7C2,5.7,2,5.7,2,5.7z
			 M2.2,5.6C2.2,5.6,2.2,5.6,2.2,5.6C2.2,5.6,2.2,5.6,2.2,5.6C2.2,5.6,2.2,5.6,2.2,5.6C2.2,5.6,2.2,5.6,2.2,5.6
			C2.2,5.6,2.2,5.6,2.2,5.6C2.2,5.6,2.2,5.6,2.2,5.6C2.2,5.5,2.2,5.5,2.2,5.6c0.1,0,0.1,0,0.1,0c0,0,0,0,0,0c0,0,0,0,0,0
			c0,0,0,0,0,0c0,0,0,0,0,0c0,0,0,0,0,0c0,0,0,0,0,0c0,0,0,0,0,0c0,0,0,0,0,0v0l0,0v0l0,0l0,0v0c0,0,0,0,0,0c0,0,0,0,0,0
			c0,0,0,0,0,0c0,0,0,0,0,0l0,0c0,0,0,0,0,0c0,0,0,0,0,0c0,0,0,0,0,0c0,0,0,0,0,0c0,0,0-0.1,0-0.1c-0.1,0-0.1,0-0.1,0.1
			c0,0,0,0,0.1,0c0,0,0,0,0,0c0,0,0,0,0,0c0,0,0,0,0,0C2.3,5.5,2.2,5.5,2.2,5.6C2.2,5.5,2.2,5.5,2.2,5.6L2.2,5.6
			C2.2,5.5,2.2,5.5,2.2,5.6C2.2,5.5,2.2,5.5,2.2,5.6C2.2,5.5,2.2,5.5,2.2,5.6C2.2,5.5,2.2,5.5,2.2,5.6C2.2,5.5,2.2,5.5,2.2,5.6
			C2.2,5.5,2.2,5.5,2.2,5.6C2.2,5.5,2.2,5.5,2.2,5.6C2.2,5.6,2.2,5.6,2.2,5.6C2.2,5.6,2.2,5.6,2.2,5.6z M1.9,5.6c0,0-0.1,0-0.1,0
			c0,0,0,0-0.1,0c0,0-0.1,0-0.1,0s0,0.1,0,0.1c0,0,0,0-0.1,0c0,0,0,0,0,0c0,0,0.1,0,0.1,0l0,0c0,0,0,0,0,0C1.8,5.6,1.9,5.6,1.9,5.6z
			 M1.8,5.5C1.8,5.5,1.8,5.5,1.8,5.5C1.8,5.5,1.8,5.5,1.8,5.5C1.8,5.5,1.8,5.5,1.8,5.5z M2.3,5.5C2.3,5.5,2.3,5.5,2.3,5.5L2.3,5.5
			L2.3,5.5L2.3,5.5L2.3,5.5L2.3,5.5L2.3,5.5L2.3,5.5L2.3,5.5L2.3,5.5L2.3,5.5L2.3,5.5C2.3,5.6,2.3,5.6,2.3,5.5
			C2.3,5.6,2.3,5.6,2.3,5.5C2.3,5.6,2.3,5.6,2.3,5.5C2.3,5.6,2.3,5.6,2.3,5.5C2.3,5.6,2.3,5.6,2.3,5.5C2.3,5.5,2.3,5.5,2.3,5.5
			L2.3,5.5L2.3,5.5L2.3,5.5L2.3,5.5L2.3,5.5C2.3,5.5,2.3,5.5,2.3,5.5C2.3,5.5,2.3,5.5,2.3,5.5C2.3,5.5,2.3,5.5,2.3,5.5
			C2.3,5.5,2.3,5.5,2.3,5.5C2.3,5.5,2.3,5.5,2.3,5.5z M1.7,7.2L1.7,7.2L1.7,7.2C1.7,7.2,1.7,7.2,1.7,7.2C1.7,7.2,1.7,7.2,1.7,7.2
			L1.7,7.2L1.7,7.2C1.7,7.2,1.7,7.2,1.7,7.2C1.7,7.2,1.7,7.2,1.7,7.2z M2.2,7L2.2,7L2.2,7C2.2,7,2.2,7,2.2,7L2.2,7
			C2.2,7,2.2,7,2.2,7C2.2,6.9,2.2,6.9,2.2,7L2.2,7L2.2,7C2.2,6.9,2.2,6.9,2.2,7C2.2,6.9,2.2,7,2.2,7z M1.6,7.2L1.6,7.2L1.6,7.2
			C1.6,7.2,1.6,7.2,1.6,7.2C1.7,7.2,1.7,7.2,1.6,7.2C1.7,7.2,1.7,7.2,1.6,7.2L1.6,7.2L1.6,7.2C1.7,7.2,1.7,7.2,1.6,7.2
			C1.6,7.2,1.6,7.2,1.6,7.2z M1.7,7.2L1.7,7.2C1.7,7.2,1.7,7.2,1.7,7.2C1.7,7.1,1.7,7.1,1.7,7.2L1.7,7.2L1.7,7.2
			C1.7,7.1,1.7,7.1,1.7,7.2C1.7,7.2,1.7,7.2,1.7,7.2L1.7,7.2z M1.8,7C1.8,7,1.8,7,1.8,7L1.8,7L1.8,7C1.9,7,1.9,7,1.8,7
			C1.8,6.9,1.8,6.9,1.8,7L1.8,7L1.8,7C1.8,6.9,1.8,6.9,1.8,7z M1.7,7.1L1.7,7.1L1.7,7.1C1.8,7.1,1.8,7.1,1.7,7.1
			C1.7,7.1,1.7,7.1,1.7,7.1L1.7,7.1L1.7,7.1C1.7,7.1,1.7,7.1,1.7,7.1C1.7,7.1,1.7,7.1,1.7,7.1C1.7,7.1,1.7,7.1,1.7,7.1z M2.3,7.2
			L2.3,7.2C2.3,7.2,2.3,7.2,2.3,7.2L2.3,7.2L2.3,7.2C2.3,7.2,2.3,7.2,2.3,7.2L2.3,7.2L2.3,7.2C2.3,7.2,2.4,7.2,2.3,7.2L2.3,7.2
			L2.3,7.2C2.4,7.2,2.3,7.2,2.3,7.2z M2.2,7L2.2,7L2.2,7C2.2,7,2.2,7,2.2,7C2.2,7,2.2,7,2.2,7L2.2,7L2.2,7C2.2,7,2.2,7,2.2,7
			C2.2,7,2.2,7,2.2,7z M1.8,7L1.8,7L1.8,7C1.8,7,1.8,7,1.8,7C1.8,7,1.8,7,1.8,7L1.8,7L1.8,7C1.8,7,1.8,7,1.8,7C1.8,7,1.8,7,1.8,7z
			 M2.3,7.1L2.3,7.1C2.3,7.1,2.3,7.1,2.3,7.1C2.3,7.1,2.3,7.1,2.3,7.1L2.3,7.1L2.3,7.1C2.3,7.2,2.3,7.1,2.3,7.1
			C2.3,7.1,2.3,7.1,2.3,7.1L2.3,7.1z M2.3,7.1C2.3,7.1,2.3,7.1,2.3,7.1C2.3,7.1,2.3,7.1,2.3,7.1L2.3,7.1L2.3,7.1
			C2.3,7.2,2.3,7.2,2.3,7.1L2.3,7.1C2.3,7.2,2.3,7.2,2.3,7.1C2.3,7.2,2.4,7.1,2.3,7.1L2.3,7.1L2.3,7.1C2.3,7.1,2.3,7.1,2.3,7.1z
			 M2.3,7.1L2.3,7.1C2.3,7.1,2.3,7.1,2.3,7.1C2.3,7.1,2.3,7.1,2.3,7.1C2.2,7.1,2.2,7.1,2.3,7.1L2.3,7.1L2.3,7.1
			C2.2,7.1,2.3,7.1,2.3,7.1L2.3,7.1C2.3,7.1,2.3,7.1,2.3,7.1C2.3,7.1,2.3,7.1,2.3,7.1L2.3,7.1z M2.2,7C2.2,7,2.2,7,2.2,7L2.2,7
			L2.2,7C2.2,7,2.2,7,2.2,7C2.2,7,2.2,7,2.2,7C2.2,7,2.3,7,2.2,7L2.2,7L2.2,7C2.2,7,2.2,7,2.2,7z M1.9,7L1.9,7C1.9,7,1.9,7,1.9,7
			C1.9,7,1.9,7.1,1.9,7L1.9,7L1.9,7C1.9,7.1,1.9,7.1,1.9,7C1.9,7,1.9,7,1.9,7L1.9,7z M1.8,7.2L1.8,7.2C1.8,7.2,1.8,7.2,1.8,7.2
			C1.8,7.2,1.8,7.1,1.8,7.2L1.8,7.2L1.8,7.2C1.8,7.1,1.8,7.1,1.8,7.2C1.8,7.1,1.7,7.1,1.8,7.2L1.8,7.2L1.8,7.2
			C1.7,7.2,1.8,7.2,1.8,7.2z M1.9,7.1L1.9,7.1L1.9,7.1C1.9,7.1,1.9,7.1,1.9,7.1C1.8,7.1,1.8,7.1,1.9,7.1L1.9,7.1L1.9,7.1
			C1.8,7.1,1.8,7.1,1.9,7.1C1.8,7.1,1.8,7.1,1.9,7.1z M1.9,7.1L1.9,7.1L1.9,7.1C1.9,7.1,1.9,7.1,1.9,7.1C1.9,7,1.8,7,1.9,7.1
			C1.8,7,1.8,7,1.9,7.1L1.9,7.1L1.9,7.1C1.8,7,1.8,7.1,1.9,7.1C1.8,7.1,1.9,7.1,1.9,7.1C1.9,7.1,1.9,7.1,1.9,7.1z M1.8,6.9L1.8,6.9
			L1.8,6.9C1.8,6.9,1.8,6.9,1.8,6.9C1.8,6.9,1.8,6.9,1.8,6.9L1.8,6.9L1.8,6.9C1.8,6.9,1.8,6.9,1.8,6.9C1.8,6.9,1.8,6.9,1.8,6.9z
			 M1.9,7C1.9,7,1.9,7,1.9,7L1.9,7L1.9,7C1.9,7,1.9,7,1.9,7C1.9,7,1.9,7,1.9,7L1.9,7L1.9,7C1.9,7,1.9,7,1.9,7z M1.8,7
			C1.9,7,1.9,7,1.8,7L1.8,7L1.8,7C1.9,7,1.9,7,1.8,7C1.9,7,1.9,7,1.8,7L1.8,7L1.8,7C1.9,7,1.8,7,1.8,7z M1.8,7.2
			C1.8,7.2,1.8,7.2,1.8,7.2C1.7,7.2,1.7,7.2,1.8,7.2L1.8,7.2L1.8,7.2C1.7,7.2,1.7,7.2,1.8,7.2C1.8,7.2,1.8,7.2,1.8,7.2L1.8,7.2
			C1.8,7.2,1.8,7.2,1.8,7.2L1.8,7.2L1.8,7.2C1.8,7.2,1.8,7.2,1.8,7.2z M1.9,7L1.9,7L1.9,7C1.9,7,1.9,7,1.9,7C1.9,6.9,1.9,6.9,1.9,7
			L1.9,7L1.9,7C1.9,6.9,1.9,6.9,1.9,7C1.9,7,1.9,7,1.9,7z M1.8,7.2L1.8,7.2C1.8,7.2,1.8,7.2,1.8,7.2L1.8,7.2
			C1.8,7.2,1.8,7.2,1.8,7.2C1.8,7.2,1.8,7.1,1.8,7.2L1.8,7.2L1.8,7.2C1.8,7.1,1.8,7.1,1.8,7.2C1.8,7.1,1.8,7.1,1.8,7.2
			C1.8,7.2,1.8,7.2,1.8,7.2L1.8,7.2z M1.8,7.1C1.8,7.1,1.8,7.1,1.8,7.1C1.8,7.1,1.8,7.1,1.8,7.1L1.8,7.1L1.8,7.1
			C1.8,7.1,1.8,7.1,1.8,7.1C1.8,7.1,1.8,7.1,1.8,7.1L1.8,7.1L1.8,7.1C1.8,7.1,1.8,7.1,1.8,7.1z M1.8,7L1.8,7C1.8,7,1.8,7,1.8,7
			C1.8,7.1,1.8,7.1,1.8,7L1.8,7L1.8,7C1.8,7.1,1.8,7,1.8,7C1.8,7,1.8,7,1.8,7L1.8,7z M1.8,7C1.8,7,1.8,7,1.8,7L1.8,7L1.8,7
			C1.8,7,1.8,7,1.8,7C1.8,6.9,1.8,6.9,1.8,7L1.8,7L1.8,7C1.8,6.9,1.8,7,1.8,7z M2.3,7.2L2.3,7.2L2.3,7.2C2.3,7.2,2.3,7.2,2.3,7.2
			C2.3,7.2,2.3,7.2,2.3,7.2C2.3,7.2,2.3,7.2,2.3,7.2L2.3,7.2L2.3,7.2C2.3,7.2,2.3,7.2,2.3,7.2C2.3,7.2,2.3,7.2,2.3,7.2
			C2.3,7.2,2.3,7.2,2.3,7.2z M1.8,7.2L1.8,7.2L1.8,7.2C1.7,7.2,1.7,7.2,1.8,7.2C1.8,7.2,1.8,7.2,1.8,7.2L1.8,7.2L1.8,7.2
			C1.8,7.2,1.8,7.2,1.8,7.2C1.8,7.2,1.8,7.2,1.8,7.2z M1.8,7.1L1.8,7.1C1.8,7.1,1.8,7.1,1.8,7.1C1.7,7.1,1.7,7,1.8,7.1
			C1.7,7,1.7,7,1.8,7.1L1.8,7.1L1.8,7.1C1.7,7.1,1.7,7.1,1.8,7.1C1.7,7.1,1.7,7.1,1.8,7.1C1.8,7.1,1.8,7.1,1.8,7.1L1.8,7.1z M1.8,7
			L1.8,7L1.8,7C1.8,7.1,1.8,7.1,1.8,7C1.8,7.1,1.8,7.1,1.8,7L1.8,7C1.8,7.1,1.8,7.1,1.8,7L1.8,7L1.8,7C1.8,7.1,1.8,7.1,1.8,7
			C1.8,7.1,1.8,7,1.8,7C1.8,7,1.8,7,1.8,7z M2.3,7L2.3,7C2.3,7,2.3,7,2.3,7C2.2,7.1,2.2,7.1,2.3,7L2.3,7L2.3,7
			C2.3,7.1,2.3,7.1,2.3,7C2.3,7.1,2.3,7,2.3,7L2.3,7z M2.2,7L2.2,7C2.1,7,2.1,7,2.2,7C2.1,7,2.1,7.1,2.2,7L2.2,7L2.2,7
			C2.1,7.1,2.2,7.1,2.2,7C2.2,7,2.2,7,2.2,7L2.2,7z M2.2,7L2.2,7C2.2,7,2.2,7,2.2,7C2.2,7,2.2,7.1,2.2,7C2.1,7.1,2.1,7.1,2.2,7
			L2.2,7L2.2,7C2.1,7.1,2.1,7.1,2.2,7C2.2,7.1,2.2,7.1,2.2,7C2.2,7.1,2.2,7.1,2.2,7L2.2,7z M2.2,7.1C2.2,7.1,2.2,7.1,2.2,7.1
			C2.2,7.1,2.2,7.1,2.2,7.1L2.2,7.1L2.2,7.1C2.2,7.1,2.2,7.1,2.2,7.1C2.1,7.1,2.1,7.1,2.2,7.1L2.2,7.1L2.2,7.1
			C2.1,7.1,2.1,7.1,2.2,7.1z M2.1,6.9L2.1,6.9L2.1,6.9C2.2,6.9,2.2,6.9,2.1,6.9C2.2,6.9,2.2,6.9,2.1,6.9L2.1,6.9L2.1,6.9
			C2.1,6.9,2.1,6.9,2.1,6.9C2.1,6.9,2.1,6.9,2.1,6.9z M2.1,7L2.1,7C2.1,7,2.1,7,2.1,7C2.1,6.9,2.1,6.9,2.1,7L2.1,7L2.1,7
			C2.1,6.9,2.1,6.9,2.1,7C2.1,7,2.1,7,2.1,7L2.1,7z M2.1,7L2.1,7L2.1,7C2.1,7,2.1,7,2.1,7C2.1,7,2.1,7,2.1,7L2.1,7L2.1,7
			C2,7,2,7,2.1,7C2,7,2,7,2.1,7z M2.1,7.2L2.1,7.2L2.1,7.2C2.1,7.2,2.1,7.2,2.1,7.2C2.1,7.2,2.1,7.2,2.1,7.2L2.1,7.2
			C2.1,7.2,2.1,7.2,2.1,7.2C2.1,7.2,2.1,7.2,2.1,7.2L2.1,7.2C2.1,7.2,2.1,7.2,2.1,7.2L2.1,7.2L2.1,7.2C2.1,7.2,2.1,7.2,2.1,7.2
			C2.1,7.2,2.1,7.2,2.1,7.2C2.1,7.2,2.1,7.2,2.1,7.2C2.1,7.1,2.1,7.1,2.1,7.2L2.1,7.2L2.1,7.2C2.1,7.1,2.1,7.1,2.1,7.2
			C2.1,7.1,2.1,7.1,2.1,7.2C2.1,7.1,2.1,7.1,2.1,7.2C2.1,7.1,2.1,7.1,2.1,7.2C2.1,7.1,2.1,7.1,2.1,7.2L2.1,7.2L2.1,7.2
			C2,7.1,2,7.1,2.1,7.2C2,7.1,2,7.1,2.1,7.2C2,7.1,2,7.1,2.1,7.2C2,7.1,2,7.1,2.1,7.2C2,7.1,2,7.1,2.1,7.2L2.1,7.2L2.1,7.2
			c0-0.1,0-0.1,0-0.1c0,0,0,0,0,0c0,0,0,0,0,0h0v0C2,7.1,2,7.1,2.1,7.2L2.1,7.2C2,7.1,2,7.1,2.1,7.2C2,7.1,2,7.1,2.1,7.2L2.1,7.2
			L2.1,7.2C2,7.1,2,7.1,2.1,7.2C2,7.1,2,7.1,2.1,7.2L2.1,7.2L2.1,7.2C2,7.1,2.1,7.1,2.1,7.2C2.1,7.1,2.1,7.2,2.1,7.2z M2.1,7L2.1,7
			C2.1,7,2.1,7,2.1,7C2.1,7,2.1,7,2.1,7L2.1,7L2.1,7C2.1,7,2.1,7,2.1,7C2.1,7,2.1,7,2.1,7L2.1,7z M2.3,7.1C2.3,7.1,2.3,7.1,2.3,7.1
			L2.3,7.1L2.3,7.1C2.3,7.1,2.3,7.1,2.3,7.1L2.3,7.1L2.3,7.1C2.3,7.1,2.4,7.1,2.3,7.1L2.3,7.1L2.3,7.1C2.4,7.1,2.3,7.1,2.3,7.1
			L2.3,7.1z M1.9,7L1.9,7C1.9,7,1.9,7,1.9,7C1.9,7,2,7,1.9,7C2,7,2,7,1.9,7L1.9,7L1.9,7C2,7,1.9,7,1.9,7C1.9,7,1.9,7,1.9,7L1.9,7z
			 M2.2,7.1C2.2,7.1,2.2,7.1,2.2,7.1L2.2,7.1L2.2,7.1C2.2,7,2.2,7,2.2,7.1C2.2,7,2.2,7.1,2.2,7.1C2.2,7.1,2.2,7.1,2.2,7.1L2.2,7.1
			L2.2,7.1C2.2,7.1,2.2,7.1,2.2,7.1C2.2,7.1,2.2,7.1,2.2,7.1z M2.2,6.9C2.2,6.9,2.1,6.9,2.2,6.9C2.1,7,2.1,7,2.2,6.9L2.2,6.9
			L2.2,6.9C2.2,7,2.2,7,2.2,6.9C2.2,7,2.2,6.9,2.2,6.9L2.2,6.9L2.2,6.9z M2.2,7.2L2.2,7.2L2.2,7.2C2.2,7.2,2.2,7.2,2.2,7.2
			C2.1,7.1,2.1,7.1,2.2,7.2C2.1,7.1,2.1,7.1,2.2,7.2L2.2,7.2L2.2,7.2C2.1,7.1,2.1,7.2,2.2,7.2C2.1,7.2,2.1,7.2,2.2,7.2
			C2.2,7.2,2.2,7.2,2.2,7.2z M2.2,7.2L2.2,7.2C2.2,7.2,2.2,7.2,2.2,7.2C2.2,7.2,2.2,7.2,2.2,7.2C2.2,7.2,2.2,7.2,2.2,7.2L2.2,7.2
			L2.2,7.2C2.2,7.2,2.2,7.2,2.2,7.2C2.2,7.2,2.2,7.2,2.2,7.2C2.2,7.2,2.2,7.2,2.2,7.2L2.2,7.2z M2.2,7.2L2.2,7.2L2.2,7.2
			C2.3,7.2,2.3,7.2,2.2,7.2C2.3,7.1,2.3,7.1,2.2,7.2L2.2,7.2L2.2,7.2C2.2,7.1,2.2,7.1,2.2,7.2C2.2,7.2,2.2,7.2,2.2,7.2z M2.1,7.1
			L2.1,7.1L2.1,7.1C2.1,7.1,2.1,7.1,2.1,7.1C2.1,7.1,2.1,7.1,2.1,7.1L2.1,7.1L2.1,7.1C2.1,7.1,2.1,7.1,2.1,7.1
			C2.1,7.1,2.1,7.1,2.1,7.1z M2.2,7.1C2.2,7.1,2.2,7.1,2.2,7.1L2.2,7.1L2.2,7.1C2.2,7.1,2.2,7.1,2.2,7.1C2.2,7.1,2.2,7.1,2.2,7.1
			L2.2,7.1L2.2,7.1C2.2,7.1,2.2,7.1,2.2,7.1C2.2,7.1,2.2,7.1,2.2,7.1z M2.2,7.2L2.2,7.2C2.2,7.2,2.2,7.2,2.2,7.2L2.2,7.2L2.2,7.2
			C2.2,7.1,2.2,7.1,2.2,7.2C2.2,7.1,2.2,7.1,2.2,7.2L2.2,7.2L2.2,7.2C2.1,7.1,2.2,7.2,2.2,7.2C2.2,7.2,2.2,7.2,2.2,7.2z M2.2,7.2
			C2.2,7.2,2.2,7.2,2.2,7.2L2.2,7.2L2.2,7.2C2.2,7.2,2.2,7.2,2.2,7.2C2.2,7.2,2.2,7.2,2.2,7.2L2.2,7.2L2.2,7.2
			C2.2,7.2,2.2,7.2,2.2,7.2z M2.3,7.2L2.3,7.2C2.3,7.2,2.3,7.2,2.3,7.2C2.2,7.2,2.2,7.2,2.3,7.2L2.3,7.2L2.3,7.2
			C2.3,7.2,2.3,7.2,2.3,7.2C2.3,7.2,2.3,7.2,2.3,7.2L2.3,7.2z M2.2,6.9C2.2,6.9,2.2,6.9,2.2,6.9L2.2,6.9L2.2,6.9L2.2,6.9
			C2.2,6.9,2.2,6.9,2.2,6.9C2.2,6.9,2.2,6.9,2.2,6.9L2.2,6.9L2.2,6.9C2.2,6.9,2.2,6.9,2.2,6.9z M2.1,7.1L2.1,7.1L2.1,7.1
			C2.1,7.1,2.1,7.1,2.1,7.1C2.1,7.1,2.1,7.1,2.1,7.1C2.1,7.1,2.1,7,2.1,7.1L2.1,7.1L2.1,7.1C2.1,7,2.1,7,2.1,7.1
			C2.1,7,2.1,7,2.1,7.1C2.1,7.1,2.1,7.1,2.1,7.1z M2.1,7L2.1,7L2.1,7C2.1,7,2.1,7,2.1,7C2.1,7,2.1,7,2.1,7L2.1,7L2.1,7
			C2.1,7,2.1,7,2.1,7C2.1,7,2.1,7,2.1,7z M2,7C2,7,2,7,2,7C2,7,2,7,2,7L2,7L2,7C2,7,2,7,2,7C2,7,2,7,2,7C2,7,2,7,2,7L2,7L2,7
			C2,7,2,7,2,7z M2.1,7.1L2.1,7.1L2.1,7.1C2.1,7.1,2.1,7,2.1,7.1C2.1,7,2,7,2.1,7.1L2.1,7.1L2.1,7.1C2,7,2,7,2.1,7.1
			C2,7.1,2.1,7.1,2.1,7.1z M1.8,7.3L1.8,7.3L1.8,7.3C1.8,7.3,1.8,7.3,1.8,7.3C1.8,7.4,1.8,7.4,1.8,7.3L1.8,7.3
			C1.8,7.4,1.8,7.4,1.8,7.3L1.8,7.3L1.8,7.3C1.8,7.3,1.8,7.3,1.8,7.3C1.8,7.3,1.8,7.3,1.8,7.3z M1.7,7.3L1.7,7.3L1.7,7.3
			C1.7,7.3,1.7,7.3,1.7,7.3C1.7,7.4,1.7,7.4,1.7,7.3L1.7,7.3L1.7,7.3C1.7,7.4,1.7,7.4,1.7,7.3C1.7,7.3,1.7,7.3,1.7,7.3z M1.7,7.4
			L1.7,7.4L1.7,7.4C1.7,7.4,1.7,7.4,1.7,7.4C1.7,7.4,1.7,7.4,1.7,7.4L1.7,7.4L1.7,7.4C1.7,7.4,1.7,7.4,1.7,7.4
			C1.7,7.4,1.7,7.4,1.7,7.4z M1.6,7.3L1.6,7.3C1.6,7.3,1.6,7.3,1.6,7.3C1.6,7.4,1.6,7.4,1.6,7.3L1.6,7.3L1.6,7.3
			C1.6,7.4,1.6,7.4,1.6,7.3C1.7,7.4,1.7,7.3,1.6,7.3L1.6,7.3z M1.7,7.3L1.7,7.3L1.7,7.3C1.7,7.3,1.7,7.3,1.7,7.3
			C1.7,7.4,1.7,7.4,1.7,7.3L1.7,7.3L1.7,7.3C1.8,7.4,1.8,7.4,1.7,7.3C1.8,7.3,1.7,7.3,1.7,7.3z M1.8,7.2L1.8,7.2L1.8,7.2
			C1.8,7.2,1.8,7.2,1.8,7.2C1.8,7.2,1.9,7.3,1.8,7.2L1.8,7.2L1.8,7.2C1.9,7.2,1.9,7.2,1.8,7.2C1.9,7.2,1.8,7.2,1.8,7.2z M1.6,7.3
			L1.6,7.3L1.6,7.3C1.6,7.3,1.6,7.3,1.6,7.3C1.6,7.3,1.6,7.3,1.6,7.3C1.6,7.3,1.6,7.3,1.6,7.3L1.6,7.3L1.6,7.3
			C1.6,7.3,1.6,7.3,1.6,7.3L1.6,7.3C1.6,7.3,1.6,7.3,1.6,7.3C1.6,7.3,1.6,7.3,1.6,7.3z M1.8,7.3L1.8,7.3L1.8,7.3
			C1.8,7.3,1.8,7.4,1.8,7.3C1.8,7.4,1.8,7.4,1.8,7.3L1.8,7.3L1.8,7.3C1.8,7.4,1.8,7.4,1.8,7.3C1.8,7.3,1.8,7.3,1.8,7.3z M1.7,7
			L1.7,7L1.7,7C1.7,7,1.7,7,1.7,7C1.7,7,1.7,7,1.7,7L1.7,7L1.7,7C1.7,7,1.7,7,1.7,7C1.7,7,1.7,7,1.7,7z M2.2,7C2.2,7,2.2,7,2.2,7
			L2.2,7L2.2,7C2.2,7,2.2,7,2.2,7C2.2,7,2.2,7,2.2,7L2.2,7L2.2,7C2.2,7,2.2,7,2.2,7z M1.8,7C1.8,7,1.8,7,1.8,7L1.8,7L1.8,7
			C1.8,7,1.8,6.9,1.8,7C1.7,6.9,1.7,6.9,1.8,7L1.8,7L1.8,7C1.7,6.9,1.7,6.9,1.8,7C1.7,7,1.7,7,1.8,7z M2.3,7.1L2.3,7.1L2.3,7.1
			C2.3,7.1,2.3,7.1,2.3,7.1L2.3,7.1C2.3,7.1,2.3,7.1,2.3,7.1C2.3,7.1,2.3,7,2.3,7.1L2.3,7.1L2.3,7.1C2.3,7,2.3,7,2.3,7.1
			C2.3,7,2.3,7,2.3,7.1C2.3,7,2.3,7,2.3,7.1z M1.9,7.2C1.9,7.2,1.9,7.2,1.9,7.2L1.9,7.2L1.9,7.2C1.9,7.2,1.9,7.2,1.9,7.2
			C1.9,7.2,1.9,7.2,1.9,7.2C1.9,7.2,1.9,7.2,1.9,7.2L1.9,7.2L1.9,7.2C1.9,7.2,1.9,7.2,1.9,7.2C1.9,7.2,1.9,7.2,1.9,7.2L1.9,7.2z
			 M1.6,7.1L1.6,7.1C1.6,7.1,1.6,7.1,1.6,7.1L1.6,7.1L1.6,7.1C1.6,7.1,1.6,7.1,1.6,7.1L1.6,7.1C1.6,7.1,1.6,7.1,1.6,7.1L1.6,7.1
			L1.6,7.1C1.6,7.1,1.6,7.1,1.6,7.1z M1.6,7.1C1.6,7.1,1.6,7.1,1.6,7.1C1.7,7.1,1.7,7.1,1.6,7.1L1.6,7.1L1.6,7.1
			C1.7,7,1.7,7,1.6,7.1C1.6,7,1.6,7,1.6,7.1L1.6,7.1L1.6,7.1C1.6,7,1.6,7.1,1.6,7.1z M1.7,7C1.7,7,1.7,7,1.7,7C1.7,7,1.7,7,1.7,7
			L1.7,7L1.7,7C1.7,7,1.7,7,1.7,7C1.7,7,1.7,7,1.7,7C1.7,7,1.7,7,1.7,7L1.7,7L1.7,7C1.7,7,1.7,7,1.7,7z M2.2,7L2.2,7
			C2.2,7,2.3,7,2.2,7C2.3,7,2.3,7,2.2,7C2.3,7,2.3,7,2.2,7L2.2,7L2.2,7C2.3,7,2.3,7,2.2,7C2.3,7,2.3,7,2.2,7C2.3,7,2.2,7,2.2,7
			L2.2,7z M2.2,7.4L2.2,7.4L2.2,7.4C2.2,7.4,2.2,7.4,2.2,7.4C2.2,7.4,2.2,7.4,2.2,7.4L2.2,7.4L2.2,7.4C2.3,7.4,2.3,7.4,2.2,7.4
			C2.3,7.4,2.3,7.4,2.2,7.4z M2.2,7.3L2.2,7.3L2.2,7.3C2.2,7.3,2.2,7.3,2.2,7.3C2.2,7.4,2.2,7.4,2.2,7.3L2.2,7.3L2.2,7.3
			C2.2,7.4,2.2,7.4,2.2,7.3C2.2,7.3,2.2,7.3,2.2,7.3z M2.2,7.3L2.2,7.3L2.2,7.3C2.2,7.3,2.1,7.3,2.2,7.3C2.1,7.3,2.1,7.3,2.2,7.3
			L2.2,7.3L2.2,7.3C2.1,7.4,2.1,7.4,2.2,7.3C2.1,7.4,2.1,7.4,2.2,7.3C2.2,7.3,2.2,7.3,2.2,7.3z M2.2,7.3L2.2,7.3
			C2.2,7.3,2.2,7.3,2.2,7.3C2.1,7.4,2.1,7.4,2.2,7.3L2.2,7.3L2.2,7.3C2.2,7.4,2.2,7.4,2.2,7.3C2.2,7.4,2.2,7.3,2.2,7.3L2.2,7.3z
			 M2.3,7.3L2.3,7.3L2.3,7.3C2.3,7.3,2.3,7.3,2.3,7.3C2.3,7.4,2.3,7.4,2.3,7.3L2.3,7.3L2.3,7.3C2.3,7.4,2.3,7.4,2.3,7.3
			C2.3,7.3,2.3,7.3,2.3,7.3z M2.4,7.3C2.3,7.3,2.3,7.3,2.4,7.3C2.3,7.3,2.3,7.3,2.4,7.3L2.4,7.3L2.4,7.3C2.3,7.3,2.3,7.3,2.4,7.3
			C2.3,7.3,2.4,7.3,2.4,7.3C2.4,7.3,2.4,7.3,2.4,7.3L2.4,7.3L2.4,7.3C2.4,7.3,2.4,7.3,2.4,7.3z M2.3,7.3L2.3,7.3L2.3,7.3
			C2.3,7.3,2.3,7.4,2.3,7.3C2.3,7.4,2.3,7.4,2.3,7.3L2.3,7.3L2.3,7.3C2.3,7.4,2.3,7.4,2.3,7.3C2.3,7.3,2.3,7.3,2.3,7.3z M2.1,7.2
			L2.1,7.2C2.1,7.2,2.1,7.2,2.1,7.2C2.1,7.2,2.1,7.2,2.1,7.2L2.1,7.2L2.1,7.2C2.1,7.3,2.1,7.2,2.1,7.2C2.1,7.2,2.1,7.2,2.1,7.2
			L2.1,7.2z M2,7L2,7L2,7C2,7.1,1.9,7.1,2,7C2,7.1,2,7.1,2,7L2,7L2,7C2,7.1,2,7.1,2,7C2,7.1,2,7,2,7z M2,7.2L2,7.2L2,7.2
			C2,7.2,2,7.2,2,7.2C2,7.1,2,7.1,2,7.2L2,7.2L2,7.2C2,7.1,2,7.2,2,7.2C2,7.2,2,7.2,2,7.2z M1.9,7.2L1.9,7.2L1.9,7.2
			C1.9,7.2,1.9,7.2,1.9,7.2C1.9,7.2,1.9,7.2,1.9,7.2L1.9,7.2L1.9,7.2C2,7.2,2,7.2,1.9,7.2C2,7.2,2,7.2,1.9,7.2z M2.1,7.2L2.1,7.2
			L2.1,7.2C2.1,7.2,2.1,7.2,2.1,7.2C2.1,7.2,2.1,7.2,2.1,7.2C2.1,7.2,2,7.2,2.1,7.2L2.1,7.2L2.1,7.2C2,7.2,2.1,7.2,2.1,7.2
			C2.1,7.2,2.1,7.2,2.1,7.2C2.1,7.2,2.1,7.2,2.1,7.2z M1.9,7.2L1.9,7.2L1.9,7.2C1.9,7.2,1.9,7.2,1.9,7.2C1.9,7.3,1.9,7.3,1.9,7.2
			L1.9,7.2L1.9,7.2L1.9,7.2L1.9,7.2C1.9,7.3,1.9,7.3,1.9,7.2C1.9,7.2,1.9,7.2,1.9,7.2z M2,7.2L2,7.2L2,7.2C2,7.2,2,7.2,2,7.2
			C2,7.2,2,7.2,2,7.2L2,7.2L2,7.2C2,7.2,2,7.2,2,7.2C2,7.2,2,7.2,2,7.2z M2.1,7.2L2.1,7.2C2.1,7.2,2,7.2,2.1,7.2
			C2,7.3,2,7.3,2.1,7.2L2.1,7.2L2.1,7.2L2.1,7.2L2.1,7.2C2,7.3,2.1,7.3,2.1,7.2C2.1,7.2,2.1,7.2,2.1,7.2L2.1,7.2z M1.8,7.3L1.8,7.3
			L1.8,7.3C1.8,7.3,1.8,7.3,1.8,7.3C1.8,7.3,1.7,7.3,1.8,7.3L1.8,7.3L1.8,7.3C1.7,7.3,1.7,7.3,1.8,7.3C1.7,7.3,1.8,7.3,1.8,7.3z
			 M1.6,7.3L1.6,7.3C1.6,7.3,1.6,7.3,1.6,7.3C1.7,7.3,1.7,7.3,1.6,7.3C1.7,7.3,1.7,7.3,1.6,7.3L1.6,7.3L1.6,7.3
			C1.7,7.3,1.7,7.3,1.6,7.3C1.6,7.3,1.6,7.3,1.6,7.3L1.6,7.3z M1.6,7.3C1.6,7.3,1.6,7.3,1.6,7.3C1.6,7.3,1.7,7.3,1.6,7.3L1.6,7.3
			L1.6,7.3C1.6,7.3,1.6,7.3,1.6,7.3C1.6,7.3,1.6,7.3,1.6,7.3L1.6,7.3L1.6,7.3C1.6,7.3,1.6,7.3,1.6,7.3z M1.7,7.3L1.7,7.3L1.7,7.3
			C1.7,7.2,1.7,7.2,1.7,7.3C1.7,7.2,1.7,7.2,1.7,7.3L1.7,7.3L1.7,7.3C1.7,7.3,1.7,7.3,1.7,7.3L1.7,7.3C1.7,7.3,1.7,7.3,1.7,7.3
			C1.7,7.3,1.7,7.3,1.7,7.3z M1.8,6.9L1.8,6.9L1.8,6.9L1.8,6.9C1.8,6.9,1.8,6.9,1.8,6.9C1.8,6.9,1.7,6.9,1.8,6.9L1.8,6.9L1.8,6.9
			C1.7,6.9,1.7,6.9,1.8,6.9C1.7,6.9,1.8,6.9,1.8,6.9z M1.7,7.3L1.7,7.3L1.7,7.3C1.7,7.3,1.7,7.3,1.7,7.3C1.7,7.3,1.7,7.3,1.7,7.3
			L1.7,7.3L1.7,7.3C1.7,7.3,1.7,7.3,1.7,7.3C1.7,7.3,1.7,7.3,1.7,7.3z M1.6,7.2L1.6,7.2C1.6,7.2,1.6,7.3,1.6,7.2
			C1.6,7.3,1.6,7.3,1.6,7.2L1.6,7.2C1.6,7.3,1.6,7.3,1.6,7.2L1.6,7.2L1.6,7.2C1.6,7.2,1.6,7.2,1.6,7.2C1.6,7.2,1.6,7.2,1.6,7.2
			C1.6,7.2,1.6,7.2,1.6,7.2L1.6,7.2z M1.7,7.2L1.7,7.2L1.7,7.2C1.7,7.2,1.7,7.2,1.7,7.2C1.7,7.2,1.7,7.2,1.7,7.2L1.7,7.2L1.7,7.2
			C1.7,7.2,1.7,7.2,1.7,7.2C1.7,7.2,1.7,7.2,1.7,7.2z M1.7,7.1L1.7,7.1L1.7,7.1C1.7,7.1,1.7,7.1,1.7,7.1C1.7,7.1,1.7,7.1,1.7,7.1
			C1.7,7.1,1.7,7.1,1.7,7.1L1.7,7.1L1.7,7.1C1.7,7.1,1.7,7.1,1.7,7.1C1.7,7.1,1.7,7.1,1.7,7.1C1.7,7.1,1.7,7.1,1.7,7.1z M1.6,7.2
			L1.6,7.2L1.6,7.2C1.6,7.2,1.6,7.2,1.6,7.2L1.6,7.2C1.6,7.2,1.6,7.2,1.6,7.2L1.6,7.2L1.6,7.2C1.6,7.2,1.6,7.2,1.6,7.2L1.6,7.2
			C1.6,7.2,1.6,7.2,1.6,7.2z M1.8,7L1.8,7L1.8,7C1.8,7,1.7,7,1.8,7C1.8,7,1.8,7,1.8,7L1.8,7L1.8,7C1.8,7,1.8,7,1.8,7
			C1.8,7,1.8,7,1.8,7z M1.7,7L1.7,7C1.7,7,1.7,7,1.7,7C1.7,7.1,1.7,7.1,1.7,7L1.7,7L1.7,7C1.7,7.1,1.7,7.1,1.7,7C1.7,7,1.7,7,1.7,7
			L1.7,7z M1.7,7C1.7,7,1.7,7,1.7,7L1.7,7L1.7,7C1.7,7,1.7,7,1.7,7C1.7,7,1.7,7,1.7,7L1.7,7C1.7,7,1.7,7,1.7,7L1.7,7L1.7,7
			C1.8,7,1.7,7,1.7,7z M2.4,7.2L2.4,7.2C2.4,7.2,2.3,7.2,2.4,7.2C2.3,7.2,2.3,7.2,2.4,7.2L2.4,7.2L2.4,7.2C2.3,7.3,2.3,7.3,2.4,7.2
			L2.4,7.2C2.3,7.3,2.3,7.3,2.4,7.2C2.3,7.3,2.4,7.2,2.4,7.2L2.4,7.2z M1.6,7.1L1.6,7.1C1.6,7.1,1.6,7.1,1.6,7.1
			C1.7,7.1,1.7,7.2,1.6,7.1L1.6,7.1L1.6,7.1C1.7,7.1,1.7,7.1,1.6,7.1C1.7,7.1,1.7,7.1,1.6,7.1L1.6,7.1z M1.8,7.3
			C1.8,7.3,1.8,7.3,1.8,7.3C1.8,7.3,1.8,7.3,1.8,7.3L1.8,7.3L1.8,7.3C1.8,7.3,1.8,7.3,1.8,7.3C1.8,7.3,1.8,7.3,1.8,7.3L1.8,7.3
			L1.8,7.3C1.8,7.3,1.8,7.3,1.8,7.3z M1.6,7.1C1.6,7.1,1.6,7.1,1.6,7.1L1.6,7.1L1.6,7.1C1.6,7.1,1.6,7.2,1.6,7.1
			C1.6,7.2,1.6,7.2,1.6,7.1C1.6,7.2,1.6,7.2,1.6,7.1L1.6,7.1L1.6,7.1C1.7,7.1,1.6,7.1,1.6,7.1C1.6,7.1,1.6,7.1,1.6,7.1z M2.2,7.2
			L2.2,7.2C2.2,7.2,2.2,7.2,2.2,7.2C2.2,7.2,2.2,7.2,2.2,7.2L2.2,7.2L2.2,7.2C2.2,7.2,2.2,7.2,2.2,7.2C2.2,7.2,2.2,7.2,2.2,7.2
			L2.2,7.2z M2.2,7.3L2.2,7.3L2.2,7.3C2.2,7.3,2.2,7.3,2.2,7.3C2.2,7.3,2.2,7.3,2.2,7.3L2.2,7.3L2.2,7.3C2.2,7.3,2.2,7.3,2.2,7.3
			C2.2,7.3,2.2,7.3,2.2,7.3z M2.2,7.3L2.2,7.3C2.2,7.3,2.2,7.3,2.2,7.3C2.3,7.3,2.3,7.3,2.2,7.3L2.2,7.3C2.3,7.3,2.3,7.3,2.2,7.3
			L2.2,7.3L2.2,7.3C2.3,7.2,2.3,7.2,2.2,7.3C2.3,7.2,2.2,7.2,2.2,7.3L2.2,7.3z M2.3,7.3L2.3,7.3C2.3,7.3,2.4,7.3,2.3,7.3L2.3,7.3
			L2.3,7.3C2.4,7.3,2.3,7.3,2.3,7.3C2.3,7.3,2.3,7.3,2.3,7.3L2.3,7.3L2.3,7.3C2.3,7.3,2.3,7.3,2.3,7.3C2.3,7.3,2.3,7.3,2.3,7.3z
			 M2.2,7.3L2.2,7.3L2.2,7.3C2.3,7.3,2.3,7.3,2.2,7.3C2.3,7.3,2.3,7.3,2.2,7.3L2.2,7.3L2.2,7.3C2.2,7.3,2.2,7.3,2.2,7.3
			C2.2,7.3,2.2,7.3,2.2,7.3z M2.1,7.3L2.1,7.3C2.1,7.3,2.2,7.3,2.1,7.3C2.2,7.3,2.2,7.3,2.1,7.3L2.1,7.3L2.1,7.3
			C2.2,7.3,2.2,7.3,2.1,7.3C2.1,7.3,2.1,7.3,2.1,7.3L2.1,7.3L2.1,7.3C2.1,7.3,2.1,7.3,2.1,7.3z M2.3,7.3C2.3,7.3,2.3,7.3,2.3,7.3
			L2.3,7.3C2.3,7.3,2.3,7.3,2.3,7.3L2.3,7.3L2.3,7.3C2.3,7.3,2.3,7.3,2.3,7.3C2.3,7.3,2.3,7.3,2.3,7.3L2.3,7.3L2.3,7.3
			C2.3,7.3,2.3,7.3,2.3,7.3z M1.9,7.2L1.9,7.2L1.9,7.2C1.9,7.1,1.9,7.1,1.9,7.2C1.9,7.1,1.9,7.1,1.9,7.2C1.9,7.1,1.9,7.1,1.9,7.2
			L1.9,7.2L1.9,7.2C1.9,7.1,1.9,7.1,1.9,7.2C1.9,7.1,1.9,7.2,1.9,7.2C1.9,7.2,1.9,7.2,1.9,7.2z M1.9,7.2L1.9,7.2
			C1.9,7.2,1.9,7.2,1.9,7.2L1.9,7.2C1.9,7.2,1.9,7.2,1.9,7.2C1.9,7.2,1.9,7.1,1.9,7.2L1.9,7.2L1.9,7.2C1.9,7.1,1.9,7.1,1.9,7.2
			C1.9,7.1,1.9,7.1,1.9,7.2C1.9,7.2,1.9,7.2,1.9,7.2L1.9,7.2z M2.1,7.2L2.1,7.2L2.1,7.2C2.1,7.2,2.1,7.2,2.1,7.2
			C2.1,7.2,2.1,7.2,2.1,7.2L2.1,7.2L2.1,7.2C2.2,7.2,2.2,7.2,2.1,7.2C2.2,7.2,2.2,7.2,2.1,7.2z M1.8,7.2L1.8,7.2
			C1.8,7.2,1.8,7.2,1.8,7.2C1.9,7.2,1.9,7.2,1.8,7.2L1.8,7.2L1.8,7.2C1.9,7.2,1.9,7.2,1.8,7.2C1.8,7.2,1.8,7.2,1.8,7.2L1.8,7.2
			L1.8,7.2C1.8,7.2,1.8,7.2,1.8,7.2z M1.8,7.2L1.8,7.2L1.8,7.2C1.8,7.2,1.8,7.2,1.8,7.2C1.8,7.2,1.8,7.2,1.8,7.2L1.8,7.2L1.8,7.2
			C1.8,7.2,1.8,7.2,1.8,7.2C1.8,7.2,1.8,7.2,1.8,7.2z M2,7L2,7L2,7C2,7,2,7,2,7C2,7,2,7,2,7L2,7L2,7C2,7,2,7,2,7L2,7C2,7,2,7,2,7
			C1.9,7,1.9,7,1.9,7v0h0C1.9,7,1.9,7,2,7L2,7C1.9,7,2,7,2,7C2,7,2,7,2,7L2,7C2,7,2,7,2,7C2,7,2,7,2,7C2,7,2,7,2,7z M1.9,7.1
			C1.9,7.1,1.9,7.1,1.9,7.1C1.9,7.1,1.9,7.1,1.9,7.1C1.9,7.1,1.9,7.1,1.9,7.1L1.9,7.1L1.9,7.1C1.9,7.1,1.9,7.1,1.9,7.1
			C1.9,7.1,1.9,7.1,1.9,7.1C1.9,7.1,2,7.1,1.9,7.1L1.9,7.1L1.9,7.1z M2,7.1L2,7.1C2,7.1,1.9,7.1,2,7.1C1.9,7.1,1.9,7.1,2,7.1L2,7.1
			L2,7.1C1.9,7.1,1.9,7.1,2,7.1C1.9,7.1,1.9,7.1,2,7.1C1.9,7.1,2,7.1,2,7.1L2,7.1z M1.2,6.8L1.2,6.8C1.1,6.8,1.1,6.8,1.2,6.8
			L1.2,6.8L1.2,6.8C1.1,6.8,1.1,6.8,1.2,6.8C1.1,6.8,1.1,6.8,1.2,6.8C1.1,6.8,1.1,6.9,1.2,6.8C1,6.9,1,6.9,1,6.9c0,0,0,0,0,0
			c0,0,0,0,0,0c0,0,0-0.1,0-0.1c0,0,0,0,0,0c0,0,0,0,0,0c0,0-0.1-0.1-0.1-0.1c0-0.1,0-0.1,0-0.2C0.9,6.4,1,6.4,1,6.4c0,0,0,0,0,0
			c0,0,0,0,0,0c0,0,0,0,0,0C1,6.4,0.9,6.5,0.9,6.5c0,0,0,0,0,0c0,0,0,0,0,0c0,0,0,0,0,0c0,0,0.1,0,0.1,0c0,0,0.1,0,0.1-0.1
			c0,0,0,0,0,0c0,0,0,0,0,0c0,0,0,0,0.1,0c0,0,0,0,0,0c0,0,0.1,0,0.1,0c0,0,0,0,0,0c0,0,0,0,0,0c0,0,0,0,0,0c0,0,0,0,0,0h0
			c0,0,0,0,0-0.1c0,0,0,0,0,0l0,0c0,0,0,0,0,0c0,0,0,0,0,0v0c0,0,0,0,0,0c0,0,0,0,0,0l0,0c0,0-0.1,0-0.1,0c0.1-0.2,0.3-0.2,0.3-0.2
			c0,0-0.1,0-0.1,0c-0.2,0-0.2,0.2-0.2,0.2c0,0-0.1,0-0.1,0c0,0,0,0,0,0c0-0.1,0.1-0.1,0.2-0.2l0,0c0,0-0.1,0.1-0.2,0.1c0,0,0,0,0,0
			c0,0.1-0.2,0.1-0.2,0.1C1,6.6,1,6.5,1,6.4c0,0,0.1,0,0.1-0.1c0,0,0,0-0.1,0c-0.2,0-0.3,0.2-0.2,0.4c0,0,0.1,0.1,0.2,0.1
			c0,0.1,0,0.1-0.1,0.1c0,0,0,0,0,0h0l0,0l0,0c0,0,0,0,0,0C1,6.9,1,6.9,1.2,6.8C1.1,6.9,1.2,6.8,1.2,6.8C1.1,6.8,1.1,6.8,1.2,6.8z
			 M1.5,6.7C1.5,6.7,1.5,6.7,1.5,6.7C1.5,6.7,1.5,6.7,1.5,6.7C1.5,6.7,1.5,6.6,1.5,6.7c0.1-0.1,0.1-0.1,0.1-0.1l0,0l0,0
			C1.5,6.6,1.5,6.6,1.5,6.7z M1.2,8.4C1.2,8.5,1.2,8.5,1.2,8.4L1.2,8.4C1.2,8.5,1.2,8.5,1.2,8.4C1.1,8.5,1.1,8.5,1.2,8.4
			C1.1,8.5,1.1,8.6,1.1,8.6c0,0,0,0-0.1,0c0,0,0,0,0,0c0,0,0,0,0,0c0,0,0,0,0,0c0,0,0,0,0,0l0,0l0,0c0,0,0,0,0,0c0,0,0,0,0,0
			c0,0,0,0,0,0c0,0-0.1,0-0.1-0.1c0,0,0,0,0,0c0,0,0,0,0,0c0,0,0,0,0,0s0,0,0,0l0,0c0,0,0,0,0-0.1c0,0,0,0,0,0c0,0,0,0,0,0s0,0,0,0
			c0,0,0,0,0,0c0,0,0-0.1,0-0.1c0,0,0,0,0-0.1c0,0,0,0,0,0C0.6,8.2,0.5,8.1,0.5,8c0,0,0-0.1,0-0.1c0,0,0,0,0.1,0c0,0,0-0.1,0.1-0.1
			c0,0,0,0,0,0c0,0,0,0,0,0c-0.1,0-0.1-0.1-0.2-0.1c-0.1-0.1,0-0.2,0-0.3c0,0,0,0,0,0c0,0,0,0-0.1,0c-0.1,0-0.1,0-0.2-0.1
			c0-0.1-0.1-0.1-0.1-0.2c0,0,0,0,0,0c0-0.1,0.1-0.3,0.2-0.4c0,0,0.1,0,0.1,0c0,0,0,0,0,0c0-0.1,0-0.2,0-0.3c0,0,0,0,0,0
			c0.1-0.1,0.1-0.1,0.2-0.1c0,0,0,0,0,0c0,0,0,0,0,0c0,0,0,0,0,0c0,0,0-0.1-0.1-0.1c0,0,0-0.1,0-0.1c0,0,0,0,0.1,0l0,0
			c0,0,0,0,0-0.1c0,0,0,0,0,0l0,0c0,0,0,0,0,0c0,0,0,0,0,0c0,0,0,0,0-0.1s0,0,0-0.1c0,0,0,0,0,0c0,0,0,0,0,0c0,0,0-0.1,0.1-0.1
			c0,0,0,0,0.1,0c0,0,0,0,0,0l0,0c0,0,0,0,0.1,0c0,0,0,0,0,0c0,0,0,0,0.1,0c0,0,0,0,0,0c0,0,0,0,0.1,0c0,0,0,0,0,0c0,0,0,0,0,0h0
			c0,0,0,0,0,0l0,0c0,0,0,0,0,0c0,0,0,0,0,0c0,0,0,0,0,0c0,0,0,0-0.1,0c0,0,0,0,0,0c0,0,0,0,0,0h0c-0.1,0-0.1,0.1-0.1,0.1
			c0,0,0,0,0,0c0,0,0,0,0,0c0,0,0,0,0,0c0,0,0,0,0,0l0,0c0,0,0,0,0,0c0,0,0,0,0,0v0c0,0,0,0,0,0c0,0,0,0,0,0c0,0,0,0,0,0
			c0,0,0,0,0,0c0,0,0,0,0,0c0,0,0,0,0,0l0,0l0,0c0,0,0,0,0,0c0,0,0,0,0,0c0,0,0,0,0.1,0c0,0,0,0,0,0c0,0,0,0,0,0c0,0,0,0,0,0
			c0,0,0.1,0,0.1,0.1c0,0,0,0,0,0c0,0,0,0,0,0c0,0,0.1,0.1,0.1,0.1c0,0,0.1,0,0.1,0c0,0,0.1,0.1,0.1,0.1c0,0,0,0,0,0c0,0,0,0,0,0.1
			c0,0,0,0,0,0c0,0,0,0-0.1-0.1c0,0-0.1-0.1-0.1-0.1c0,0-0.1,0-0.1-0.1c-0.1,0-0.1,0-0.2,0s-0.1,0-0.2,0c0,0,0,0,0,0c0,0,0,0,0,0
			c0,0,0,0,0,0c0,0,0,0,0,0c-0.1,0-0.1,0.1-0.1,0.1c0,0-0.1,0.1-0.1,0.2s0,0.1,0,0.2c0,0,0,0,0,0c0,0,0,0,0,0c0,0,0,0,0,0.1
			c0,0,0,0.1,0,0.1c0,0,0,0,0,0c0,0,0,0,0,0c0,0,0,0,0,0c0,0,0,0,0,0c0,0,0,0,0,0c0,0,0,0,0,0c0,0,0,0,0,0l0,0C0.9,7,0.9,7,1,7
			c0,0,0,0,0,0c0,0,0,0,0,0c0.1,0,0.2,0,0.2,0c0,0,0,0,0,0V7C1.1,7,1.1,7,1,7c0,0,0,0,0,0c0.1,0,0.1,0.1,0.1,0.1v0.1c0,0,0,0,0-0.1
			c0,0,0,0-0.1-0.1c0,0-0.1,0-0.1,0c0,0,0,0,0,0l0,0c0,0-0.1,0-0.1,0c0,0,0,0,0,0l0,0c0,0,0,0,0,0c0,0,0,0,0,0c0,0,0,0,0,0
			c0,0,0,0,0,0h0c0,0,0,0,0,0h0c0,0,0,0,0,0l0,0c0,0,0,0,0,0c0,0,0,0,0,0c0,0,0,0,0,0c0,0,0,0,0,0c0,0,0,0,0,0c0,0,0,0,0,0l0,0h0
			c0,0,0,0,0,0l0,0h0l0,0c0,0,0,0,0,0l0,0l0,0l0,0l0,0l0,0c0,0,0,0,0,0c0,0,0,0-0.1,0c0,0,0,0,0,0c0,0,0,0,0,0c0,0,0,0,0,0s0,0,0,0
			c0,0,0,0,0,0c0,0,0,0,0,0c0,0,0,0,0,0c0,0,0,0,0,0s0,0,0,0l0,0c0,0,0,0,0,0l0,0c0,0,0,0,0,0c0,0,0-0.1,0-0.1c0,0,0-0.1,0.1-0.1
			c0,0,0,0,0,0c0,0,0,0,0,0c0,0,0,0,0,0c0,0,0,0,0,0c0,0,0.1-0.1,0.1-0.1c0.1,0,0.2,0.2,0.2,0.3c0,0,0,0,0,0c0,0,0,0,0-0.1
			C1,7.3,0.9,7.3,1,7.3c0,0-0.1,0.1,0,0.2c0,0,0,0,0,0c0,0.1,0,0.1,0,0.2v0c0,0,0-0.1,0-0.2c0,0,0,0,0,0c0,0,0,0,0,0c0,0,0,0,0,0.1
			c0,0,0,0,0,0c0,0,0,0,0,0c0,0.1,0,0.2,0,0.2l0,0c0,0,0,0,0-0.1c0,0,0-0.1,0-0.1c0,0,0,0,0,0c0,0-0.1,0-0.1,0c0,0.1,0,0.1-0.1,0.1
			c0,0-0.1,0-0.1,0c0,0,0.1,0,0.1-0.1c0,0,0-0.1,0-0.1c0,0,0,0.1,0,0.1c0,0-0.1,0-0.1,0c-0.1,0-0.1-0.1-0.1-0.1c0,0,0-0.1,0-0.1
			c0,0,0,0.1,0,0.1c0,0,0.1,0,0.1,0.1c0-0.1,0.1-0.2,0.2-0.2c0,0,0,0,0,0l0,0l0,0c0,0,0,0,0,0c0,0,0,0,0,0c0,0-0.1-0.1-0.1-0.1
			c0,0,0,0-0.1,0c-0.1,0-0.2,0-0.2,0.1c0,0,0,0,0,0c0,0.1-0.1,0.2,0,0.2c0,0,0.1,0.1,0.1,0.1c0,0,0,0,0,0c0,0,0.1,0.1,0.2,0.1h0l0,0
			l0,0l0,0c0,0,0,0,0,0c0,0,0,0,0.1,0c0,0,0.1,0,0.1,0c0,0,0.1,0,0.1,0c0,0,0,0,0,0c0,0,0,0,0,0.1c-0.1,0-0.1,0.1-0.2,0.1
			c0,0,0,0,0,0c0,0,0,0,0,0c0,0,0.1,0,0.2-0.1l0,0c0,0.1-0.1,0.1-0.1,0.1C0.8,7.9,0.8,8,0.8,8c0,0,0.1,0,0.1,0c0,0,0,0,0.1,0
			c0,0,0,0,0,0c0,0.1-0.2,0.1-0.3,0c0,0,0-0.1,0-0.1c0,0,0,0,0,0c0,0,0,0,0,0c0,0,0,0,0,0c0,0,0,0,0,0c0,0,0-0.1,0-0.1
			c0,0,0.1,0,0.1,0c0,0-0.1-0.1-0.1,0c0,0-0.1,0.1-0.1,0.1c0,0,0,0,0,0c0,0,0,0.1,0,0.1c0,0.1,0.1,0.1,0.1,0.1c0,0,0,0,0.1,0
			c0,0,0,0.1-0.1,0.1c0,0.1,0,0.1,0,0.2c0,0,0,0,0,0c0,0,0,0,0,0v0c0,0,0,0,0,0c0,0,0,0,0,0v0c0,0,0,0,0,0.1c0,0,0,0,0,0.1
			c0,0,0.1,0.1,0.1,0.1c0,0,0-0.1,0-0.1l0,0c0,0.1,0,0.1,0.1,0.2c0,0,0,0,0.1,0c0,0-0.1,0-0.1-0.1c0,0,0.1,0.1,0.1,0
			C1.1,8.5,1.1,8.4,1.2,8.4c-0.1-0.1-0.1,0-0.1,0C1,8.5,0.9,8.4,0.9,8.3c0,0,0-0.1,0.1-0.1l0,0c0,0,0,0,0,0C1.1,8,1.1,7.8,1.1,7.7
			c0,0,0,0,0,0l0,0c0,0,0-0.1,0.1-0.1v0.1l0,0c0,0,0,0,0,0c0,0,0,0,0,0c0,0.1,0,0.3-0.1,0.4l0,0c0,0,0,0,0,0c0,0,0,0,0,0
			C0.9,8.2,0.9,8.2,0.9,8.2C0.9,8.3,1,8.4,1,8.4c0,0,0,0,0,0c0,0,0,0,0,0C1.1,8.4,1.1,8.4,1.2,8.4C1.2,8.4,1.2,8.4,1.2,8.4
			C1.2,8.4,1.2,8.4,1.2,8.4L1.2,8.4C1.2,8.4,1.2,8.4,1.2,8.4C1.2,8.4,1.2,8.4,1.2,8.4z M0.8,8.1C0.8,8.1,0.8,8.1,0.8,8.1
			C0.8,8.1,0.8,8.1,0.8,8.1L0.8,8.1C0.8,8.1,0.8,8.1,0.8,8.1C0.8,8.1,0.8,8.1,0.8,8.1C0.8,8,0.8,8,0.8,8.1C0.8,8.1,0.8,8.1,0.8,8.1z
			 M0.7,7.9C0.7,7.9,0.7,7.9,0.7,7.9C0.7,7.9,0.7,7.9,0.7,7.9C0.7,7.9,0.7,7.9,0.7,7.9C0.7,8,0.7,8,0.7,7.9c0,0.1,0,0.1,0,0.1
			c0,0,0,0,0,0c0,0,0,0,0,0C0.7,8,0.7,8,0.7,7.9C0.8,7.9,0.8,7.9,0.7,7.9L0.7,7.9C0.8,7.9,0.8,7.9,0.7,7.9C0.8,7.9,0.8,7.9,0.7,7.9
			C0.7,7.9,0.7,7.9,0.7,7.9C0.7,7.9,0.7,7.9,0.7,7.9C0.7,7.9,0.7,7.9,0.7,7.9L0.7,7.9z M0.7,7.7C0.7,7.7,0.7,7.7,0.7,7.7
			C0.7,7.7,0.7,7.7,0.7,7.7C0.7,7.7,0.7,7.7,0.7,7.7z M0.9,7.5C0.8,7.5,0.8,7.5,0.9,7.5C0.8,7.5,0.8,7.5,0.9,7.5
			C0.8,7.5,0.8,7.5,0.9,7.5c0-0.1-0.1-0.1-0.1-0.1c0,0,0,0,0,0c-0.1,0-0.1,0-0.1,0.1c0,0,0,0,0,0.1c0,0,0,0,0,0c0,0,0,0,0,0
			c0,0,0,0,0,0l0,0c0,0,0,0,0,0c0,0,0,0,0.1,0.1c0,0,0,0,0,0s0,0,0,0c0,0,0,0,0,0c0,0,0,0,0,0c0,0,0,0,0,0c0,0,0,0,0,0
			c0,0,0.1,0,0.1,0c0,0,0,0,0,0C0.8,7.6,0.8,7.6,0.9,7.5L0.9,7.5L0.9,7.5C0.8,7.6,0.8,7.6,0.9,7.5C0.8,7.6,0.8,7.6,0.9,7.5
			C0.8,7.6,0.8,7.6,0.9,7.5L0.9,7.5C0.8,7.5,0.8,7.5,0.9,7.5C0.9,7.5,0.9,7.5,0.9,7.5z M0.8,7.3L0.8,7.3C0.8,7.3,0.8,7.3,0.8,7.3
			c0.1,0,0.1,0.1,0.1,0.1c0,0,0,0,0,0c0,0,0-0.1,0.1-0.1c0,0,0,0,0,0c0,0,0,0,0,0l0,0c0,0,0,0,0,0c0,0,0,0,0,0.1c0,0,0-0.1,0-0.1
			c0,0,0-0.1-0.1-0.1h0c0,0-0.1,0-0.1,0c0,0,0,0,0,0C0.9,7.3,0.9,7.3,0.8,7.3C0.8,7.3,0.8,7.3,0.8,7.3C0.8,7.3,0.8,7.3,0.8,7.3
			C0.8,7.3,0.8,7.3,0.8,7.3C0.8,7.3,0.8,7.3,0.8,7.3C0.7,7.3,0.8,7.3,0.8,7.3z M0.7,7C0.7,7,0.7,7,0.7,7C0.6,7,0.5,6.9,0.5,6.8
			c0,0,0,0,0,0c0,0,0,0,0,0c0,0,0,0,0,0.1v0c0,0,0,0.1,0,0.1c0,0,0,0,0,0c0,0,0,0,0,0c0,0,0,0,0,0c0,0,0,0,0,0c0,0.1,0,0.1,0,0.2
			c0,0,0,0,0,0c0,0,0,0,0,0c0,0,0,0,0,0c0,0,0,0,0,0c0,0,0,0,0,0c0,0,0,0,0,0c0,0,0,0,0,0c0,0,0,0,0,0c0,0,0,0,0,0
			C0.6,7.1,0.6,7.1,0.7,7C0.6,7.1,0.7,7,0.7,7z M0.6,7.3C0.6,7.3,0.7,7.3,0.6,7.3C0.6,7.2,0.6,7.3,0.6,7.3c0-0.1,0.1-0.2,0-0.2
			c0,0-0.1-0.1-0.1,0c0,0,0,0,0,0c0,0,0,0,0,0.1C0.5,7.2,0.5,7.2,0.6,7.3C0.5,7.2,0.5,7.2,0.5,7.2c0,0,0,0,0,0c0,0,0,0,0,0
			c0,0-0.1,0.1-0.1,0.1c-0.1,0-0.2-0.1-0.2-0.2c0,0,0,0,0,0c0,0,0,0,0,0.1c0,0,0.1,0.1,0.1,0.1c0,0,0,0,0,0c0,0,0.1-0.1,0-0.1
			c0,0,0,0,0-0.1c0,0-0.1-0.1,0-0.2l0,0c0,0,0,0,0,0.1c0,0,0,0.1,0,0.1c0,0,0,0,0,0c0,0,0,0,0,0c0,0,0-0.1,0-0.1c0,0,0,0,0,0
			c0,0,0,0,0,0.1C0.5,7,0.7,7,0.7,7l0,0c0,0-0.1,0-0.1,0c0,0,0-0.1,0-0.1c0,0,0,0,0-0.1c0,0,0,0,0-0.1c0,0,0,0,0,0c0,0,0,0,0,0
			c0,0,0,0,0,0c0,0,0,0,0,0c0,0,0,0.1,0,0.1c0,0-0.1,0-0.1,0c0,0-0.1-0.1,0-0.1c0,0,0.1-0.1,0.1-0.1c0,0,0,0,0-0.1
			c0-0.1,0.1-0.1,0.1-0.1l0,0c0,0-0.1,0.1-0.1,0.1c0,0.1,0,0.1,0,0.1c0,0,0-0.1,0-0.1c0,0,0,0,0,0c0-0.1,0.1-0.1,0.1-0.2
			c0,0,0.1-0.1,0.1-0.1c0,0,0,0,0,0c0,0,0,0,0,0c0,0,0,0,0,0c0,0,0,0,0,0c0.1,0,0.1,0,0.2,0c0,0,0,0,0,0c0.1,0,0.2,0,0.2,0
			c0,0-0.1,0-0.1-0.1l0,0c0,0-0.1-0.1-0.1-0.1c0,0-0.2,0-0.2,0c0,0,0,0.1,0,0.1c0,0,0.1,0,0.1,0l0,0c0,0-0.1,0-0.1,0c0,0,0,0,0,0
			c0,0,0,0-0.1,0C0.9,6,1,6,1,6v0c0,0,0,0,0,0c0,0,0,0.1,0,0.1C0.8,6.1,0.8,5.8,1,5.8c0,0,0.1,0,0.1,0l0,0c0,0,0,0,0,0l0,0l0,0
			c0,0,0,0,0,0s0,0,0,0l0,0c0,0,0,0,0,0c0,0,0,0,0,0c0,0-0.1-0.1-0.1-0.1c-0.1,0-0.1,0.1-0.1,0.1c0,0,0-0.1,0-0.1c0,0,0,0-0.1,0
			c0,0-0.1,0.2,0,0.2h0c0,0,0,0,0-0.1c0,0,0,0,0,0c0,0,0,0.1,0,0.1c0,0,0,0,0,0c0,0,0,0.1,0,0.1c0,0,0,0,0,0l0,0c0,0,0,0,0,0v0
			c0,0,0,0,0,0c0,0,0,0,0,0c0,0,0,0,0,0c0,0,0,0,0,0c0,0,0,0,0,0c0,0,0,0.1,0.1,0.2c0,0,0,0,0.1,0.1c0,0-0.1,0-0.1,0
			c-0.1,0-0.1,0.1-0.2,0.1c-0.1,0.1-0.1,0.3,0,0.3c0,0,0,0,0,0c-0.1,0-0.1,0-0.2,0C0.2,6.8,0.1,7,0.1,7.1c0,0.1,0.1,0.2,0.2,0.3
			C0.4,7.4,0.5,7.4,0.6,7.3z M0.5,6.6C0.5,6.6,0.5,6.6,0.5,6.6C0.5,6.6,0.5,6.6,0.5,6.6C0.5,6.6,0.5,6.6,0.5,6.6
			C0.5,6.6,0.5,6.7,0.5,6.6C0.5,6.7,0.5,6.7,0.5,6.6C0.5,6.7,0.5,6.7,0.5,6.6L0.5,6.6C0.5,6.7,0.5,6.7,0.5,6.6L0.5,6.6
			C0.5,6.7,0.5,6.7,0.5,6.6L0.5,6.6C0.5,6.7,0.6,6.6,0.5,6.6C0.6,6.6,0.5,6.6,0.5,6.6C0.5,6.6,0.5,6.6,0.5,6.6
			C0.5,6.6,0.5,6.6,0.5,6.6L0.5,6.6z M0.3,7.2C0.3,7.2,0.3,7.2,0.3,7.2C0.3,7.1,0.3,7.1,0.3,7.2C0.3,7.1,0.3,7.2,0.3,7.2
			C0.3,7.2,0.3,7.2,0.3,7.2C0.3,7.2,0.3,7.2,0.3,7.2z M1.6,7.8C1.6,7.8,1.6,7.8,1.6,7.8C1.6,7.8,1.6,7.8,1.6,7.8
			C1.6,7.8,1.6,7.8,1.6,7.8z M1.6,7.7C1.6,7.7,1.6,7.8,1.6,7.7C1.7,7.7,1.7,7.7,1.6,7.7C1.6,7.7,1.6,7.7,1.6,7.7z M2.5,7.8
			C2.5,7.9,2.5,7.9,2.5,7.8L2.5,7.8C2.5,7.9,2.5,7.9,2.5,7.8c-0.1,0-0.1,0-0.1,0c0,0,0,0,0,0c0,0,0,0,0,0c0,0,0,0,0,0c0,0,0,0-0.1,0
			l0,0c0,0,0,0,0,0c0,0,0,0,0,0l0,0c0,0,0,0,0,0h0c0,0,0,0,0,0c0,0,0,0,0,0c0,0,0,0,0,0l0,0c0,0,0,0,0,0c0,0,0,0,0,0l0,0
			c0,0,0,0,0,0l0,0l0,0c0,0,0,0,0,0l0,0c0,0,0,0,0,0l0,0c0,0,0,0,0,0c0,0,0,0,0,0c0,0,0,0,0,0C2.4,7.9,2.4,7.9,2.5,7.8
			C2.4,7.9,2.4,7.9,2.5,7.8L2.5,7.8L2.5,7.8L2.5,7.8C2.4,7.9,2.4,7.9,2.5,7.8L2.5,7.8C2.4,7.9,2.4,7.9,2.5,7.8L2.5,7.8L2.5,7.8
			L2.5,7.8L2.5,7.8L2.5,7.8L2.5,7.8C2.4,7.9,2.4,7.9,2.4,7.9l0,0c0,0,0,0,0,0c0,0,0,0,0,0.1c0,0,0,0,0,0c0,0,0,0,0,0c0,0,0,0,0,0
			c0,0,0,0,0,0l0,0l0,0c0,0,0,0,0,0c0,0,0,0-0.1,0c0,0,0,0,0,0c0,0,0,0,0,0c0,0,0,0,0,0c0,0,0,0,0,0c0,0,0,0,0,0c0,0,0,0,0,0
			c0,0,0,0,0,0c0,0,0,0,0,0c0,0,0,0,0,0c0,0-0.1,0.1-0.1,0.1l0,0c0,0,0,0,0,0c0,0,0,0,0,0c0,0,0,0,0,0c0,0,0,0,0,0c0,0,0,0,0,0
			c0,0,0,0,0,0c0,0,0,0,0,0h0c0,0,0,0,0,0c0,0,0,0,0,0c0,0,0,0,0,0c0,0,0,0,0,0c0,0,0,0,0,0c0,0,0,0,0,0c0,0,0,0,0,0c0,0,0,0,0,0
			c0,0,0,0,0,0c0,0,0,0,0,0c0,0,0,0,0,0c0,0,0,0,0,0c0,0,0,0,0,0c0,0,0,0,0,0c0,0,0,0,0,0h0c0,0,0,0,0,0c0,0,0,0,0,0c0,0,0,0,0,0
			c0,0,0,0,0,0c0,0,0,0,0,0c0,0,0,0,0,0c0,0,0,0,0,0l0,0c0,0,0,0,0,0c0,0,0,0,0,0l0,0l0,0c0,0,0,0-0.1,0c0,0,0,0,0,0c0,0,0,0,0,0
			c0,0,0,0,0,0l0,0c0,0,0,0,0,0c0,0,0,0,0,0l0,0c0,0,0,0,0,0c0,0,0-0.1,0-0.1c0,0,0,0,0,0c0,0,0,0,0,0c0,0,0,0,0,0h0
			c0,0-0.1,0-0.1,0c0,0,0,0,0,0c0,0,0,0,0,0c0,0,0,0,0,0c0,0,0,0,0,0c0,0,0,0,0,0c0,0,0,0,0,0c0,0,0,0,0,0c0,0,0,0,0,0c0,0,0,0,0,0
			c0,0,0,0,0,0c0,0,0,0,0,0c0,0,0,0,0,0c0,0,0,0,0,0c0,0,0,0,0,0c0,0,0,0,0,0c0,0,0,0,0,0s0,0,0,0c0,0,0,0,0,0c0,0,0,0,0,0
			c0,0,0,0,0,0c0,0,0,0,0.1,0c0,0,0,0,0,0c0,0,0,0,0,0c0,0,0,0,0,0c0,0,0,0,0,0c0,0,0,0,0,0l0,0l0,0l0,0l0,0v0l0,0c0,0,0,0,0,0l0,0
			c0,0,0,0,0,0l0,0c0,0,0,0,0,0l0,0v0c0,0,0,0,0,0v0c0,0,0,0,0,0s0,0,0,0c0,0,0,0,0,0v0c0,0,0,0,0,0v0v0v0l0,0c0,0,0,0,0,0
			c0,0,0,0,0,0.1c0,0,0,0,0,0c0,0,0,0,0,0c0,0,0,0,0,0l0,0c0,0,0,0,0,0l0,0l0,0c0,0,0,0,0,0c0,0,0-0.1,0-0.2l0,0l0,0c0,0,0,0,0,0
			l0,0c0,0,0,0,0,0c0,0,0,0,0,0c0,0,0.1,0,0.1,0c0,0,0.1,0,0.1,0c0,0,0,0,0.1,0c0,0,0,0,0,0.1c0,0,0,0,0,0l0,0c0,0,0,0,0,0
			c0,0,0,0,0,0c0,0,0,0.1,0,0.1c0,0,0,0,0,0c0,0,0,0,0,0c0,0,0,0,0.1,0c0,0,0-0.1,0-0.1v0c0,0,0,0,0,0l0,0c0,0,0,0,0,0
			c0,0,0,0,0-0.1c0,0,0,0,0,0c0,0,0,0,0,0c0,0,0,0,0,0c0,0,0,0,0,0l0,0c0,0,0,0,0,0c0,0,0,0,0.1,0c0,0,0,0,0,0c0,0,0,0,0,0
			c0,0,0,0,0,0C2.4,7.8,2.5,7.8,2.5,7.8L2.5,7.8C2.5,7.8,2.5,7.8,2.5,7.8z M1.7,7.8C1.7,7.8,1.7,7.8,1.7,7.8L1.7,7.8
			C1.6,7.8,1.6,7.8,1.7,7.8L1.7,7.8C1.6,7.8,1.6,7.8,1.7,7.8L1.7,7.8C1.6,7.8,1.6,7.8,1.7,7.8C1.6,7.8,1.6,7.8,1.7,7.8L1.7,7.8
			c-0.1,0-0.1,0-0.1,0l0,0l0,0c0,0,0,0,0,0c0,0,0,0,0,0l0,0l0,0c0,0,0,0,0,0c0,0,0,0,0,0c0,0,0,0,0,0l0,0v0c0,0,0,0,0,0c0,0,0,0,0,0
			c0,0,0,0,0,0C1.5,7.8,1.6,7.8,1.7,7.8L1.7,7.8C1.6,7.8,1.6,7.8,1.7,7.8C1.6,7.8,1.6,7.9,1.7,7.8C1.6,7.8,1.6,7.8,1.7,7.8
			C1.6,7.8,1.6,7.8,1.7,7.8L1.7,7.8C1.7,7.8,1.7,7.8,1.7,7.8L1.7,7.8C1.7,7.8,1.7,7.8,1.7,7.8z M2.2,7.9c0,0-0.1,0-0.1,0
			c0,0,0,0,0,0c0,0,0,0,0,0c0,0,0,0,0,0l0,0l0,0c0,0,0,0,0,0c0,0,0,0,0,0C2,8,2,8,2,8S2,8,2,8c0,0,0,0,0,0l0,0c0,0,0.1-0.1,0.1-0.1
			l0,0c0,0,0,0,0-0.1c0,0,0,0,0,0l-0.1,0c0,0,0.1,0,0.1,0L2,7.8c0.1,0,0.1,0,0.1-0.1l0,0c0,0-0.1,0-0.1,0c-0.1,0-0.1,0-0.1,0.1
			c0,0,0,0,0,0c0,0,0,0.1,0,0.2c0,0,0,0,0,0l0,0l0,0c0,0,0,0,0,0c0,0,0,0,0,0l0,0c0,0,0,0,0,0c0,0,0,0,0,0l0,0c0,0,0,0,0,0
			c0,0,0,0,0,0l0,0c0,0,0,0,0,0c0,0,0,0,0-0.1c0,0,0,0,0-0.1c0,0,0,0,0,0c0,0,0,0,0,0s0,0,0,0l0,0l0,0l0,0l0,0c0,0,0,0,0,0l0,0l0,0
			l0,0l0,0c0,0,0,0,0,0v0c0,0,0,0,0,0c0,0,0,0,0,0c0,0,0,0,0,0c0,0,0,0,0,0c0,0,0,0,0,0c0,0,0,0,0,0s0,0,0,0c0,0,0,0,0,0h0h0h0
			c0,0,0,0,0,0l0,0c0,0,0,0,0,0l0,0l0,0c0,0,0,0,0,0l-0.1,0c0,0,0,0,0,0c0,0-0.1,0-0.1,0c0,0,0,0,0,0c0,0-0.1,0-0.1,0c0,0,0,0,0,0
			l0,0c0,0,0,0,0,0c0,0,0,0,0,0c0,0,0.1,0,0.1,0c0,0,0.1,0,0.1,0s0,0,0,0.1c0,0,0,0,0,0c0,0,0,0,0,0.1c0,0,0,0,0,0c0,0,0,0,0,0
			c0,0,0,0,0,0s0,0,0,0c0,0,0,0,0,0c0,0,0,0,0,0c0,0,0,0,0.1,0c0,0,0,0,0,0l0,0.1l0,0c0,0,0,0,0,0c0,0,0,0,0,0c0,0,0,0,0,0
			c0,0,0,0,0,0c0,0,0,0,0,0c0,0,0,0,0,0c0,0,0,0,0,0l0,0l0,0c0,0,0,0,0,0c0,0,0,0,0,0c0,0,0,0,0,0c0,0,0,0,0,0c0,0,0,0,0,0
			c0,0,0,0,0,0c0,0,0,0,0,0l0,0l0,0c0,0,0,0,0,0s0,0,0,0c0,0,0,0,0,0c0,0,0,0,0,0c0,0,0,0,0,0h0c0,0,0,0,0,0c0,0,0,0,0,0l0,0l0,0
			c0,0,0,0,0,0c0,0,0,0,0,0c0,0,0,0,0,0c0,0,0,0,0,0c0,0,0,0,0,0c0,0,0,0,0,0c0,0,0,0,0,0l0,0c0,0,0.1-0.1,0.1-0.1h0h0h0
			c0,0,0-0.1,0-0.1c0,0,0,0,0,0C1.9,8,2,8,2,8s0,0,0,0c0,0,0,0,0,0c0,0,0,0,0,0.1l0,0l0,0.1l0,0c0,0,0,0,0,0c0,0,0,0,0,0
			c0,0,0,0,0,0c0,0,0,0,0,0c0,0,0,0,0,0c0,0,0,0,0,0c0,0,0,0,0,0l0,0l0,0c0,0,0,0,0,0c0,0,0,0,0,0c0,0,0,0,0,0c0,0,0,0,0,0
			c0,0,0,0,0,0c0,0,0,0,0,0c0,0,0,0,0,0l0,0l0,0c0,0,0,0,0,0s0,0,0,0c0,0,0,0,0,0c0,0,0,0,0,0c0,0,0,0,0,0h0c0,0,0,0,0,0
			c0,0,0,0,0,0l0,0l0,0c0,0,0,0,0,0c0,0,0,0,0,0c0,0,0,0,0,0c0,0,0,0,0,0c0,0,0,0,0,0c0,0,0,0,0,0c0,0,0,0,0,0l0,0c0,0,0-0.1,0-0.1
			c0,0,0,0,0,0c0,0,0,0,0,0c0,0,0,0,0,0c0,0,0,0,0,0c0,0,0,0,0,0c0,0,0,0,0.1,0c0,0,0,0,0,0c0,0,0,0,0,0s0,0,0,0c0,0,0,0,0.1-0.1
			C2.3,8,2.3,8,2.2,7.9C2.3,7.9,2.3,7.9,2.2,7.9C2.3,7.9,2.3,7.9,2.2,7.9C2.3,7.9,2.3,7.9,2.2,7.9C2.3,8,2.3,8,2.2,7.9
			C2.3,8,2.3,8,2.2,7.9C2.3,8,2.3,8,2.2,7.9C2.3,8,2.3,8,2.3,8C2.3,8,2.3,8,2.2,7.9c0,0.1,0,0.1,0,0.1c0,0,0,0,0,0c0,0,0,0,0,0
			c0,0,0,0,0,0c0,0,0,0,0,0c0,0,0,0,0,0c0,0,0,0,0,0c0,0,0,0,0,0c0,0,0,0,0,0c0,0,0,0,0,0c0,0,0,0,0,0v0v0c0,0,0,0,0,0s0,0,0,0
			c0,0,0,0,0,0c0,0,0,0,0,0c0,0,0,0,0,0c0,0,0,0,0,0C2.4,7.9,2.3,7.9,2.2,7.9C2.3,7.9,2.3,7.9,2.2,7.9C2.3,7.9,2.3,7.9,2.2,7.9z
			 M2,8.2C2,8.2,2,8.2,2,8.2C2,8.2,2,8.2,2,8.2L2,8.2C1.9,8.2,2,8.2,2,8.2L2,8.2z M2.5,7.8C2.5,7.8,2.4,7.8,2.5,7.8
			C2.4,7.8,2.4,7.8,2.5,7.8C2.4,7.8,2.4,7.8,2.3,7.7c0,0,0,0,0,0c0,0,0,0,0,0c0,0,0,0,0,0s0,0,0,0s0,0,0,0c0,0,0,0,0,0s0,0,0,0.1
			c0,0,0,0,0,0c0,0,0,0,0,0l0,0v0v0l0,0l0,0l0,0l0,0c0,0,0,0,0,0l0,0v0c0,0,0,0,0,0c0,0,0,0,0,0l0,0l0,0c0,0,0,0,0,0v0l0,0l0,0l0,0
			l0,0l0,0c0,0,0,0,0,0c0,0,0,0,0,0c0,0,0,0,0,0c0,0,0,0,0,0c0,0,0,0,0,0s0,0,0,0c0,0,0,0,0,0c0,0,0,0,0,0c0,0,0,0,0,0l0,0l0,0
			C2.3,7.8,2.4,7.8,2.5,7.8c-0.1,0-0.1,0-0.1,0C2.4,7.8,2.4,7.8,2.5,7.8z M1.9,7.9L1.9,7.9C1.9,7.9,1.9,7.9,1.9,7.9
			c0-0.1,0-0.1,0-0.1c0,0,0,0,0,0c0,0,0,0,0-0.1l0,0c0,0,0,0-0.1,0c0,0,0,0,0,0.1c0,0,0,0,0,0l0,0c0,0,0,0,0,0l0,0l0,0
			C1.9,7.8,1.9,7.9,1.9,7.9L1.9,7.9z M2.1,6.3c0,0,0-0.1,0-0.1L2.1,6.3C2.2,6.2,2.2,6.3,2.1,6.3c0.1,0.1,0,0.1,0,0.2
			C2.1,6.4,2.1,6.4,2.1,6.3z M2.2,6.2C2.2,6.2,2.2,6.3,2.2,6.2c0,0.1,0,0.1,0,0.1C2.2,6.3,2.2,6.3,2.2,6.2C2.2,6.3,2.2,6.2,2.2,6.2
			L2.2,6.2z M1.9,6.5c-0.1,0-0.1-0.1-0.1-0.2c0,0,0-0.1,0-0.1l0.1,0c0,0,0,0.1,0,0.1C1.8,6.4,1.8,6.4,1.9,6.5z M1.8,6.3
			C1.8,6.3,1.8,6.2,1.8,6.3L1.8,6.3C1.8,6.2,1.8,6.3,1.8,6.3C1.8,6.3,1.8,6.3,1.8,6.3C1.8,6.3,1.8,6.3,1.8,6.3z M1.8,6.2l0.1,0v0.3
			c0,0-0.1,0-0.1,0c0,0-0.1-0.1-0.1-0.2C1.8,6.3,1.8,6.2,1.8,6.2z M1.9,6.3c0,0.1,0,0.1,0,0.2c0,0,0,0,0,0L1.9,6.3L1.9,6.3
			C1.9,6.2,1.9,6.3,1.9,6.3z M2.1,6.5C2.1,6.5,2,6.5,2.1,6.5L2,6.2l0.1,0c0,0,0,0.1,0,0.1C2.1,6.4,2.1,6.4,2.1,6.5z M2.1,6.5
			c0,0,0-0.1,0-0.2c0,0,0-0.1,0-0.1L2,6.2L2.1,6.5C2,6.5,2,6.5,2.1,6.5z M2,6.8C2,6.8,2,6.8,2,6.8C2,6.7,2,6.7,2,6.7
			C2,6.7,1.9,6.7,2,6.8C1.9,6.8,2,6.8,2,6.8z M2.7,6.6c0,0,0-0.2-0.2-0.2c0,0-0.1,0-0.1,0C2.3,6.4,2.6,6.3,2.7,6.6c0,0-0.1,0-0.1,0
			l0,0c0,0,0,0,0,0c0,0,0,0,0,0v0c0,0,0,0,0,0C2.6,6.6,2.6,6.6,2.7,6.6L2.7,6.6C2.6,6.6,2.6,6.6,2.7,6.6C2.6,6.7,2.6,6.7,2.6,6.7h0
			C2.6,6.7,2.6,6.7,2.7,6.6C2.6,6.7,2.6,6.7,2.7,6.6C2.6,6.6,2.6,6.6,2.7,6.6C2.6,6.6,2.6,6.6,2.7,6.6C2.7,6.6,2.7,6.6,2.7,6.6
			L2.7,6.6c0.1,0,0.1,0,0.1,0c0,0,0,0,0,0c0,0,0,0,0,0c0,0,0.1,0.1,0.1,0.1c0,0,0.1,0,0.1,0c0,0,0,0,0,0c0,0,0,0,0,0c0,0,0,0,0,0
			c0,0,0-0.1-0.1-0.1c0,0,0,0,0,0c0,0,0,0,0,0c0,0,0,0,0,0c0.1,0,0.2,0.1,0.2,0.2c0,0,0,0.1,0,0.2c0,0-0.1,0.1-0.1,0.1c0,0,0,0,0,0
			c0,0,0,0,0,0c0,0,0,0.1,0,0.1c0,0,0,0,0,0c0,0,0,0,0,0c0,0,0,0,0,0c0,0,0,0,0,0c0,0,0,0,0-0.1c0,0,0,0-0.1,0l0,0l0,0c0,0,0,0,0,0
			v0.1c0,0,0,0,0,0c-0.1,0,0,0.1,0,0.1c0,0,0.1,0,0.1,0c0,0,0,0,0,0l0,0l0,0c0,0,0,0,0,0c0,0,0,0,0,0c0,0-0.1,0-0.1-0.1
			c0,0,0.1,0,0.2-0.1c0.1-0.1-0.1-0.4-0.2-0.4c0,0-0.1,0-0.1,0c0,0,0.1,0,0.1,0.1C3,6.5,3,6.6,3,6.6c0,0-0.2,0-0.2-0.1c0,0,0,0,0,0
			c0-0.1-0.1-0.1-0.2-0.1l0,0c0,0,0.1,0.1,0.2,0.2c0,0,0,0,0,0C2.8,6.6,2.7,6.6,2.7,6.6z M2.4,6.6C2.4,6.6,2.4,6.6,2.4,6.6L2.4,6.6
			L2.4,6.6C2.4,6.6,2.5,6.6,2.4,6.6C2.4,6.7,2.4,6.7,2.4,6.6C2.4,6.7,2.4,6.7,2.4,6.6C2.4,6.6,2.4,6.6,2.4,6.6z M3.8,7.1L3.8,7.1
			c0,0.1,0,0.1-0.1,0.2c0,0.1-0.1,0.1-0.2,0.1c0,0,0,0-0.1,0c0,0,0,0,0,0c0.1,0.1,0.1,0.2,0,0.3c0,0.1-0.1,0.1-0.2,0.1c0,0,0,0,0,0
			c0,0,0,0,0,0c0,0,0.1,0,0.1,0.1c0,0,0,0,0.1,0c0,0,0,0.1,0,0.1c0,0.1-0.1,0.1-0.2,0.2c0,0,0,0,0,0c0,0,0,0,0,0.1c0,0,0,0.1,0,0.1
			c0,0,0,0,0,0c0,0,0,0,0,0s0,0,0,0c0,0,0,0,0,0c0,0,0,0,0,0.1l0,0c0,0,0,0,0,0c0,0,0,0,0,0c0,0,0,0,0,0c0,0,0,0,0,0
			c0,0-0.1,0-0.1,0.1c0,0,0,0,0,0c0,0,0,0,0,0c0,0,0,0,0,0l0,0l0,0c0,0,0,0,0,0c0,0,0,0,0,0c0,0,0,0,0,0c0,0,0,0,0,0c0,0,0,0-0.1,0
			c0,0,0,0,0-0.1c0,0,0,0,0,0c0,0,0,0,0,0l0,0c0,0,0,0,0,0c0,0,0,0,0,0s0,0,0,0l0,0c0,0,0,0,0,0c0,0,0,0,0,0c0,0,0,0,0.1,0
			c0,0,0,0,0,0c0,0,0,0,0,0c0.1,0,0.1-0.1,0.1-0.2c0,0,0-0.1-0.1-0.1c0,0,0,0,0,0c0,0,0,0,0,0l0,0C2.8,8,2.8,7.9,2.8,7.7
			c0,0,0,0,0,0c0,0,0,0,0,0l0,0V7.6c0,0,0,0.1,0.1,0.1l0,0c0,0,0,0,0,0c0,0.1,0,0.3,0.1,0.4c0,0,0,0,0,0l0,0
			c0.1,0.1,0.1,0.1,0.1,0.1c0,0.1-0.1,0.2-0.2,0.2c0,0-0.1,0-0.1,0c0,0,0.1,0.1,0.1,0.1C3,8.6,3,8.6,3,8.6c0,0,0,0.1-0.1,0.1
			c0,0,0,0,0.1,0c0.1,0,0.1-0.1,0.1-0.2l0,0c0,0,0,0.1,0,0.1c0,0,0.1-0.1,0.1-0.1c0,0,0,0,0-0.1c0,0,0-0.1,0-0.1v0c0,0,0,0,0,0
			c0,0,0,0,0,0c0,0,0,0,0,0c0,0,0,0,0,0c0,0,0,0,0,0c0,0,0-0.1,0-0.2c0,0,0-0.1-0.1-0.1c0,0,0,0,0.1,0c0.1,0,0.1-0.1,0.1-0.1
			c0,0,0-0.1,0-0.1c0,0,0,0,0,0c0,0,0-0.1-0.1-0.1c0,0-0.1,0-0.1,0c0,0,0.1,0,0.1,0c0,0,0,0,0,0.1c0,0,0,0,0,0c0,0,0,0,0,0
			c0,0,0,0,0,0c0,0,0,0,0,0c0,0,0,0.1,0,0.1C3.2,8.2,3.1,8.1,3,8c0,0,0,0,0,0c0,0,0,0,0.1,0c0,0,0.1,0,0.1,0c0,0,0-0.1-0.1-0.1
			c0,0-0.1,0-0.1-0.1l0,0c0,0,0.1,0.1,0.2,0.1c0,0,0,0,0,0c0,0,0,0,0,0c0,0-0.1,0-0.2-0.1c0,0,0,0,0-0.1c0,0,0,0,0,0
			c0,0,0.1,0,0.1,0c0,0,0.1,0,0.1,0c0,0,0,0,0.1,0c0,0,0,0,0,0l0,0l0,0l0,0h0c0.1,0,0.1,0,0.2-0.1c0,0,0,0,0,0c0.1,0,0.1,0,0.1-0.1
			c0-0.1,0-0.2,0-0.2c0,0,0,0,0,0C3.4,7.4,3.4,7.3,3.3,7.3c0,0-0.1,0-0.1,0c0,0-0.1,0-0.1,0.1c0,0,0,0,0,0c0,0,0,0,0,0l0,0l0,0
			c0,0,0,0,0,0c0.1,0,0.2,0.1,0.2,0.2c0,0,0.1,0,0.1-0.1c0,0,0-0.1,0-0.1c0,0,0,0.1,0,0.1c0,0.1,0,0.1-0.1,0.1c0,0-0.1,0-0.1,0
			c0,0,0-0.1,0-0.1c-0.1,0-0.1,0.1,0,0.1c0,0,0.1,0.1,0.1,0.1c0,0-0.1,0-0.1,0c-0.1,0-0.1-0.1-0.1-0.1c0,0,0,0-0.1,0c0,0,0,0,0,0
			c0,0,0,0.1,0,0.1c0,0.1,0,0.1,0,0.1l0,0c-0.1,0-0.1-0.1,0-0.2c0,0,0,0,0,0c0,0,0,0,0,0c0,0,0,0,0-0.1c0,0,0,0,0,0c0,0,0,0,0,0
			c0,0.1,0,0.1,0,0.2v0c0,0,0-0.1,0-0.2c0,0,0,0,0,0c0.1-0.1,0-0.1,0-0.2c0,0-0.1,0.1-0.1,0.1c0,0,0,0.1,0,0.1c0,0,0,0,0,0
			c0-0.1,0-0.3,0.2-0.3c0,0,0.1,0,0.1,0.1c0,0,0,0,0,0c0,0,0,0,0,0c0,0,0,0,0,0c0,0,0,0,0,0c0,0,0.1,0,0.1,0.1c0,0,0,0.1,0,0.1
			c0,0,0,0,0,0l0,0c0,0,0,0,0,0l0,0c0,0,0,0,0,0c0,0,0,0,0,0c0,0,0,0,0,0c0,0,0,0,0,0c0,0,0,0,0,0c0,0,0,0,0,0c0,0,0,0,0,0
			c0,0,0,0,0,0c0,0,0,0,0,0c0,0,0,0-0.1,0c0,0,0,0,0,0l0,0l0,0l0,0l0,0l0,0c0,0,0,0,0,0l0,0h0l0,0c0,0,0,0,0,0h0l0,0c0,0,0,0,0,0
			c0,0,0,0,0,0c0,0,0,0,0,0c0,0,0,0,0,0c0,0,0,0,0,0c0,0,0,0,0,0l0,0c0,0,0,0,0,0h0c0,0,0,0,0,0h0c0,0,0,0,0,0c0,0,0,0,0,0s0,0,0,0
			c0,0,0,0,0,0l0,0c0,0,0,0,0,0c0,0-0.1,0-0.1,0l0,0c0,0,0,0,0,0c0,0-0.1,0-0.1,0c0,0-0.1,0-0.1,0.1c0,0,0,0,0,0.1V7.2
			c0,0,0.1-0.1,0.1-0.1c0,0,0,0,0,0C2.9,7.1,2.8,7,2.8,7V7c0,0,0,0,0,0C2.9,7,3,7.1,3,7c0,0,0,0,0,0c0,0,0,0,0,0c0,0,0.1,0,0.1,0
			l0,0c0,0,0,0,0,0c0,0,0,0,0,0c0,0,0,0,0,0c0,0,0,0,0,0c0,0,0,0,0,0c0,0,0,0,0,0c0,0,0,0,0,0c0,0,0-0.1,0-0.1c0,0,0,0,0-0.1
			c0,0,0,0,0,0c0,0,0,0,0,0c0-0.1,0-0.1,0-0.2c0-0.1,0-0.1-0.1-0.2c0,0-0.1-0.1-0.1-0.1c0,0,0,0,0,0c0,0,0,0,0,0c0,0,0,0,0,0
			c0,0,0,0,0,0c-0.1,0-0.1,0-0.2,0s-0.1,0-0.2,0c-0.1,0-0.1,0-0.1,0.1c0,0-0.1,0-0.1,0.1c0,0,0,0-0.1,0.1c0,0,0,0,0,0c0,0,0,0,0,0
			c0,0,0.1-0.1,0.1-0.1c0,0,0,0,0.1,0c0,0,0.1-0.1,0.1-0.1c0,0,0,0,0,0c0,0,0,0,0,0C2.6,6,2.6,6,2.7,6c0,0,0,0,0,0c0,0,0,0,0,0
			c0,0,0,0,0,0c0.1,0,0.1,0,0.1,0c0,0,0,0,0,0c0,0,0,0,0,0l0,0l0,0c0,0,0,0,0,0c0,0,0,0,0,0c0,0,0,0,0,0c0,0,0,0,0,0c0,0,0,0,0,0
			c0,0,0,0,0,0v0c0,0,0,0,0,0c0,0,0,0,0,0l0,0c0,0,0,0,0,0c0,0,0,0,0,0c0,0,0,0,0,0c0,0,0,0,0,0c0-0.1,0-0.1-0.1-0.1h0c0,0,0,0,0,0
			c0,0,0,0,0,0c0,0-0.1,0-0.1,0c0,0,0,0,0,0c0,0,0,0,0,0c0,0,0,0,0,0l0,0c0,0,0,0,0,0h0c0,0,0,0,0,0c0,0,0,0,0,0c0,0,0.1,0,0.1,0
			c0,0,0,0,0,0c0,0,0,0,0.1,0c0,0,0,0,0,0c0,0,0,0,0.1,0l0,0c0,0,0,0,0,0c0,0,0,0,0.1,0c0,0,0,0.1,0.1,0.1c0,0,0,0,0,0c0,0,0,0,0,0
			c0,0,0,0,0,0.1c0,0,0,0,0,0l0,0c0,0,0,0,0,0l0,0c0,0,0,0,0,0c0,0,0,0,0,0c0,0,0,0,0,0c0,0,0,0,0,0c0,0,0,0,0,0l0,0c0,0,0,0,0,0
			l0,0l0,0c0,0,0,0,0,0.1l0,0c0.1,0,0.1,0,0.1,0c0,0,0,0.1,0,0.1l0,0c0,0,0,0,0,0l0,0c0,0,0,0.1,0,0.1c0,0,0,0,0,0c0,0,0,0,0,0
			c0,0,0,0,0,0c0.1,0,0.2,0.1,0.2,0.1c0,0,0,0,0,0c0.1,0.1,0.1,0.2,0,0.3c0,0,0,0,0,0c0,0,0.1,0,0.1,0C3.8,6.8,3.8,6.9,3.8,7.1z
			 M3.2,7.7C3.2,7.7,3.2,7.7,3.2,7.7C3.2,7.7,3.2,7.7,3.2,7.7C3.2,7.7,3.2,7.7,3.2,7.7z M3.1,7.5C3.1,7.5,3.1,7.5,3.1,7.5
			C3.1,7.5,3.1,7.5,3.1,7.5C3.1,7.5,3.1,7.6,3.1,7.5L3.1,7.5C3.1,7.6,3.1,7.6,3.1,7.5C3.1,7.6,3.1,7.6,3.1,7.5
			C3.1,7.6,3.1,7.6,3.1,7.5L3.1,7.5L3.1,7.5c0.1,0.1,0.1,0.1,0.1,0.1c0,0,0,0,0,0c0,0,0,0,0.1,0c0,0,0,0,0,0c0,0,0,0,0,0
			c0,0,0,0,0,0c0,0,0,0,0,0c0,0,0,0,0,0s0,0,0,0c0,0,0,0,0.1-0.1c0,0,0,0,0,0l0,0c0,0,0,0,0,0c0,0,0,0,0,0c0,0,0,0,0,0
			c0,0,0,0,0-0.1c0,0-0.1-0.1-0.1-0.1c0,0,0,0,0,0C3.2,7.4,3.1,7.4,3.1,7.5C3.1,7.5,3.1,7.5,3.1,7.5C3.1,7.5,3.1,7.5,3.1,7.5z
			 M3.2,7.3C3.2,7.3,3.2,7.3,3.2,7.3C3.2,7.3,3.2,7.3,3.2,7.3C3.2,7.3,3.1,7.3,3.2,7.3C3.1,7.3,3.1,7.3,3.2,7.3c-0.1,0-0.1,0-0.1,0
			c0,0,0,0,0,0c0,0-0.1,0-0.1,0h0c-0.1,0-0.1,0-0.1,0.1c0,0,0,0.1,0,0.1c0,0,0,0,0-0.1c0,0,0,0,0,0l0,0c0,0,0,0,0,0c0,0,0,0,0,0
			c0,0,0.1,0,0.1,0.1c0,0,0,0,0,0C3.1,7.3,3.1,7.3,3.2,7.3C3.2,7.3,3.2,7.3,3.2,7.3L3.2,7.3C3.2,7.3,3.2,7.3,3.2,7.3z M3.2,8.1
			L3.2,8.1C3.2,8,3.2,8,3.2,8.1C3.1,8,3.1,8,3.2,8.1C3.1,8.1,3.1,8.1,3.2,8.1L3.2,8.1C3.1,8.1,3.1,8.1,3.2,8.1
			C3.2,8.1,3.2,8.1,3.2,8.1z M3.3,7.9C3.3,7.9,3.3,7.9,3.3,7.9C3.2,7.9,3.2,7.9,3.3,7.9C3.2,7.9,3.2,7.9,3.3,7.9
			C3.2,7.9,3.2,7.9,3.3,7.9C3.2,7.9,3.2,7.9,3.3,7.9C3.2,7.9,3.2,7.9,3.3,7.9L3.3,7.9C3.2,7.9,3.2,7.9,3.3,7.9c0,0.1,0,0.1,0,0.1
			c0,0,0,0,0,0c0,0,0,0,0,0C3.2,8,3.2,8,3.3,7.9C3.2,8,3.2,8,3.3,7.9C3.2,7.9,3.2,7.9,3.3,7.9C3.3,7.9,3.3,7.9,3.3,7.9
			C3.3,7.9,3.3,7.9,3.3,7.9z M3.3,7.1C3.3,7.1,3.4,7.1,3.3,7.1c0.1,0,0.1,0,0.1,0c0,0,0,0,0,0c0,0,0,0,0,0c0,0,0,0,0,0c0,0,0,0,0,0
			c0,0,0,0,0,0c0,0,0,0,0,0c0,0,0,0,0,0c0,0,0,0,0,0c0,0-0.1-0.1,0-0.2c0,0,0,0,0,0c0,0,0,0,0,0c0,0,0,0,0,0c0,0,0,0,0,0
			c0,0,0,0,0-0.1v0c0-0.1,0-0.1,0-0.1c0,0,0,0,0,0c0,0,0,0,0,0C3.4,6.9,3.3,7,3.3,7.1C3.3,7,3.2,7,3.3,7.1C3.3,7,3.3,7.1,3.3,7.1z
			 M3.6,6.8c0,0-0.1,0-0.2,0c0,0,0,0,0,0c0.1,0,0.1-0.2,0-0.3C3.5,6.3,3.4,6.3,3.3,6.2c0,0-0.1,0-0.1,0c0,0,0.1,0,0.1-0.1
			c0,0,0,0,0,0l0,0c0,0,0-0.1,0-0.1c0,0,0,0,0,0c0,0,0,0,0,0c0,0,0,0,0,0v0c0,0,0,0,0,0c0,0,0,0,0,0s0,0,0,0c0,0,0,0,0,0s0,0,0,0
			c0,0,0,0,0,0c0,0,0,0,0,0l0,0c0,0,0,0,0,0c0,0,0,0,0,0c0,0,0,0,0,0c0,0,0,0,0,0h0c0,0,0,0,0,0c0,0,0,0,0,0l0,0v0c0,0,0,0,0,0l0,0
			c0,0,0,0,0,0c0,0,0,0,0,0c0,0,0-0.1,0-0.1c0,0,0,0,0,0s0,0,0,0c0,0,0,0,0,0c0,0,0,0,0,0l0,0c0,0,0,0,0,0c0,0,0,0,0,0s0,0,0,0l0,0
			c0,0,0,0,0,0l0,0c0,0,0,0,0,0l0,0c0,0,0,0,0,0l0,0c0,0,0-0.1,0-0.1c0,0,0,0,0,0c0,0,0,0.1,0,0.1c0,0,0,0,0,0c0.1,0,0-0.2,0-0.2
			c0,0,0,0-0.1,0c0,0,0,0.1,0,0.1c0,0-0.1-0.1-0.1-0.1c0,0-0.1,0.1-0.1,0.1c0,0,0,0,0,0c0,0,0,0,0,0l0,0c0,0,0,0,0,0s0,0,0,0l0,0
			l0,0c0,0,0,0,0,0l0,0c0,0,0,0,0.1,0C3.1,5.8,3.1,6,3,6.1C3,6.1,3,6,3,6c0,0,0,0,0,0v0C3,6,3,6,3,6.1c0,0-0.1,0-0.1,0c0,0,0,0,0,0
			c-0.1,0-0.1,0-0.1,0l0,0c0,0,0.1,0,0.1,0c0,0,0-0.1,0-0.1c0,0.1-0.2,0-0.2,0c0,0-0.1,0-0.1,0.1l0,0c0,0,0,0-0.1,0.1
			c0.1,0,0.1,0,0.2,0c0,0,0,0,0,0c0.1,0,0.1,0,0.2,0c0,0,0,0,0,0c0,0,0,0,0,0c0,0,0,0,0,0c0,0,0,0,0,0c0.1,0,0.1,0.1,0.1,0.1
			c0,0,0.1,0.1,0.1,0.2c0,0,0,0,0,0c0,0,0,0.1,0,0.1c0,0,0-0.1,0-0.1c0-0.1-0.1-0.1-0.1-0.1l0,0c0,0,0.1,0.1,0.1,0.1c0,0,0,0,0,0.1
			c0,0,0.1,0,0.1,0.1c0,0,0,0.1,0,0.1c0,0-0.1,0-0.1,0c0,0,0-0.1,0-0.1c0,0,0,0,0,0c0,0,0,0,0,0c0,0,0,0,0,0c0,0,0,0,0,0
			c0,0,0,0,0,0.1c0,0,0,0.1,0,0.1c0,0,0,0,0,0.1c0,0-0.1,0.1-0.1,0l0,0c0.1,0.1,0.2,0,0.2-0.2c0,0,0,0,0-0.1c0,0,0,0,0,0
			c0.1,0,0,0.1,0,0.1c0,0,0,0,0,0c0,0,0,0,0,0C3.5,6.9,3.5,6.9,3.6,6.8c-0.1,0-0.1,0-0.1,0l0,0c0.1,0.1,0,0.2,0,0.2c0,0,0,0,0,0.1
			c0,0,0,0.1,0,0.1c0,0,0,0,0,0c0,0,0.1,0,0.1-0.1c0,0,0,0,0-0.1c0,0,0,0,0,0c0,0.1-0.1,0.2-0.2,0.2c0,0-0.1,0-0.1-0.1c0,0,0,0,0,0
			c0,0,0,0,0,0c0,0,0,0,0,0c0,0,0,0,0,0c0,0,0,0,0-0.1c0,0,0-0.1,0,0c0,0-0.1,0-0.1,0c0,0,0,0.1,0,0.1c0,0,0,0,0,0c0,0,0,0.1,0,0.1
			c0.1,0,0.1,0,0.2,0c0.1,0,0.2-0.1,0.2-0.3C3.8,7,3.7,6.8,3.6,6.8z M3.6,7.2C3.6,7.2,3.6,7.1,3.6,7.2C3.6,7.1,3.6,7.2,3.6,7.2
			C3.6,7.2,3.6,7.2,3.6,7.2C3.6,7.2,3.6,7.2,3.6,7.2C3.6,7.2,3.6,7.2,3.6,7.2z M3.4,6.6L3.4,6.6C3.4,6.6,3.4,6.6,3.4,6.6
			C3.4,6.6,3.4,6.6,3.4,6.6C3.4,6.6,3.4,6.6,3.4,6.6C3.4,6.6,3.4,6.7,3.4,6.6L3.4,6.6C3.4,6.7,3.4,6.7,3.4,6.6L3.4,6.6
			C3.4,6.7,3.4,6.7,3.4,6.6L3.4,6.6C3.5,6.7,3.5,6.7,3.4,6.6C3.5,6.7,3.5,6.7,3.4,6.6C3.5,6.6,3.5,6.6,3.4,6.6
			C3.5,6.6,3.5,6.6,3.4,6.6C3.4,6.6,3.4,6.6,3.4,6.6C3.4,6.6,3.4,6.6,3.4,6.6z M2.8,6.7v1.4c0,0.2-0.1,0.3-0.3,0.3H2.1
			C2.1,8.5,2,8.5,2,8.5l0,0l0,0c0,0-0.1-0.1-0.1-0.1H1.5c-0.2,0-0.3-0.1-0.3-0.3V6.7h0.4c0-0.1,0-0.1,0.1-0.1c0,0,0.1,0,0.1,0
			c0,0,0,0,0.1,0c0,0,0,0,0-0.1c-0.1,0-0.1-0.1-0.1-0.2c0,0,0-0.1,0-0.1c0,0,0,0,0,0l0,0c0-0.1,0.1-0.1,0.2-0.1c0.1,0,0.1,0,0.2,0.1
			l0,0c0,0,0,0,0,0c0,0,0,0.1,0,0.1c0,0.1,0,0.2-0.1,0.2c0,0,0,0,0,0.1c0,0,0,0,0.1,0c0,0,0.1,0,0.1,0c0,0,0.1,0.1,0.1,0.1
			C2.4,6.7,2.8,6.7,2.8,6.7z M1.8,6.1l0.1,0c0,0,0,0,0,0l0.1,0c0,0-0.1-0.1-0.1-0.1S1.9,6.1,1.8,6.1z M2,6.5c0.1,0,0.3-0.1,0.3-0.2
			c0,0,0-0.1,0-0.1c0,0,0,0,0,0L2,6.2c0,0,0,0,0,0l-0.2,0c0,0,0,0,0,0c0,0,0,0.1,0,0.1C1.7,6.4,1.8,6.5,2,6.5z M2.1,6.5
			c0,0-0.1,0-0.1,0c0,0-0.1,0-0.1,0c0,0,0,0,0,0.1C1.9,6.6,1.9,6.6,2,6.6C2,6.6,2.1,6.6,2.1,6.5C2.1,6.6,2.1,6.5,2.1,6.5z M1.7,6.6
			C1.7,6.6,1.7,6.7,1.7,6.6C1.7,6.7,1.7,6.7,1.7,6.6C1.8,6.9,1.9,6.9,2,6.9l0,0c0.1,0,0.2,0,0.3-0.2c0,0,0,0,0,0c0,0,0-0.1,0.1-0.1
			c0,0-0.1,0-0.1,0c0,0,0,0-0.1,0C2.1,6.6,2,6.7,2,6.7v0.1h0V6.7c-0.1,0-0.1,0-0.2-0.1C1.8,6.6,1.8,6.6,1.7,6.6
			C1.7,6.6,1.7,6.6,1.7,6.6z M2.7,7.6V6.8H2.2c0,0,0,0-0.1,0.1c0,0,0,0,0,0c0,0,0,0,0,0h0v0c0,0,0,0,0,0c0,0,0,0,0,0c0,0,0,0,0,0
			s0,0,0,0h0h0c0,0,0,0,0,0c0,0,0,0,0,0c0,0,0,0,0,0c0,0,0,0,0,0h0h0c0,0,0,0,0,0c0,0,0,0,0,0c0,0,0,0,0,0l0,0h0c0,0,0,0,0,0
			c0,0,0,0,0,0c0,0,0,0,0,0c0,0,0,0,0,0l0,0h0c0,0,0,0,0,0c0,0,0,0,0,0c0,0,0,0,0,0c0,0,0,0,0,0h0l0,0c0,0,0,0,0,0c0,0,0,0,0,0
			c0,0,0,0,0,0h0h0c0,0,0,0,0,0c0,0,0,0,0,0c0,0,0,0,0,0v0h0c0,0,0,0,0,0s0,0,0,0c0,0,0,0-0.1-0.1H1.3v0.8h0.6l0,0
			c0.1,0,0.1,0,0.1,0V7.4l0,0c0-0.1-0.1-0.1-0.2-0.2l0,0c0,0,0,0,0,0c0,0,0,0,0,0c0,0,0,0,0,0c0,0,0,0,0,0c0,0,0,0,0,0c0,0,0,0,0,0
			l0,0c0,0,0,0,0,0l0,0c0,0,0,0,0,0c0,0,0,0,0,0c0,0,0,0,0,0c0,0,0,0,0,0c0,0,0,0,0,0l0,0c0.1,0,0.2,0.1,0.2,0.1l0-0.2v0
			c0,0,0,0,0,0c0,0,0,0,0,0v0l0,0.2c0,0,0.1-0.1,0.2-0.1l0,0c0,0,0,0,0,0c0,0,0,0,0,0c0,0,0,0,0,0s0,0,0,0c0,0,0,0,0,0l0,0
			c0,0,0,0,0,0l0,0c0,0-0.1,0-0.1,0C2,7.3,2,7.4,2,7.4v0.1c0,0,0,0,0.1,0l0,0L2.7,7.6L2.7,7.6z M1.3,7.6v0.5c0,0.1,0.1,0.2,0.2,0.2
			h0.3c0.1,0,0.1,0,0.2,0.1c0,0,0.1-0.1,0.2-0.1h0.3c0.1,0,0.2-0.1,0.2-0.2V7.6H1.3L1.3,7.6z M2.7,6.8H2.4H2.2c0,0,0,0,0,0L2.7,6.8
			l0,1.4c0,0.1-0.1,0.2-0.2,0.2H2.1C2.1,8.4,2,8.4,2,8.4l0,0l0,0c0,0-0.1-0.1-0.2-0.1H1.5c-0.1,0-0.2-0.1-0.2-0.2V6.8h0.5
			c0,0,0,0,0,0H1.2v1.4c0,0.2,0.1,0.3,0.3,0.3h0.3c0.1,0,0.1,0,0.2,0.1l0,0l0,0c0-0.1,0.1-0.1,0.2-0.1h0.3c0.2,0,0.3-0.1,0.3-0.3
			V6.8L2.7,6.8z"/>
		<g>
			<g>
				<path d="M5.5,6.5c0,0.1,0,0.2-0.1,0.2C5.3,6.7,5.3,6.7,5.2,6.7H4.8v0l0.1,0l0-0.8h0.3c0.2,0,0.2,0.1,0.2,0.2
					c0,0.1,0,0.1-0.1,0.1c0,0-0.1,0.1-0.1,0.1C5.4,6.3,5.5,6.3,5.5,6.5z M5.3,6.1c0-0.1,0-0.1,0-0.1c0,0-0.1,0-0.1,0c0,0,0,0-0.1,0
					l0,0.3h0.1c0,0,0.1,0,0.1,0C5.3,6.2,5.3,6.1,5.3,6.1z M5.3,6.5c0-0.1,0-0.1-0.1-0.2c0,0-0.1-0.1-0.2-0.1H5v0.4c0,0,0.1,0,0.1,0
					c0.1,0,0.1,0,0.2-0.1C5.3,6.6,5.3,6.6,5.3,6.5z"/>
				<path d="M6.1,6.2c0,0-0.1,0.1-0.1,0.3C5.9,6.7,5.8,6.8,5.8,6.9C5.7,7,5.7,7,5.6,7c0,0-0.1,0-0.1,0V6.9c0,0,0.1,0,0.1,0
					c0,0,0.1-0.1,0.1-0.2L5.5,6.2h0.1l0.2,0.4c0-0.1,0.1-0.1,0.1-0.2C6,6.3,6,6.3,6,6.2c0,0,0,0,0-0.1L6.1,6.2L6.1,6.2z"/>
				<path d="M6.8,6.1L6.8,6.1C6.7,6.2,6.6,6.2,6.6,6.2c0.1,0,0.1,0.1,0.1,0.2c0,0.1,0,0.1-0.1,0.2c-0.1,0-0.1,0.1-0.2,0.1
					c0,0,0,0-0.1,0v0.1h0.3c0,0,0.1,0,0.1,0s0,0,0,0.1c0,0,0,0,0,0c0,0.1-0.1,0.1-0.2,0.2C6.5,7,6.4,7,6.3,7C6.2,7,6.2,7,6.2,6.9
					c0,0,0-0.1,0-0.1c0,0,0,0,0.1-0.1l0.1-0.2c0,0-0.1,0-0.1-0.1c0,0,0-0.1,0-0.1c0-0.1,0-0.1,0.1-0.2c0.1,0,0.1-0.1,0.2-0.1
					c0.1,0,0.1,0,0.1,0C6.6,6.2,6.7,6.1,6.8,6.1z M6.6,6.8c0-0.1,0-0.1-0.1-0.1H6.3c0,0.1,0,0.1,0,0.1c0,0,0.1,0,0.2,0
					C6.5,6.9,6.5,6.9,6.6,6.8C6.6,6.9,6.6,6.9,6.6,6.8C6.6,6.9,6.6,6.9,6.6,6.8z M6.6,6.3c0-0.1,0-0.1,0-0.1c0,0-0.1,0-0.1,0
					c-0.1,0-0.1,0-0.1,0c0,0,0,0.1,0,0.1c0,0.1,0,0.2,0.1,0.2c0.1,0,0.1,0,0.1,0C6.6,6.5,6.6,6.4,6.6,6.3z"/>
				<path d="M7.4,6.1L7.4,6.1C7.3,6.2,7.3,6.2,7.3,6.2c0.1,0,0.1,0.1,0.1,0.2c0,0.1,0,0.1-0.1,0.2c-0.1,0-0.1,0.1-0.2,0.1
					c0,0,0,0-0.1,0v0.1h0.3c0,0,0.1,0,0.1,0s0,0,0,0.1c0,0,0,0,0,0c0,0.1-0.1,0.1-0.2,0.2C7.2,7,7.1,7,7,7C6.9,7,6.8,7,6.8,6.9
					c0,0,0-0.1,0-0.1c0,0,0,0,0.1-0.1L7,6.6c0,0-0.1,0-0.1-0.1c0,0,0-0.1,0-0.1c0-0.1,0-0.1,0.1-0.2C7,6.2,7,6.1,7.1,6.1
					c0.1,0,0.1,0,0.1,0C7.2,6.2,7.3,6.1,7.4,6.1z M7.3,6.8c0-0.1,0-0.1-0.1-0.1H6.9c0,0.1,0,0.1,0,0.1c0,0,0.1,0,0.2,0
					C7.1,6.9,7.2,6.9,7.3,6.8C7.2,6.9,7.3,6.9,7.3,6.8C7.3,6.9,7.3,6.9,7.3,6.8z M7.2,6.3c0-0.1,0-0.1,0-0.1c0,0-0.1,0-0.1,0
					C7,6.2,7,6.2,7,6.2c0,0,0,0.1,0,0.1c0,0.1,0,0.2,0.1,0.2c0.1,0,0.1,0,0.1,0C7.2,6.5,7.2,6.4,7.2,6.3z"/>
				<path d="M8,6.7c0,0-0.1,0-0.1,0.1c-0.1,0-0.1,0-0.2,0c-0.1,0-0.1,0-0.2-0.1c0,0-0.1-0.1-0.1-0.2c0-0.1,0-0.2,0.1-0.2
					c0.1-0.1,0.1-0.1,0.3-0.1c0.1,0,0.1,0,0.2,0.1c0,0,0,0.1,0,0.2l-0.4,0c0,0.1,0,0.1,0,0.2c0,0,0.1,0.1,0.1,0.1
					C7.9,6.7,8,6.7,8,6.7C8,6.7,8,6.7,8,6.7z M7.9,6.3c0-0.1,0-0.1-0.1-0.1c-0.1,0-0.1,0-0.1,0c0,0,0,0.1,0,0.2
					C7.7,6.4,7.8,6.4,7.9,6.3C7.9,6.4,7.9,6.3,7.9,6.3z"/>
				<path d="M8.5,6.5c0,0.1,0,0.1-0.1,0.2S8.3,6.8,8.2,6.8c-0.1,0-0.1,0-0.2,0V6.7c0,0,0.1,0,0.1,0s0.1,0,0.1,0c0,0,0.1,0,0.1,0
					c0,0,0,0,0-0.1c0,0,0-0.1,0-0.1c0,0-0.1,0-0.1,0c-0.1,0-0.1,0-0.1,0c0,0,0-0.1,0-0.1c0-0.1,0-0.1,0.1-0.1c0.1,0,0.1,0,0.2,0
					c0,0,0.1,0,0.1,0v0.1c-0.1,0-0.1,0-0.2,0c0,0,0,0,0,0c0,0,0,0,0,0c0,0,0,0,0,0c0,0,0,0.1,0,0.1c0,0,0,0,0.1,0
					c0.1,0,0.1,0,0.1,0.1C8.5,6.5,8.5,6.5,8.5,6.5z"/>
				<path d="M9.2,6.7c0,0-0.1,0-0.1,0.1c-0.1,0-0.1,0-0.2,0c-0.1,0-0.1,0-0.2-0.1c0,0-0.1-0.1-0.1-0.2c0-0.1,0-0.2,0.1-0.2
					C8.8,6.2,8.9,6.1,9,6.1c0.1,0,0.1,0,0.2,0.1c0,0,0,0.1,0,0.2l-0.4,0c0,0.1,0,0.1,0,0.2c0,0,0.1,0.1,0.1,0.1
					C9,6.7,9.1,6.7,9.2,6.7C9.2,6.7,9.2,6.7,9.2,6.7z M9,6.3c0-0.1,0-0.1-0.1-0.1s-0.1,0-0.1,0c0,0,0,0.1,0,0.2
					C8.8,6.4,8.9,6.4,9,6.3C9,6.4,9,6.3,9,6.3z"/>
				<path d="M9.5,6.7L9.5,6.7l-0.3,0v0c0,0,0,0,0.1,0c0,0,0-0.3,0-0.9h0.1L9.5,6.7L9.5,6.7z"/>
				<path d="M10,6.5c0,0.1,0,0.1-0.1,0.2S9.8,6.8,9.7,6.8c-0.1,0-0.1,0-0.2,0V6.7c0,0,0.1,0,0.1,0c0,0,0.1,0,0.1,0c0,0,0.1,0,0.1,0
					c0,0,0,0,0-0.1c0,0,0-0.1,0-0.1c0,0-0.1,0-0.1,0c-0.1,0-0.1,0-0.1,0c0,0,0-0.1,0-0.1c0-0.1,0-0.1,0.1-0.1c0.1,0,0.1,0,0.2,0
					c0,0,0.1,0,0.1,0v0.1c-0.1,0-0.1,0-0.2,0c0,0,0,0,0,0c0,0,0,0,0,0c0,0,0,0,0,0c0,0,0,0.1,0,0.1c0,0,0,0,0.1,0
					c0.1,0,0.1,0,0.1,0.1C10,6.5,10,6.5,10,6.5z"/>
				<path d="M10.7,6.7l-0.2,0l-0.2-0.3c0,0,0,0-0.1,0l0,0.2l0.1,0v0h-0.3v0c0,0,0,0,0.1,0c0,0,0-0.3,0-0.9h0.1v0.6
					c0.1-0.1,0.2-0.2,0.2-0.2c0,0,0-0.1,0-0.1l0.2,0c0,0-0.1,0.1-0.3,0.2L10.7,6.7L10.7,6.7L10.7,6.7L10.7,6.7z"/>
				<path d="M11.3,6.7C11.3,6.7,11.3,6.7,11.3,6.7l-0.2,0.1c0,0,0,0,0-0.1c0,0,0,0-0.1,0.1c0,0-0.1,0-0.1,0c-0.1,0-0.1-0.1-0.1-0.2
					c0,0,0-0.1,0-0.1c0,0,0.1,0,0.1-0.1c0.1,0,0.1,0,0.2,0V6.3c0,0,0,0,0-0.1c0,0,0,0-0.1,0c0,0-0.1,0-0.1,0l0,0.1h0l0-0.1
					c0.1,0,0.2-0.1,0.3-0.1c0,0,0.1,0,0.1,0c0,0,0,0.1,0,0.1L11.3,6.7C11.3,6.7,11.3,6.7,11.3,6.7L11.3,6.7L11.3,6.7z M11.1,6.5
					c-0.1,0-0.2,0-0.2,0c0,0,0,0,0,0c0,0,0,0,0,0.1c0,0,0,0.1,0,0.1c0,0,0,0,0.1,0s0.1,0,0.1,0V6.5z"/>
				<path d="M12,6.4c0,0.1,0,0.2-0.1,0.2c-0.1,0.1-0.1,0.1-0.2,0.1c-0.1,0-0.2,0-0.2,0V5.8h0.1v0.4c0,0,0.1,0,0.1,0
					c0.1,0,0.1,0,0.1,0C12,6.1,12,6.2,12,6.4z M11.9,6.5c0-0.1,0-0.2,0-0.2c0,0-0.1-0.1-0.1-0.1c-0.1,0-0.1,0-0.1,0v0.4
					c0,0,0.1,0,0.2,0c0.1,0,0.1,0,0.1,0c0,0,0,0,0-0.1C11.9,6.6,11.9,6.5,11.9,6.5z"/>
			</g>
			<g>
				<path d="M5.7,8L5.7,8L5.4,8v0l0.1,0l0-0.7L5.2,7.8H5.2L4.9,7.3c0,0.4,0,0.6,0,0.7L5,8v0H4.8v0l0.1,0c0,0,0-0.1,0-0.2
					c0,0,0-0.2,0-0.6H5l0.2,0.5l0.2-0.5h0.2L5.7,8L5.7,8z"/>
				<path d="M6.4,7.7c0,0.1,0,0.2-0.1,0.2C6.2,8,6.1,8,6,8C5.9,8,5.9,8,5.8,8c0,0-0.1-0.1-0.1-0.2c0-0.1,0-0.2,0.1-0.2
					C5.9,7.5,6,7.4,6.1,7.4c0.1,0,0.2,0,0.2,0.1C6.3,7.6,6.4,7.6,6.4,7.7z M6.2,7.7c0-0.1,0-0.1,0-0.2c0,0-0.1-0.1-0.2-0.1
					c0,0-0.1,0-0.1,0c0,0-0.1,0-0.1,0s0,0,0,0.1c0,0.1,0,0.1,0,0.1C5.9,7.9,5.9,8,6.1,8c0.1,0,0.1,0,0.1,0c0,0,0,0,0-0.1
					C6.2,7.8,6.2,7.8,6.2,7.7z"/>
				<path d="M7,7.4L7,7.4C7,7.5,6.9,7.5,6.9,7.5C6.9,7.5,7,7.6,7,7.6c0,0.1,0,0.1-0.1,0.2c-0.1,0-0.1,0.1-0.2,0.1c0,0,0,0-0.1,0v0.1
					h0.3c0,0,0.1,0,0.1,0s0,0,0,0.1c0,0,0,0,0,0c0,0.1-0.1,0.1-0.2,0.2c-0.1,0-0.1,0-0.2,0c-0.1,0-0.2,0-0.2-0.1c0,0,0-0.1,0-0.1
					c0,0,0,0,0.1-0.1l0.1-0.2c0,0-0.1,0-0.1-0.1c0,0,0-0.1,0-0.1c0-0.1,0-0.1,0.1-0.2c0.1,0,0.1-0.1,0.2-0.1c0.1,0,0.1,0,0.1,0
					C6.9,7.4,6.9,7.4,7,7.4z M6.9,8.1c0-0.1,0-0.1-0.1-0.1H6.5c0,0.1,0,0.1,0,0.1c0,0,0.1,0,0.2,0C6.8,8.2,6.8,8.2,6.9,8.1
					C6.9,8.2,6.9,8.2,6.9,8.1C6.9,8.2,6.9,8.2,6.9,8.1z M6.8,7.6c0-0.1,0-0.1,0-0.1c0,0-0.1,0-0.1,0c-0.1,0-0.1,0-0.1,0s0,0.1,0,0.1
					c0,0.1,0,0.2,0.1,0.2c0.1,0,0.1,0,0.1,0C6.8,7.8,6.8,7.7,6.8,7.6z"/>
				<path d="M7.6,7.9c0,0-0.1,0-0.1,0.1C7.5,8,7.4,8,7.4,8C7.3,8,7.2,8,7.2,8c0,0-0.1-0.1-0.1-0.2c0-0.1,0-0.2,0.1-0.2
					c0.1-0.1,0.1-0.1,0.3-0.1c0.1,0,0.1,0,0.2,0.1c0,0,0,0.1,0,0.2l-0.4,0c0,0.1,0,0.1,0,0.2c0,0,0.1,0.1,0.1,0.1
					C7.5,8,7.6,8,7.6,7.9C7.6,7.9,7.6,7.9,7.6,7.9z M7.5,7.6c0-0.1,0-0.1-0.1-0.1s-0.1,0-0.1,0c0,0,0,0.1,0,0.2
					C7.3,7.7,7.4,7.7,7.5,7.6C7.5,7.6,7.5,7.6,7.5,7.6z"/>
				<path d="M8.4,8L8.1,8v0l0.1,0V7.6c0,0,0-0.1-0.1-0.1c-0.1,0-0.1,0-0.2,0V8L8,8v0H7.7v0l0.1,0V7.4h0.1v0.1C8,7.5,8.1,7.4,8.2,7.4
					c0.1,0,0.1,0,0.1,0.1L8.4,8L8.4,8L8.4,8L8.4,8z"/>
				<path d="M8.9,7.8c0,0.1,0,0.1-0.1,0.2C8.7,8,8.6,8,8.6,8.1c-0.1,0-0.1,0-0.2,0V7.9c0,0,0.1,0,0.1,0c0,0,0.1,0,0.1,0
					c0,0,0.1,0,0.1,0c0,0,0,0,0-0.1c0,0,0-0.1,0-0.1c0,0-0.1,0-0.1,0c-0.1,0-0.1,0-0.1,0c0,0,0-0.1,0-0.1c0-0.1,0-0.1,0.1-0.1
					c0.1,0,0.1,0,0.2,0c0,0,0.1,0,0.1,0v0.1c-0.1,0-0.1,0-0.2,0c0,0,0,0,0,0c0,0,0,0,0,0c0,0,0,0,0,0c0,0,0,0.1,0,0.1c0,0,0,0,0.1,0
					c0.1,0,0.1,0,0.1,0.1C8.9,7.7,8.9,7.8,8.9,7.8z"/>
				<path d="M9.9,8C9.9,8,9.9,8,9.9,8L9.7,8c0,0,0,0,0-0.1c0,0,0,0-0.1,0.1c0,0-0.1,0-0.1,0C9.5,8,9.4,8,9.4,8c0,0-0.1-0.1-0.1-0.2
					c0-0.1,0-0.2,0.1-0.3c0.1-0.1,0.1-0.1,0.2-0.1c0,0,0.1,0,0.1,0l0-0.4h0.1L9.9,8C9.8,7.9,9.8,8,9.9,8L9.9,8L9.9,8z M9.7,7.9V7.5
					c-0.1,0-0.1,0-0.1,0c-0.1,0-0.1,0-0.1,0c0,0,0,0,0,0.1c0,0,0,0.1,0,0.1c0,0.1,0,0.1,0,0.2C9.5,8,9.5,8,9.6,8
					C9.6,8,9.7,8,9.7,7.9z"/>
				<path d="M10.5,7.9c0,0-0.1,0-0.1,0.1c-0.1,0-0.1,0-0.2,0c-0.1,0-0.1,0-0.2-0.1c0,0-0.1-0.1-0.1-0.2c0-0.1,0-0.2,0.1-0.2
					c0.1-0.1,0.1-0.1,0.3-0.1c0.1,0,0.1,0,0.2,0.1c0,0,0,0.1,0,0.2l-0.4,0c0,0.1,0,0.1,0,0.2c0,0,0.1,0.1,0.1,0.1
					C10.4,8,10.5,8,10.5,7.9C10.5,7.9,10.5,7.9,10.5,7.9z M10.4,7.6c0-0.1,0-0.1-0.1-0.1c-0.1,0-0.1,0-0.1,0c0,0,0,0.1,0,0.2
					C10.2,7.7,10.3,7.7,10.4,7.6C10.4,7.6,10.4,7.6,10.4,7.6z"/>
				<path d="M11.5,7.9V8h-0.6v0L11,8V7.2h0.1V8c0,0,0.1,0,0.1,0C11.4,8,11.4,8,11.5,7.9C11.4,7.9,11.5,7.9,11.5,7.9
					C11.5,7.9,11.5,7.9,11.5,7.9C11.5,7.9,11.5,7.9,11.5,7.9z"/>
				<path d="M11.9,8L11.9,8l-0.3,0v0c0,0,0,0,0.1,0V7.4l0.1,0L11.9,8L11.9,8z M11.8,7.2C11.8,7.3,11.8,7.3,11.8,7.2
					C11.7,7.3,11.7,7.3,11.8,7.2c-0.1,0.1-0.1,0.1-0.1,0.1c0,0,0,0,0-0.1c0,0,0,0,0-0.1C11.7,7.2,11.7,7.2,11.8,7.2
					C11.7,7.2,11.7,7.2,11.8,7.2C11.8,7.2,11.8,7.2,11.8,7.2z"/>
				<path d="M12.6,8l-0.3,0v0l0.1,0V7.6c0,0,0-0.1-0.1-0.1c-0.1,0-0.1,0-0.2,0V8l0.1,0v0h-0.3v0L12,8V7.4h0.1v0.1
					c0.1-0.1,0.2-0.1,0.3-0.1c0.1,0,0.1,0,0.1,0.1L12.6,8L12.6,8L12.6,8L12.6,8z"/>
				<path d="M13.3,8C13.3,8,13.3,8,13.3,8L13.1,8c0,0,0,0,0-0.1C13,8,13,8,13,8c0,0-0.1,0-0.1,0c-0.1,0-0.1,0-0.2-0.1
					c0,0-0.1-0.1-0.1-0.2c0-0.1,0-0.2,0.1-0.3c0.1-0.1,0.1-0.1,0.2-0.1c0,0,0.1,0,0.1,0l0-0.3h0.1L13.3,8C13.2,7.9,13.2,8,13.3,8
					L13.3,8L13.3,8z M13.1,7.9V7.5c-0.1,0-0.1,0-0.1,0c-0.1,0-0.1,0-0.1,0c0,0,0,0,0,0.1c0,0,0,0.1,0,0.1c0,0.1,0,0.1,0,0.2
					c0,0,0.1,0.1,0.1,0.1C13,8,13,8,13.1,7.9z"/>
				<path d="M13.9,7.9c0,0-0.1,0-0.1,0.1c-0.1,0-0.1,0-0.2,0c-0.1,0-0.1,0-0.2-0.1c0,0-0.1-0.1-0.1-0.2c0-0.1,0-0.2,0.1-0.2
					c0.1-0.1,0.1-0.1,0.3-0.1c0.1,0,0.1,0,0.2,0.1c0,0,0,0.1,0,0.2l-0.4,0c0,0.1,0,0.1,0,0.2c0,0,0.1,0.1,0.1,0.1
					C13.7,8,13.8,8,13.9,7.9C13.9,7.9,13.9,7.9,13.9,7.9z M13.7,7.6c0-0.1,0-0.1-0.1-0.1c-0.1,0-0.1,0-0.1,0c0,0,0,0.1,0,0.2
					C13.5,7.7,13.6,7.7,13.7,7.6C13.7,7.6,13.7,7.6,13.7,7.6z"/>
			</g>
		</g>
	</g>
</g>
<g id="Dimension_Layer">
</g>
</svg>
