<?xml version="1.0" encoding="utf-8"?>
<!-- Generator: Adobe Illustrator 23.0.3, SVG Export Plug-In . SVG Version: 6.00 Build 0)  -->
<svg version="1.1" id="Capa_1" xmlns="http://www.w3.org/2000/svg" xmlns:xlink="http://www.w3.org/1999/xlink" x="0px" y="0px"
	 viewBox="0 0 14 14" style="enable-background:new 0 0 14 14;" xml:space="preserve">
<style type="text/css">
	.st0{fill:#0066CC;}
</style>
<g>
	<g>
		<path class="st0" d="M14,11c0,0.2,0,0.4-0.2,0.6l-2,1.9c-0.1,0.1-0.2,0.2-0.3,0.2c-0.1,0.1-0.3,0.1-0.4,0.1c0,0,0,0-0.1,0
			c0,0-0.1,0-0.2,0c-0.2,0-0.5,0-0.9-0.1c-0.4-0.1-0.9-0.2-1.5-0.5c-0.6-0.2-1.3-0.6-2-1.1c-0.8-0.5-1.6-1.2-2.4-2.1
			C3.2,9.5,2.6,8.9,2.2,8.3C1.7,7.7,1.3,7.1,1.1,6.6C0.8,6,0.6,5.6,0.4,5.1C0.3,4.7,0.2,4.3,0.2,4S0.1,3.5,0.1,3.3s0-0.3,0-0.3
			c0-0.1,0.1-0.3,0.1-0.4c0.1-0.1,0.2-0.3,0.2-0.3l2-2c0.1-0.1,0.3-0.2,0.5-0.2c0.1,0,0.2,0,0.3,0.1s0.2,0.2,0.2,0.3l1.6,3
			C5.2,3.6,5.2,3.8,5.2,4S5,4.3,4.9,4.4L4.2,5.2c0,0,0,0.1-0.1,0.1c0,0,0,0.1,0,0.1c0,0.2,0.1,0.4,0.3,0.7c0.1,0.2,0.3,0.5,0.5,0.9
			c0.2,0.3,0.6,0.7,1,1.2c0.4,0.5,0.8,0.8,1.2,1C7.5,9.4,7.8,9.6,8,9.7c0.2,0.1,0.4,0.2,0.5,0.2l0.2,0c0,0,0.1,0,0.1,0
			c0,0,0.1,0,0.1-0.1L9.7,9c0.2-0.2,0.4-0.2,0.6-0.2c0.2,0,0.3,0,0.4,0.1h0l2.8,1.7C13.8,10.7,13.9,10.8,14,11z"/>
	</g>
</g>
</svg>
