<?xml version="1.0" encoding="utf-8"?>
<!-- Generator: Adobe Illustrator 23.0.3, SVG Export Plug-In . SVG Version: 6.00 Build 0)  -->
<svg version="1.1" id="Layer_1" xmlns="http://www.w3.org/2000/svg" xmlns:xlink="http://www.w3.org/1999/xlink" x="0px" y="0px"
	 viewBox="0 0 86.8 81.7" style="enable-background:new 0 0 86.8 81.7;" xml:space="preserve">
<style type="text/css">
	.st0{fill:#4667AE;}
	.st1{font-family:'ArialMT';}
	.st2{font-size:22.7489px;}
	.st3{font-size:8.9212px;}
	.st4{fill:none;}
	.st5{fill:#FFFFFF;}
</style>
<text transform="matrix(1 0 0 1 37.3454 39.1509)" class="st0 st1 st2">2</text>
<text transform="matrix(1 0 0 1 32.0431 47.7027)" class="st0 st1 st3">YEAR</text>
<g>
	<path class="st4" d="M64.5,46.9l4.6-1.6c0.4-0.2,0.7-0.4,0.8-0.9c0.1-0.4,0-0.9-0.3-1.1l-3.1-3.7c-1-1.2-1-3,0-4.2l3.1-3.7
		c0.3-0.3,0.3-0.8,0.3-1.1c-0.1-0.4-0.4-0.7-0.8-0.9l-4.6-1.6c-1.5-0.5-2.3-2.1-2.1-3.6l0.9-4.9c0.1-0.4-0.1-0.9-0.3-1.1
		c-0.3-0.5-0.8-0.6-1.2-0.5l-4.9,0.9c-1.6,0.3-3-0.6-3.6-2.1L51.6,12c-0.2-0.4-0.4-0.7-0.9-0.8s-0.9,0-1.1,0.3l-3.7,3.1
		c-1.2,1-3,1-4.2,0L38,11.5c-0.3-0.3-0.8-0.3-1.1-0.3c-0.4,0.1-0.7,0.4-0.9,0.8l-1.6,4.6c-0.5,1.5-2.1,2.3-3.6,2.1l-4.9-0.9
		c-0.4-0.1-0.9,0.1-1.1,0.3c-0.3,0.3-0.4,0.7-0.3,1.1l0.9,4.9c0.3,1.6-0.6,3-2.1,3.6l-4.8,1.6c-0.4,0.2-0.7,0.4-0.8,0.9
		s0,0.9,0.3,1.1l3.1,3.7c1,1.2,1,3,0,4.2L17.8,43c-0.3,0.4-0.3,0.8-0.3,1.2s0.4,0.7,0.8,0.9l4.6,1.6c1.5,0.5,2.3,1.9,2.1,3.5
		l-0.6,3.3H63l-0.6-3.3C62.2,48.8,63.1,47.4,64.5,46.9z"/>
	<path class="st0" d="M25,50.3c0.3-1.6-0.6-3-2.1-3.6l-4.6-1.6c-0.4-0.2-0.7-0.4-0.8-0.9s0-0.9,0.3-1.1l3.1-3.8c1-1.2,1-3,0-4.2
		l-3.1-3.7c-0.3-0.3-0.3-0.8-0.3-1.1c0.1-0.4,0.4-0.7,0.8-0.9l4.6-1.6c1.5-0.5,2.3-2.1,2.1-3.6l-0.9-4.9c-0.1-0.4,0.1-0.9,0.3-1.1
		c0.3-0.3,0.8-0.4,1.2-0.3l4.9,0.9c1.6,0.3,3-0.6,3.6-2.1l1.6-4.6c0.2-0.4,0.4-0.7,0.9-0.8c0.4-0.1,0.9,0,1.1,0.3l3.7,3.1
		c1.2,1,3,1,4.2,0l3.8-3.2c0.3-0.3,0.8-0.3,1.1-0.3c0.4,0.1,0.7,0.4,0.9,0.8l1.6,4.6c0.5,1.5,2.1,2.3,3.6,2.1l4.9-0.9
		c0.4-0.1,0.9,0.1,1.1,0.3c0.3,0.3,0.4,0.7,0.3,1.1L62.4,24c-0.3,1.6,0.6,3,2.1,3.6l4.6,1.6c0.4,0.2,0.7,0.4,0.8,0.9
		c0.1,0.4,0,0.9-0.3,1.1l-3,3.8c-1,1.2-1,3,0,4.2l3.1,3.7C70,43.2,70,43.7,70,44c-0.1,0.4-0.4,0.7-0.8,0.9l-4.6,1.6
		c-1.5,0.5-2.3,1.9-2.1,3.5l0.6,3.3h2L64.4,50c-0.1-0.6,0.3-1.1,0.9-1.4l4.6-1.6c1-0.3,1.7-1.2,2-2.2s0-2.1-0.6-3l-3.1-3.7
		c-0.4-0.5-0.4-1.2,0-1.6l3.1-3.7c0.7-0.8,1-1.9,0.6-3c-0.3-1-1-1.8-2-2.2L65.3,26c-0.6-0.2-1-0.8-0.9-1.5l0.9-4.9
		c0.2-1-0.2-2.1-0.9-2.9c-0.8-0.8-1.8-1.1-2.9-0.9l-4.8,0.9c-0.6,0.1-1.2-0.3-1.5-0.9l-1.6-4.6c-0.3-1-1.2-1.7-2.3-2
		c-1-0.3-2.1,0-3,0.6L44.7,13c-0.5,0.4-1.2,0.4-1.6,0l-3.8-3.1c-0.8-0.7-1.9-1-3-0.6c-1,0.3-1.8,1-2.3,2l-1.6,4.6
		c-0.2,0.6-0.9,1-1.5,0.9L26,15.9c-1-0.2-2.1,0.2-2.9,0.9c-0.8,0.8-1.1,1.8-0.9,2.9l0.9,4.9c0.1,0.6-0.3,1.2-0.9,1.5l-4.6,1.6
		c-1,0.3-1.7,1.2-2,2.3c-0.3,1,0,2.1,0.6,3l3.1,3.7c0.4,0.5,0.4,1.2,0,1.6L16.2,42c-0.7,0.8-1,1.9-0.6,3c0.3,1,1,1.8,2,2.3l4.6,1.6
		c0.6,0.2,1,0.7,0.9,1.3l-0.6,3.6h1.9L25,50.3z"/>
</g>
<path class="st0" d="M42.7,53.9c-11.1,0-21,3.7-21,3.7l4.4,8c0,0,4.1-2.2,16.9-2.2s17.4,2.2,17.4,2.2l5.8-8
	C66.1,57.5,53.8,53.9,42.7,53.9z"/>
<polygon class="st0" points="22.8,58.7 20.4,55 13.1,60.8 20,61.5 19.1,67.6 25.7,64 "/>
<polygon class="st0" points="63.8,58.7 66.2,55 73.5,60.8 66.6,61.5 67.5,67.6 60.9,64 "/>
<g>
	<g>
		<path class="st5" d="M30.9,61.5c-0.5-1-1-2.1-1.6-3.1l0,0c-0.1,1.2-0.2,2.3-0.3,3.6c-0.2,0-0.3,0.1-0.5,0.1
			c-0.6-1.2-1.3-2.5-2-3.7c0.2-0.1,0.3-0.1,0.6-0.2c0.5,1,1,2.1,1.6,3.1l0,0c0.1-1.1,0.2-2.3,0.3-3.5c0.2,0,0.4-0.1,0.6-0.1
			c0.5,1,1,2.1,1.6,3.1l0,0c0.1-1.1,0.2-2.3,0.3-3.5c0.2,0,0.3-0.1,0.6-0.1c-0.2,1.4-0.3,2.8-0.4,4.2C31.3,61.4,31.1,61.5,30.9,61.5
			z"/>
		<path class="st5" d="M34.2,56.9c0.7,1.3,1.5,2.5,2.1,3.8c-0.2,0-0.4,0-0.6,0.1c-0.2-0.3-0.3-0.8-0.6-1.1c-0.6,0.1-1.1,0.2-1.7,0.3
			c-0.1,0.4-0.2,0.9-0.3,1.3c-0.2,0-0.3,0.1-0.5,0.1c0.3-1.4,0.6-2.9,1-4.3C33.8,57,34,56.9,34.2,56.9z M34.9,59.3
			c-0.3-0.6-0.6-1.2-1-1.8l0,0c-0.2,0.7-0.3,1.3-0.4,2C34,59.4,34.4,59.3,34.9,59.3z"/>
		<path class="st5" d="M38.5,56.5c0.4,0,0.8,0.1,1,0.3c0.3,0.2,0.3,0.4,0.3,0.8c0,0.3,0,0.4-0.2,0.7c-0.1,0.2-0.3,0.3-0.5,0.4l0,0
			c0.1,0,0.3,0.1,0.3,0.1c0.1,0.1,0.2,0.1,0.2,0.2c0.1,0.1,0.1,0.2,0.1,0.3s0.1,0.2,0.1,0.3s0,0.2,0,0.3s0,0.2,0.1,0.3
			c0,0.1,0.1,0.2,0.1,0.3s0.1,0.2,0.2,0.3c-0.2,0-0.4,0-0.6,0c0,0-0.1-0.1-0.1-0.2s0-0.2,0-0.3s0-0.2,0-0.3s0-0.2-0.1-0.3
			c0-0.1-0.1-0.2-0.1-0.3s-0.1-0.2-0.1-0.3C39.1,59,39.1,59,39,58.9c-0.1,0-0.2-0.1-0.3,0c-0.4,0-0.9,0.1-1.4,0.1
			c0.1,0.6,0.1,1.1,0.2,1.7c-0.2,0-0.3,0-0.5,0.1c-0.2-1.3-0.3-2.7-0.4-4C37.1,56.6,37.8,56.6,38.5,56.5z M38.8,58.3
			c0.1,0,0.3-0.1,0.3-0.1c0.1-0.1,0.2-0.2,0.2-0.3c0.1-0.1,0.1-0.3,0.1-0.3c0-0.2-0.1-0.3-0.2-0.5c-0.1-0.1-0.3-0.2-0.6-0.2
			c-0.4,0-1,0.1-1.4,0.1c0,0.4,0.1,1,0.1,1.4c0.3,0,0.8-0.1,1.1-0.1C38.5,58.4,38.6,58.3,38.8,58.3z"/>
		<path class="st5" d="M42.7,56.3c0.4,0,0.7,0.1,1,0.3S44,57,44,57.4c0,0.3-0.1,0.4-0.2,0.6s-0.3,0.3-0.5,0.3l0,0
			c0.1,0,0.3,0.1,0.3,0.1c0.1,0.1,0.2,0.1,0.2,0.2c0.1,0.1,0.1,0.2,0.1,0.3s0,0.2,0.1,0.3c0,0.1,0,0.2,0,0.3s0,0.2,0,0.3
			s0,0.2,0.1,0.3c0,0.1,0.1,0.2,0.1,0.3c-0.2,0-0.4,0-0.6,0c0,0-0.1-0.1-0.1-0.2c0-0.1,0-0.2,0-0.3s0-0.2,0-0.3s0-0.2,0-0.3
			s0-0.2-0.1-0.3c0-0.1-0.1-0.2-0.1-0.3c-0.1-0.1-0.1-0.1-0.2-0.2c-0.1,0-0.2-0.1-0.3-0.1c-0.4,0-0.9,0-1.4,0c0,0.6,0,1.1,0.1,1.7
			c-0.2,0-0.3,0-0.5,0c-0.1-1.4-0.1-2.7-0.2-4.1C41.4,56.3,42,56.3,42.7,56.3z M42.9,58.1c0.1,0,0.3-0.1,0.3-0.1
			c0.1-0.1,0.2-0.1,0.2-0.3c0.1-0.1,0.1-0.2,0.1-0.3c0-0.2-0.1-0.3-0.2-0.5c-0.1-0.1-0.3-0.2-0.6-0.2c-0.4,0-1,0-1.4,0
			c0,0.4,0,1,0,1.4c0.3,0,0.8,0,1.1,0C42.7,58.2,42.7,58.2,42.9,58.1z"/>
		<path class="st5" d="M46.8,56.4c0.5,1.4,1,2.8,1.4,4.2c-0.2,0-0.4,0-0.6,0c-0.1-0.4-0.3-0.9-0.3-1.2c-0.6,0-1.1-0.1-1.7-0.1
			c-0.2,0.4-0.3,0.8-0.5,1.2c-0.2,0-0.3,0-0.5,0c0.5-1.3,1.1-2.7,1.7-4C46.4,56.4,46.6,56.4,46.8,56.4z M47.1,58.8
			c-0.2-0.6-0.4-1.3-0.6-1.9l0,0c-0.3,0.6-0.5,1.2-0.8,1.8C46.1,58.8,46.6,58.8,47.1,58.8z"/>
		<path class="st5" d="M49.6,56.6c0.7,1.1,1.3,2.3,1.9,3.5l0,0c0.1-1.1,0.3-2.2,0.3-3.3c0.2,0,0.3,0,0.5,0.1c-0.2,1.3-0.3,2.7-0.5,4
			c-0.2,0-0.4-0.1-0.6-0.1c-0.6-1.1-1.2-2.3-1.8-3.5l0,0c-0.1,1-0.2,2.2-0.3,3.2c-0.2,0-0.3,0-0.5,0c0.1-1.4,0.2-2.7,0.3-4.1
			C49.3,56.6,49.4,56.6,49.6,56.6z"/>
		<path class="st5" d="M53,57.4c0-0.2,0-0.3,0.1-0.4c1.1,0.2,2.3,0.3,3.4,0.5c0,0.2-0.1,0.3-0.1,0.4c-0.4-0.1-1-0.2-1.4-0.3
			c-0.2,1.2-0.3,2.3-0.6,3.6c-0.2,0-0.3-0.1-0.5-0.1c0.2-1.2,0.3-2.3,0.5-3.6C53.9,57.5,53.4,57.4,53,57.4z"/>
		<path class="st5" d="M57.9,62c-0.2,0-0.3-0.1-0.5-0.1c0.1-0.5,0.3-1,0.3-1.6c-0.3-0.9-0.8-1.8-1.1-2.7c0.3,0,0.4,0.1,0.7,0.1
			c0.3,0.7,0.6,1.4,0.9,2.2c0.5-0.5,1.1-1,1.6-1.6c0.2,0.1,0.4,0.1,0.6,0.2c-0.7,0.6-1.5,1.3-2.2,2C58.2,60.8,58.1,61.4,57.9,62z"/>
	</g>
</g>
</svg>
