<?xml version="1.0" encoding="utf-8"?>
<!-- Generator: Adobe Illustrator 23.0.3, SVG Export Plug-In . SVG Version: 6.00 Build 0)  -->
<svg version="1.1" id="Layer_1" xmlns="http://www.w3.org/2000/svg" xmlns:xlink="http://www.w3.org/1999/xlink" x="0px" y="0px"
	 viewBox="0 0 86.8 81.7" style="enable-background:new 0 0 86.8 81.7;" xml:space="preserve">
<style type="text/css">
	.st0{fill:#4667AE;}
</style>
<g>
	<path class="st0" d="M44.3,4.7C24.6,4.7,8.7,20.6,8.7,40.3c0,5.8,1.4,11.3,3.9,16.1c0.1,0.3,0.3,0.7,0.5,0.9v0.1l0,0
		c0.6,0.7,1.5,1.2,2.5,1.2c1.8,0,3.2-1.5,3.2-3.2v-0.3c0-0.9-0.4-1.8-1-2.4l0.1-0.1c-1.8-3.8-2.8-8-2.8-12.4
		c0-16.1,13-29.2,29.1-29.2s29.1,13.1,29.1,29.2s-13,29.2-29.1,29.2c-6.3,0-12.2-2-17-5.5c-0.6-0.7-1.5-1.2-2.5-1.2
		c-1.8,0-3.2,1.5-3.2,3.2v0.3c0,1.4,0.9,2.7,2.2,3.1c5.8,4.1,12.9,6.5,20.5,6.5c19.6,0,35.6-15.9,35.6-35.6
		C79.8,20.6,63.9,4.7,44.3,4.7z M44.3,17.6c-1.8,0-3.2,1.5-3.2,3.2v18.8c0,0.2-0.1,0.4-0.1,0.6c0,0.4,0.1,0.7,0.2,1.1
		c0.4,1.3,1.6,2.3,3.1,2.3c0.3,0,0.7-0.1,1-0.1h18.5c1.8,0,3.2-1.5,3.2-3.2s-1.4-3.2-3.2-3.2H47.6V20.9
		C47.5,19.1,46.1,17.6,44.3,17.6z"/>
</g>
</svg>
